<svg width="20" height="20" viewBox="0 0 20 20" fill="none" xmlns="http://www.w3.org/2000/svg">
<path fill-rule="evenodd" clip-rule="evenodd" d="M7.5 7.5C9.08551 7.5 10.4248 6.44574 10.8551 5H20V3H10.8551C10.4248 1.55426 9.08551 0.5 7.5 0.5C5.567 0.5 4 2.067 4 4C4 5.933 5.567 7.5 7.5 7.5ZM9 4C9 4.82843 8.32843 5.5 7.5 5.5C6.67157 5.5 6 4.82843 6 4C6 3.17157 6.67157 2.5 7.5 2.5C8.32843 2.5 9 3.17157 9 4Z" fill="black"/>
<path fill-rule="evenodd" clip-rule="evenodd" d="M14.5 13.5C16.0855 13.5 17.4248 12.4457 17.8551 11H20V9H17.8551C17.4248 7.55426 16.0855 6.5 14.5 6.5C12.567 6.5 11 8.067 11 10C11 11.933 12.567 13.5 14.5 13.5ZM14.5 11.5C15.3284 11.5 16 10.8284 16 10C16 9.17157 15.3284 8.5 14.5 8.5C13.6716 8.5 13 9.17157 13 10C13 10.8284 13.6716 11.5 14.5 11.5Z" fill="black"/>
<path fill-rule="evenodd" clip-rule="evenodd" d="M5.5 19.5C7.433 19.5 9 17.933 9 16C9 14.067 7.433 12.5 5.5 12.5C3.91449 12.5 2.57521 13.5543 2.14494 15H0V17H2.14494C2.57521 18.4457 3.91449 19.5 5.5 19.5ZM5.5 17.5C6.32843 17.5 7 16.8284 7 16C7 15.1716 6.32843 14.5 5.5 14.5C4.67157 14.5 4 15.1716 4 16C4 16.8284 4.67157 17.5 5.5 17.5Z" fill="black"/>
<path d="M10 15H20V17H10V15Z" fill="black"/>
<path d="M10 9H0V11H10V9Z" fill="black"/>
<path d="M3 3H0V5H3V3Z" fill="black"/>
</svg>
