<svg width="623" height="63" viewBox="0 0 623 63" fill="none" xmlns="http://www.w3.org/2000/svg">
<path d="M16.6974 1L16.9289 0.556825L16.6538 0.413096L16.4029 0.595929L16.6974 1ZM16.8074 1.05749L17.0389 0.614317V0.614317L16.8074 1.05749ZM16.597 1.07313L16.8915 1.4772L16.8915 1.4772L16.597 1.07313ZM6.63735 13.1426L6.19365 12.9121H6.19365L6.63735 13.1426ZM6.57603 13.2606L6.13233 13.0301L5.97902 13.3252L6.19192 13.5807L6.57603 13.2606ZM6.66119 13.3628L7.0453 13.0427L7.0453 13.0427L6.66119 13.3628ZM18.6329 22.5172L18.428 22.9733H18.428L18.6329 22.5172ZM18.7378 22.5643L18.5329 23.0204L18.7953 23.1383L19.0291 22.9708L18.7378 22.5643ZM18.8313 22.4973L19.1226 22.9037H19.1226L18.8313 22.4973ZM28.1937 11.5242L27.7465 11.3006L27.7465 11.3006L28.1937 11.5242ZM28.2464 11.4188L28.6937 11.6424L28.8255 11.3787L28.6586 11.1357L28.2464 11.4188ZM28.1797 11.3216L27.7675 11.6046L27.7675 11.6046L28.1797 11.3216ZM16.7323 1.46984L16.9657 1.02764L16.6885 0.881346L16.436 1.06711L16.7323 1.46984ZM7.05389 13.2088L6.61086 12.9771L6.45561 13.2738L6.67095 13.5303L7.05389 13.2088ZM27.783 11.4508L28.2294 11.676L28.3632 11.4108L28.1943 11.1664L27.783 11.4508ZM18.6918 22.1049L18.4853 22.5603L18.7495 22.6801L18.9846 22.5103L18.6918 22.1049ZM363.731 45.6348L363.353 45.9623L363.358 45.9688L363.364 45.975L363.731 45.6348ZM366.431 38.1348L366.485 37.6377L366.384 37.6268L366.287 37.6559L366.431 38.1348ZM371.031 38.6348L371.504 38.4736L371.401 38.1721L371.085 38.1377L371.031 38.6348ZM374.131 47.7348L373.657 47.896L373.773 48.2348H374.131V47.7348ZM382.931 47.7348V48.2348H383.295L383.407 47.8875L382.931 47.7348ZM384.631 37.2348H385.131V37.2205L385.13 37.2063L384.631 37.2348ZM384.431 33.7348L384.93 33.7063L384.913 33.4213L384.66 33.2904L384.431 33.7348ZM352.931 34.8348L353.219 35.2435L353.22 35.2426L352.931 34.8348ZM349.531 54.0348L349.135 54.3402L349.139 54.3465L349.145 54.3527L349.531 54.0348ZM360.031 61.4348L359.8 61.8786L359.807 61.882L360.031 61.4348ZM369.231 66.8348L368.865 67.176L368.871 67.1823L368.877 67.1884L369.231 66.8348ZM368.931 73.9348L368.763 74.406L369.042 74.5049L369.263 74.3085L368.931 73.9348ZM350.931 63.9348L351.236 63.5387L350.728 63.1476L350.472 63.7353L350.931 63.9348ZM345.231 77.0348L344.772 76.8353L344.586 77.2634L345 77.4786L345.231 77.0348ZM381.031 78.1348L381.335 78.5314L381.339 78.528L381.031 78.1348ZM383.831 58.9348L383.436 59.2418L383.44 59.2472L383.831 58.9348ZM373.031 51.2348L372.798 51.6775L372.802 51.6798L373.031 51.2348ZM454.929 74.7348L455.172 75.1717L455.471 75.0057L455.424 74.6673L454.929 74.7348ZM441.629 82.1348L441.595 82.6336L441.742 82.6438L441.872 82.5717L441.629 82.1348ZM454.329 70.3348L454.824 70.2673L454.76 69.7987L454.289 69.8364L454.329 70.3348ZM451.829 70.5348L451.848 71.0344L451.859 71.034L451.869 71.0332L451.829 70.5348ZM449.229 70.6348V71.1348H449.239L449.248 71.1344L449.229 70.6348ZM446.729 35.4348H447.229V35.2103L447.061 35.0611L446.729 35.4348ZM441.329 30.6348L441.661 30.2611L441.515 30.131L441.319 30.1349L441.329 30.6348ZM423.329 34.0348L423.143 33.5706L422.793 33.7109L422.832 34.0866L423.329 34.0348ZM423.829 38.8348L423.332 38.8866L423.368 39.2349L423.708 39.3199L423.829 38.8348ZM429.429 40.2348H429.929V39.8444L429.55 39.7497L429.429 40.2348ZM429.429 68.8348L429.633 69.2911L429.929 69.1586V68.8348H429.429ZM417.129 35.4348H417.629V35.2103L417.461 35.0611L417.129 35.4348ZM411.729 30.6348L412.061 30.2611L411.913 30.1296L411.715 30.135L411.729 30.6348ZM391.929 34.3348L391.751 33.8677L391.392 34.0047L391.432 34.3866L391.929 34.3348ZM392.429 39.1348L391.932 39.1866L391.97 39.5569L392.336 39.6261L392.429 39.1348ZM399.829 40.5348H400.329V40.1205L399.922 40.0435L399.829 40.5348ZM399.829 65.2348H399.329V65.248L399.33 65.2611L399.829 65.2348ZM400.129 70.9348L399.63 70.9611L399.631 70.979L399.633 70.9968L400.129 70.9348ZM405.229 78.9348L404.939 79.3423L404.943 79.3453L405.229 78.9348ZM414.929 82.1348V82.6348H415.001L415.071 82.6142L414.929 82.1348ZM431.029 73.6348L431.479 73.4161L431.211 72.8669L430.726 73.2372L431.029 73.6348ZM435.729 79.6348L435.418 80.0266L435.425 80.0316L435.729 79.6348ZM483.508 80.3348L483.606 79.8445L483.008 79.7249V80.3348H483.508ZM510.808 37.7348L510.413 38.0414L510.418 38.0479L510.808 37.7348ZM497.408 31.0348V30.5348H497.386L497.364 30.5367L497.408 31.0348ZM494.008 31.3348L493.964 30.8367L493.823 30.8492L493.71 30.9334L494.008 31.3348ZM483.508 39.1348H483.008V40.1291L483.806 39.5362L483.508 39.1348ZM483.508 35.4348H484.008V35.2099L483.84 35.0607L483.508 35.4348ZM478.208 30.7348H477.708V30.9597L477.876 31.1089L478.208 30.7348ZM478.208 30.6348H478.708V30.1209L478.194 30.135L478.208 30.6348ZM458.408 34.3348L458.229 33.8677L457.871 34.0047L457.911 34.3866L458.408 34.3348ZM458.908 39.1348L458.411 39.1866L458.449 39.5559L458.814 39.6259L458.908 39.1348ZM466.208 40.5348H466.708V40.1216L466.302 40.0438L466.208 40.5348ZM466.208 94.5348L466.391 95L466.708 94.8752V94.5348H466.208ZM459.608 97.1348L459.425 96.6696L459.088 96.8022L459.109 97.1633L459.608 97.1348ZM459.808 100.635L459.309 100.663L459.336 101.135H459.808V100.635ZM492.808 100.635V101.135H493.288L493.307 100.655L492.808 100.635ZM493.008 95.7348L493.507 95.7552L493.52 95.444L493.246 95.2954L493.008 95.7348ZM483.508 91.4348H483.008V91.7733L483.322 91.8991L483.508 91.4348ZM483.508 44.3348L483.298 43.8808L483.008 44.0149V44.3348H483.508ZM495.208 47.3348L494.778 47.5906L494.781 47.5951L495.208 47.3348ZM496.108 66.0348L495.639 65.8604L495.637 65.8666L496.108 66.0348ZM492.108 72.6348L492.144 73.1335L492.324 73.1203L492.454 72.9955L492.108 72.6348ZM483.508 71.7348H483.008V72.119L483.379 72.2179L483.508 71.7348ZM563.064 57.5348L563.06 58.0348L563.27 58.0365L563.418 57.8884L563.064 57.5348ZM537.864 57.3348L537.868 56.8348L537.307 56.8304L537.367 57.3883L537.864 57.3348ZM568.864 51.7348L569.218 52.0884L569.362 51.9441L569.364 51.74L568.864 51.7348ZM562.864 36.3348L562.517 36.6942L562.52 36.6972L562.864 36.3348ZM528.964 38.2348L528.604 37.8883L528.604 37.8884L528.964 38.2348ZM528.864 74.9348L528.518 75.2957L528.521 75.298L528.864 74.9348ZM547.364 81.9348V82.4348H547.38L547.397 82.4338L547.364 81.9348ZM551.964 81.6348L551.997 82.1338L552.111 82.1263L552.211 82.0698L551.964 81.6348ZM567.664 72.7348L567.911 73.1698L568.303 72.9473L568.122 72.534L567.664 72.7348ZM565.164 67.0348L565.622 66.834L565.409 66.3472L564.936 66.59L565.164 67.0348ZM542.464 67.3348L542.13 67.707L542.135 67.7111L542.464 67.3348ZM544.364 38.7348L544.379 38.235L544.228 38.2306L544.099 38.3108L544.364 38.7348ZM538.264 49.7348L537.771 49.6546L537.67 50.2713L538.294 50.2339L538.264 49.7348ZM550.164 41.8348L549.774 42.1472L549.779 42.1543L549.785 42.1613L550.164 41.8348ZM553.264 48.8348L553.294 49.3339L553.838 49.3013L553.759 48.7624L553.264 48.8348ZM598.19 47.6348L597.894 47.2316L597.69 47.3814V47.6348H598.19ZM598.19 71.3348H597.69V71.7295L598.074 71.8211L598.19 71.3348ZM599.69 46.5348L599.752 46.0387L599.555 46.014L599.394 46.1316L599.69 46.5348ZM610.39 52.6348L610.069 53.0185L610.463 53.3475L610.782 52.9455L610.39 52.6348ZM621.89 38.1348L622.282 38.4455L622.455 38.2271L622.36 37.965L621.89 38.1348ZM617.19 32.5348L616.931 32.9624L616.936 32.9658L617.19 32.5348ZM606.09 31.0348L605.932 30.5605L605.805 30.6028L605.716 30.7029L606.09 31.0348ZM598.19 39.9348H597.69V41.2513L598.564 40.2667L598.19 39.9348ZM598.19 38.1348H598.69V37.9735L598.596 37.8427L598.19 38.1348ZM592.79 30.6348L593.196 30.3427L593.041 30.1277L592.776 30.135L592.79 30.6348ZM572.99 34.3348L572.811 33.8677L572.453 34.0047L572.493 34.3866L572.99 34.3348ZM573.49 39.1348L572.993 39.1866L573.031 39.5569L573.397 39.6261L573.49 39.1348ZM580.89 40.5348H581.39V40.1205L580.983 40.0435L580.89 40.5348ZM580.89 73.6348L581.055 74.1069L581.39 73.9899V73.6348H580.89ZM573.49 76.9348L573.239 76.5024L572.973 76.6567L572.991 76.9633L573.49 76.9348ZM573.69 80.4348L573.191 80.4633L573.218 80.9348H573.69V80.4348ZM608.89 80.4348V80.9348H609.37L609.389 80.4552L608.89 80.4348ZM609.09 75.5348L609.589 75.5552L609.601 75.2634L609.353 75.1097L609.09 75.5348ZM21.1477 27.4853L21.4799 27.1116L21.4799 27.1116L21.1477 27.4853ZM21.0885 27.4327L21.4207 27.0589L21.2727 26.9274L21.0748 26.9328L21.0885 27.4327ZM26.5477 32.2853L26.2155 32.659L26.2155 32.659L26.5477 32.2853ZM26.6148 32.3449H27.1148V32.1204L26.947 31.9712L26.6148 32.3449ZM26.6148 68.8919H26.1148V69.2485L26.4519 69.3646L26.6148 68.8919ZM33.7311 72.372L34.0217 71.9652L34.0217 71.9651L33.7311 72.372ZM33.8191 72.4349L34.3187 72.4553L34.3297 72.1852L34.1097 72.028L33.8191 72.4349ZM33.8147 72.5429L34.3143 72.5633L33.8147 72.5429ZM33.6147 77.4429L34.1143 77.4633L33.6147 77.4429ZM33.6068 77.6348V78.1348H34.0868L34.1064 77.6552L33.6068 77.6348ZM1.52594 77.6348L1.02675 77.6633L1.05369 78.1348H1.52594V77.6348ZM1.51516 77.4462L2.01435 77.4176H2.01435L1.51516 77.4462ZM1.31516 73.9462L1.81435 73.9176H1.81435L1.31516 73.9462ZM1.3081 73.8225L1.06001 73.3884L0.79125 73.542L0.808911 73.8511L1.3081 73.8225ZM1.41561 73.7611L1.16754 73.327L1.16752 73.327L1.41561 73.7611ZM8.91483 70.3919L9.07778 70.8646L9.41483 70.7485V70.3919H8.91483ZM8.91483 37.7005H9.41483V37.2862L9.00778 37.2092L8.91483 37.7005ZM1.67766 36.3313L1.7706 35.84L1.7706 35.84L1.67766 36.3313ZM1.53134 36.3036L1.03403 36.3554L1.0726 36.7257L1.4384 36.7949L1.53134 36.3036ZM1.51591 36.1555L2.01322 36.1037L1.51591 36.1555ZM1.01591 31.3555L0.518602 31.4073L0.518602 31.4073L1.01591 31.3555ZM1 31.2027L0.821565 30.7357L0.462913 30.8727L0.502691 31.2545L1 31.2027ZM1.14346 31.1479L0.965027 30.6809H0.965026L1.14346 31.1479ZM21.0093 27.4348L20.9956 26.935H20.9956L21.0093 27.4348ZM1.89833 35.9659L1.40102 36.0177L1.43959 36.388L1.80538 36.4572L1.89833 35.9659ZM1.42969 31.467L1.25269 30.9994L0.892482 31.1358L0.932386 31.5188L1.42969 31.467ZM9.15201 37.3382L9.05907 37.8295L9.05907 37.8295L9.15201 37.3382ZM9.31484 37.3691H9.81484V36.9548L9.40778 36.8778L9.31484 37.3691ZM9.31484 70.6778L9.47639 71.151L9.81484 71.0354V70.6778H9.31484ZM9.17946 70.724L9.01791 70.2508L9.01789 70.2509L9.17946 70.724ZM1.72159 74.0472L1.47488 73.6123L1.20468 73.7656L1.2224 74.0757L1.72159 74.0472ZM1.90373 77.2348L1.40455 77.2633L1.43149 77.7348H1.90373V77.2348ZM33.2228 77.2348V77.7348H33.7028L33.7224 77.2551L33.2228 77.2348ZM33.4106 72.6351L33.9102 72.6554L33.9213 72.3833L33.6987 72.2264L33.4106 72.6351ZM26.3503 69.2241L26.5116 68.7508L26.5116 68.7508L26.3503 69.2241ZM26.2148 69.1779H25.7148V69.5357L26.0535 69.6512L26.2148 69.1779ZM26.2148 32.5246H26.7148V32.3L26.547 32.1509L26.2148 32.5246ZM20.9412 27.8369L21.2734 27.4632L21.1252 27.3314L20.9269 27.3371L20.9412 27.8369ZM86.4557 29.0805L86.3535 28.5911L86.4557 29.0805ZM112.546 34.643L112.98 34.3937L112.968 34.3726L112.954 34.3528L112.546 34.643ZM113.367 37.416L112.873 37.4939L113.367 37.416ZM113.715 42.1365H114.215L114.215 42.1277L113.715 42.1365ZM114.396 67.1234L114.035 67.4699L114.035 67.4699L114.396 67.1234ZM116.415 67.8348H116.915V67.3348H116.415V67.8348ZM116.415 67.8349H115.915V68.3538L116.433 68.3346L116.415 67.8349ZM116.422 67.8346L116.404 67.335H116.404L116.422 67.8346ZM119.122 67.7346H119.622V67.2158L119.104 67.235L119.122 67.7346ZM119.122 67.7348H118.622V68.2785L119.164 68.2331L119.122 67.7348ZM119.131 67.7341L119.09 67.2358L119.09 67.2358L119.131 67.7341ZM121.342 67.5498L121.838 67.4823L121.774 67.0122L121.301 67.0516L121.342 67.5498ZM121.898 71.6269L122.143 72.063L122.44 71.8966L122.394 71.5593L121.898 71.6269ZM108.866 78.9327L108.845 79.4323L108.987 79.4383L109.111 79.3689L108.866 78.9327ZM103.431 76.872L103.14 77.2789L103.431 76.872ZM98.8892 71.7367L98.4534 71.9818L98.4534 71.9818L98.8892 71.7367ZM98.7846 71.5507L99.2204 71.3056L98.9588 70.8407L98.5118 71.1317L98.7846 71.5507ZM98.6057 71.6671L98.8785 72.0862V72.0862L98.6057 71.6671ZM88.0476 78.5399L88.0915 79.038L88.2158 79.027L88.3203 78.959L88.0476 78.5399ZM84.7061 78.8348L84.7059 79.3348L84.728 79.3348L84.75 79.3328L84.7061 78.8348ZM73.9964 75.0841L74.3254 74.7076L73.9964 75.0841ZM77.6667 54.4337L77.6562 53.9338L77.5368 53.9363L77.4314 53.9925L77.6667 54.4337ZM96.6191 54.0347L96.6296 54.5346H96.6296L96.6191 54.0347ZM96.8148 54.0306L96.8254 54.5305L97.3148 54.5202V54.0306H96.8148ZM92.1074 35.3574L92.3386 34.9142L92.3386 34.9141L92.1074 35.3574ZM92.058 35.3317L92.2892 34.8884L92.1658 34.824L92.0268 34.8326L92.058 35.3317ZM92.0024 35.3352L92.0336 35.8342H92.0336L92.0024 35.3352ZM86.3379 36.5501L86.5302 37.0117L86.5302 37.0117L86.3379 36.5501ZM86.2417 36.5903L86.0494 36.1287L85.8087 36.229L85.7532 36.4837L86.2417 36.5903ZM86.2194 36.6921L86.708 36.7987V36.7987L86.2194 36.6921ZM83.8531 47.538L83.8633 48.0379L84.2575 48.0299L84.3416 47.6446L83.8531 47.538ZM74.3558 47.7318L73.8834 47.8957L74.0026 48.2392L74.366 48.2317L74.3558 47.7318ZM72.5148 36.5402L72.0156 36.5132L72.0148 36.5267V36.5402L72.5148 36.5402ZM72.7076 32.9752L72.5295 32.508L72.2258 32.6237L72.2083 32.9482L72.7076 32.9752ZM86.374 28.689L86.4762 29.1784L86.374 28.689ZM72.4433 32.648L72.2643 32.1811L72.2643 32.1811L72.4433 32.648ZM72.3221 32.6944L72.1432 32.2276L71.8404 32.3436L71.8229 32.6674L72.3221 32.6944ZM72.3151 32.824L71.8159 32.797V32.797L72.3151 32.824ZM72.1151 36.524L72.0889 37.0233L72.5875 37.0495L72.6144 36.551L72.1151 36.524ZM72.1148 36.524L72.1411 36.0246L71.6148 35.9969V36.524H72.1148ZM74.0262 48.0011L74.4978 47.8352V47.8352L74.0262 48.0011ZM74.0742 48.1377L73.6026 48.3036L73.7226 48.645L74.0844 48.6376L74.0742 48.1377ZM74.2189 48.1347L74.2291 48.6346L74.2189 48.1347ZM84.0189 47.9347L84.0291 48.4346H84.0291L84.0189 47.9347ZM84.1766 47.9315L84.1868 48.4314L84.5811 48.4234L84.6651 48.0381L84.1766 47.9315ZM84.2103 47.7774L83.7217 47.6708L84.2103 47.7774ZM86.5879 36.8798L86.3994 36.4167L86.1555 36.516L86.0994 36.7732L86.5879 36.8798ZM91.9714 35.7379L92.2059 35.2963L92.0807 35.2298L91.9391 35.239L91.9714 35.7379ZM96.4148 53.6389L96.4254 54.1388L96.9148 54.1285V53.6389H96.4148ZM77.6106 54.0348L77.6001 53.5349H77.6001L77.6106 54.0348ZM77.5631 54.0358L77.5525 53.5359L77.4336 53.5384L77.3286 53.5942L77.5631 54.0358ZM77.5211 54.0581L77.7555 54.4997L77.7556 54.4997L77.5211 54.0581ZM73.7333 75.3854L74.0622 75.0088L73.7333 75.3854ZM84.7237 79.2348V79.7348H84.7458L84.7679 79.7328L84.7237 79.2348ZM84.7324 79.234L84.6885 78.7359L84.6882 78.7359L84.7324 79.234ZM88.1324 78.934L88.1764 79.4321H88.1764L88.1324 78.934ZM88.1821 78.9296L88.2261 79.4277L88.3504 79.4167L88.4549 79.3486L88.1821 78.9296ZM88.224 78.9024L87.9512 78.4833L87.9512 78.4833L88.224 78.9024ZM98.6462 72.1181L99.0791 71.868L98.8153 71.4114L98.3734 71.6991L98.6462 72.1181ZM103.199 77.1975L102.908 77.6044L103.199 77.1975ZM108.908 79.3346L108.926 78.835H108.926L108.908 79.3346ZM108.964 79.3366L108.946 79.8363L109.086 79.8413L109.208 79.7728L108.964 79.3366ZM109.013 79.3092L108.768 78.8731L108.768 78.8731L109.013 79.3092ZM122.213 71.9092L121.968 71.4731H121.968L122.213 71.9092ZM122.331 71.8426L122.576 72.2788L122.873 72.1124L122.827 71.7751L122.331 71.8426ZM122.313 71.7077L122.808 71.6402V71.6402L122.313 71.7077ZM121.713 67.3077L121.218 67.3753L121.713 67.3077ZM121.687 67.1197L122.183 67.0521L122.119 66.582L121.646 66.6214L121.687 67.1197ZM121.498 67.1355L121.54 67.6337H121.54L121.498 67.1355ZM119.103 67.3351L119.121 67.8347L119.133 67.8343L119.144 67.8333L119.103 67.3351ZM116.411 67.4348L116.411 67.9348L116.42 67.9348L116.43 67.9344L116.411 67.4348ZM114.684 66.8461L114.324 67.1927L114.324 67.1927L114.684 66.8461ZM114.115 65.0348H113.615H114.115ZM114.115 42.1348H114.615L114.615 42.1261L114.115 42.1348ZM114.115 42.1313L114.615 42.1226V42.1225L114.115 42.1313ZM113.762 37.3536L114.256 37.2756V37.2756L113.762 37.3536ZM112.888 34.4346L113.321 34.184L113.321 34.184L112.888 34.4346ZM112.883 34.4264L113.316 34.1758L113.304 34.1556L113.291 34.1365L112.883 34.4264ZM112.878 34.4187L113.285 34.1288L113.285 34.1286L112.878 34.4187ZM96.6188 59.7348L96.6088 60.2347L96.6188 59.7348ZM96.8148 59.7387H97.3148V59.2486L96.8248 59.2388L96.8148 59.7387ZM96.8148 67.4806L96.9676 67.9567L97.3148 67.8453V67.4806H96.8148ZM96.6759 67.5252L96.8286 68.0013L96.8287 68.0013L96.6759 67.5252ZM88.3281 69.4343L88.3614 69.9332H88.3614L88.3281 69.4343ZM88.2376 69.4404L87.884 69.7939L88.0445 69.9543L88.2708 69.9392L88.2376 69.4404ZM87.0721 62.5633L87.4915 62.8356V62.8356L87.0721 62.5633ZM87.4076 62.7812L86.9882 62.5089L87.4076 62.7812ZM88.3927 69.0288L88.0339 69.377L88.1965 69.5446L88.4293 69.5275L88.3927 69.0288ZM96.4148 67.1887L96.5667 67.6651L96.9148 67.5541V67.1887H96.4148ZM96.4148 60.1313H96.9148V59.6387L96.4222 59.6314L96.4148 60.1313ZM144.295 27.4325L144.649 27.0789L144.497 26.9267L144.282 26.9327L144.295 27.4325ZM144.356 27.4933L144.003 27.8469L144.003 27.8469L144.356 27.4933ZM144.209 27.4348L144.223 27.9346L144.209 27.4348ZM124.343 31.1479L124.522 31.615L124.343 31.1479ZM124.2 31.2027L124.022 30.7357L123.663 30.8727L123.703 31.2546L124.2 31.2027ZM124.216 31.3555L124.713 31.3037V31.3037L124.216 31.3555ZM124.716 36.1555L125.213 36.1037V36.1037L124.716 36.1555ZM124.731 36.3036L124.234 36.3554L124.273 36.7257L124.638 36.7949L124.731 36.3036ZM124.878 36.3313L124.971 35.84L124.971 35.84L124.878 36.3313ZM132.115 37.7005H132.615V37.2862L132.208 37.2092L132.115 37.7005ZM132.115 70.4929L132.281 70.9646L132.615 70.8471V70.4929H132.115ZM124.814 73.7618L124.563 73.3294L124.563 73.3294L124.814 73.7618ZM124.708 73.8235L124.457 73.3911L124.191 73.5453L124.209 73.852L124.708 73.8235ZM124.715 73.9462L124.216 73.9747V73.9747L124.715 73.9462ZM124.915 77.4462L125.414 77.4177V77.4176L124.915 77.4462ZM124.926 77.6348L124.427 77.6633L124.454 78.1348H124.926V77.6348ZM155.407 77.6348V78.1348H155.887L155.906 77.6552L155.407 77.6348ZM155.415 77.4429L154.915 77.4225V77.4225L155.415 77.4429ZM155.615 72.5429L156.114 72.5633V72.5633L155.615 72.5429ZM155.619 72.436L156.119 72.4564L156.13 72.189L155.913 72.0316L155.619 72.436ZM155.532 72.373L155.827 71.9687H155.827L155.532 72.373ZM149.815 69.205H149.315V69.529L149.611 69.6614L149.815 69.205ZM149.815 41.267L149.62 40.8065L149.315 40.9356V41.267H149.815ZM160.246 42.2668L160.668 41.9992V41.9992L160.246 42.2668ZM161.815 77.6348H161.315V78.1348H161.815V77.6348ZM185.203 77.6348V78.1348H185.673L185.702 77.6653L185.203 77.6348ZM185.214 77.447L184.715 77.4164V77.4165L185.214 77.447ZM185.514 72.547L186.014 72.5775V72.5775L185.514 72.547ZM185.521 72.4342L186.02 72.4648L186.038 72.183L185.805 72.0227L185.521 72.4342ZM185.428 72.3701L185.712 71.9585L185.712 71.9585L185.428 72.3701ZM179.514 69.1019L179.014 69.1036L179.016 69.4333L179.319 69.5621L179.514 69.1019ZM179.415 41.3619L179.205 40.9083L178.914 41.0432L178.915 41.3636L179.415 41.3619ZM190.046 42.2668L190.468 41.9992V41.9992L190.046 42.2668ZM191.615 77.6348H191.115V78.1348H191.615V77.6348ZM216.703 77.6348V78.1348H217.173L217.202 77.6653L216.703 77.6348ZM216.714 77.447L216.215 77.4164V77.4165L216.714 77.447ZM217.014 72.547L217.514 72.5775V72.5775L217.014 72.547ZM217.021 72.4342L217.52 72.4648L217.538 72.183L217.305 72.0227L217.021 72.4342ZM216.928 72.3701L217.212 71.9585L217.212 71.9585L216.928 72.3701ZM209.315 68.6936H208.815V69.046L209.147 69.1645L209.315 68.6936ZM209.315 44.2348H209.815L209.815 44.2294L209.315 44.2348ZM209.315 44.2319L209.815 44.2265L209.815 44.2249L209.315 44.2319ZM208.963 38.3836L209.459 38.3182V38.3182L208.963 38.3836ZM208.09 35.0384L208.528 34.7974L208.528 34.7968L208.09 35.0384ZM208.086 35.0318L208.524 34.7902L208.516 34.7744L208.506 34.7593L208.086 35.0318ZM208.082 35.0255L208.502 34.753L208.501 34.7524L208.082 35.0255ZM194.021 27.7349L194.037 27.2351L194.021 27.7349ZM193.987 27.7338L194.003 27.234L193.917 27.2313L193.835 27.2575L193.987 27.7338ZM193.954 27.7442L194.106 28.2205L194.106 28.2205L193.954 27.7442ZM178.792 36.1244L178.338 36.3339L178.599 36.8994L179.095 36.5224L178.792 36.1244ZM178.296 35.0509L177.842 35.2604L177.842 35.2605L178.296 35.0509ZM178.29 35.0377L178.744 34.8283L178.729 34.7951L178.709 34.7645L178.29 35.0377ZM178.282 35.0255L177.864 35.2986L177.864 35.2987L178.282 35.0255ZM164.221 27.7349L164.237 27.2351H164.237L164.221 27.7349ZM164.187 27.7338L164.203 27.234L164.119 27.2313L164.038 27.2567L164.187 27.7338ZM164.155 27.7439L164.305 28.221L164.305 28.221L164.155 27.7439ZM149.815 35.441H149.315V36.4226L150.109 35.8454L149.815 35.441ZM149.815 32.9519H150.315V32.7448L150.168 32.5983L149.815 32.9519ZM149.756 32.8933L149.403 33.2469L149.403 33.2469L149.756 32.8933ZM124.63 31.467L124.453 30.9994L124.092 31.1358L124.132 31.5188L124.63 31.467ZM125.098 35.9659L124.601 36.0177L124.64 36.388L125.005 36.4572L125.098 35.9659ZM144.134 27.8371L144.488 27.4835L144.335 27.3311L144.12 27.3373L144.134 27.8371ZM149.415 33.1176H149.915V32.9105L149.768 32.764L149.415 33.1176ZM149.415 36.2297H148.915V37.2171L149.711 36.6328L149.415 36.2297ZM149.733 35.996L149.437 35.5929V35.5929L149.733 35.996ZM164.242 28.1358L164.259 27.636L164.174 27.6332L164.092 27.6588L164.242 28.1358ZM177.939 35.2318L178.393 35.0223L178.378 34.989L178.358 34.9584L177.939 35.2318ZM178.533 36.5186L178.079 36.7281L178.533 36.5186ZM178.638 36.7455L178.184 36.955L178.446 37.5222L178.942 37.1425L178.638 36.7455ZM178.836 36.5936L178.532 36.1965L178.532 36.1965L178.836 36.5936ZM194.043 28.1358L194.059 27.6361L193.973 27.6332L193.89 27.6597L194.043 28.1358ZM207.743 35.2376L208.182 34.9978L208.173 34.9807L208.162 34.9643L207.743 35.2376ZM208.567 38.4359L209.062 38.3705L208.567 38.4359ZM208.915 44.2365H209.415L209.415 44.2295L208.915 44.2365ZM208.915 68.9761H208.415V69.3295L208.748 69.4474L208.915 68.9761ZM209.048 69.0233L209.215 68.552V68.552L209.048 69.0233ZM216.608 72.6357L217.107 72.6662L217.125 72.3824L216.89 72.2224L216.608 72.6357ZM216.327 77.2348V77.7348H216.797L216.826 77.2653L216.327 77.2348ZM192.015 77.2348H191.515V77.7348H192.015V77.2348ZM190.384 42.0527L190.806 41.7851L190.384 42.0527ZM179.13 41.0538L179.343 41.5062H179.343L179.13 41.0538ZM179.014 41.1081L178.801 40.6556L178.513 40.7913L178.514 41.1099L179.014 41.1081ZM179.015 41.2355L179.515 41.2337V41.2337L179.015 41.2355ZM179.115 69.2355L178.615 69.2373V69.2373L179.115 69.2355ZM179.115 69.368L178.615 69.3698L178.617 69.701L178.922 69.829L179.115 69.368ZM179.237 69.4192L179.044 69.8803L179.044 69.8803L179.237 69.4192ZM185.108 72.6355L185.607 72.666L185.625 72.3831L185.391 72.223L185.108 72.6355ZM184.827 77.2348V77.7348H185.297L185.326 77.2653L184.827 77.2348ZM162.215 77.2348H161.715V77.7348H162.215V77.2348ZM160.584 42.0527L160.161 42.3203V42.3203L160.584 42.0527ZM149.536 40.9509L149.339 40.4914L149.339 40.4914L149.536 40.9509ZM149.415 41.0029L149.218 40.5433L148.915 40.6732V41.0029H149.415ZM149.415 69.4647H148.915V69.7897L149.212 69.9216L149.415 69.4647ZM149.534 69.5175L149.737 69.0606L149.534 69.5175ZM155.211 72.6339L155.71 72.6543L155.721 72.3851L155.502 72.2278L155.211 72.6339ZM155.023 77.2348V77.7348H155.503L155.522 77.2551L155.023 77.2348ZM125.304 77.2348L124.805 77.2633L124.831 77.7348H125.304V77.2348ZM125.122 74.0463L124.872 73.6129L124.605 73.7667L124.622 74.0748L125.122 74.0463ZM132.381 70.8236L132.545 71.2957H132.545L132.381 70.8236ZM132.515 70.7768L132.68 71.2489L133.015 71.1319V70.7768H132.515ZM132.515 37.3691H133.015V36.9548L132.608 36.8778L132.515 37.3691ZM132.352 37.3382L132.259 37.8295V37.8295L132.352 37.3382ZM269.556 29.0805L269.658 29.57L269.556 29.0805ZM255.808 32.9752L255.63 32.508L255.326 32.6237L255.308 32.9482L255.808 32.9752ZM255.615 36.5402L255.116 36.5132L255.115 36.5267V36.5402L255.615 36.5402ZM257.456 47.7318L256.983 47.8957L257.103 48.2392L257.466 48.2317L257.456 47.7318ZM266.953 47.538L266.963 48.0379L267.357 48.0299L267.442 47.6446L266.953 47.538ZM269.319 36.6921L269.808 36.7987L269.808 36.7987L269.319 36.6921ZM269.342 36.5903L269.149 36.1287L268.909 36.229L268.853 36.4837L269.342 36.5903ZM269.438 36.5501L269.63 37.0117H269.63L269.438 36.5501ZM275.102 35.3352L275.134 35.8342L275.102 35.3352ZM275.158 35.3317L275.389 34.8884L275.266 34.824L275.127 34.8326L275.158 35.3317ZM275.207 35.3574L274.976 35.8007L274.976 35.8007L275.207 35.3574ZM279.915 54.0306L279.925 54.5305L280.415 54.5202V54.0306H279.915ZM279.719 54.0347L279.73 54.5346L279.719 54.0347ZM260.767 54.4337L260.756 53.9338L260.637 53.9363L260.531 53.9925L260.767 54.4337ZM257.096 75.0841L257.425 74.7076L257.096 75.0841ZM267.806 78.8348L267.806 79.3348L267.828 79.3348L267.85 79.3328L267.806 78.8348ZM271.148 78.5399L271.191 79.038L271.316 79.027L271.42 78.959L271.148 78.5399ZM281.706 71.6671L281.978 72.0862L281.979 72.0862L281.706 71.6671ZM281.885 71.5507L282.32 71.3056L282.059 70.8407L281.612 71.1317L281.885 71.5507ZM281.989 71.7367L282.425 71.4916V71.4916L281.989 71.7367ZM286.531 76.872L286.24 77.2789L286.531 76.872ZM291.966 78.9327L291.945 79.4323L292.087 79.4383L292.211 79.3689L291.966 78.9327ZM304.998 71.6269L305.243 72.063L305.54 71.8966L305.494 71.5593L304.998 71.6269ZM304.442 67.5498L304.938 67.4823L304.874 67.0122L304.401 67.0516L304.442 67.5498ZM302.231 67.7341L302.19 67.2358L302.19 67.2358L302.231 67.7341ZM302.222 67.7348L302.241 68.2345L302.252 68.2341L302.264 68.2331L302.222 67.7348ZM299.522 67.8346L299.504 67.335H299.504L299.522 67.8346ZM299.515 67.8349L299.515 68.3349H299.524L299.533 68.3346L299.515 67.8349ZM297.496 67.1234L297.856 66.7768V66.7768L297.496 67.1234ZM296.815 42.1365H297.315L297.315 42.1278L296.815 42.1365ZM296.467 37.416L296.961 37.338L296.961 37.338L296.467 37.416ZM295.646 34.643L296.08 34.3938L296.068 34.3726L296.053 34.3528L295.646 34.643ZM269.474 28.689L269.576 29.1784L269.474 28.689ZM295.978 34.4187L296.385 34.1288L296.385 34.1286L295.978 34.4187ZM295.983 34.4264L296.416 34.1755L296.404 34.1554L296.391 34.1365L295.983 34.4264ZM295.988 34.4346L296.421 34.184L296.42 34.1837L295.988 34.4346ZM296.862 37.3536L296.368 37.4315L296.368 37.4315L296.862 37.3536ZM297.215 42.1313L297.715 42.1226L297.715 42.1225L297.215 42.1313ZM297.215 42.1348H297.715L297.715 42.1261L297.215 42.1348ZM297.215 65.0348H296.715H297.215ZM297.784 66.8461L298.144 66.4996V66.4996L297.784 66.8461ZM299.511 67.4348L299.511 67.9348L299.52 67.9348L299.53 67.9344L299.511 67.4348ZM302.203 67.3351L302.221 67.8347L302.233 67.8343L302.244 67.8333L302.203 67.3351ZM304.598 67.1355L304.64 67.6337L304.598 67.1355ZM304.787 67.1197L305.283 67.0522L305.219 66.582L304.746 66.6214L304.787 67.1197ZM304.813 67.3077L304.318 67.3753V67.3753L304.813 67.3077ZM305.413 71.7077L304.918 71.7753V71.7753L305.413 71.7077ZM305.431 71.8426L305.676 72.2788L305.973 72.1124L305.927 71.7751L305.431 71.8426ZM305.313 71.9092L305.068 71.4731L305.068 71.4731L305.313 71.9092ZM292.113 79.3092L291.868 78.8731L291.868 78.8731L292.113 79.3092ZM292.064 79.3366L292.046 79.8363L292.186 79.8413L292.308 79.7727L292.064 79.3366ZM292.008 79.3346L292.026 78.835H292.026L292.008 79.3346ZM286.299 77.1975L286.589 76.7906L286.299 77.1975ZM281.746 72.1181L282.179 71.868L281.915 71.4114L281.473 71.6991L281.746 72.1181ZM271.324 78.9024L271.597 79.3215L271.597 79.3214L271.324 78.9024ZM271.282 78.9296L271.326 79.4277L271.45 79.4167L271.555 79.3487L271.282 78.9296ZM271.232 78.934L271.276 79.4321L271.232 78.934ZM267.832 79.234L267.788 78.7359L267.788 78.7359L267.832 79.234ZM267.824 79.2348V79.7348H267.846L267.868 79.7328L267.824 79.2348ZM256.833 75.3854L257.162 75.0088L256.833 75.3854ZM260.621 54.0581L260.387 53.6165L260.387 53.6165L260.621 54.0581ZM260.663 54.0358L260.652 53.5359L260.534 53.5384L260.429 53.5942L260.663 54.0358ZM260.711 54.0348L260.7 53.5349H260.7L260.711 54.0348ZM279.515 53.6389L279.525 54.1388L280.015 54.1285V53.6389H279.515ZM275.071 35.7379L275.306 35.2963L275.181 35.2298L275.039 35.239L275.071 35.7379ZM269.688 36.8798L269.499 36.4167L269.256 36.516L269.199 36.7732L269.688 36.8798ZM267.31 47.7774L266.822 47.6708L266.822 47.6709L267.31 47.7774ZM267.277 47.9315L267.287 48.4314L267.681 48.4234L267.765 48.038L267.277 47.9315ZM267.119 47.9347L267.129 48.4346L267.119 47.9347ZM257.319 48.1347L257.329 48.6346L257.319 48.1347ZM257.174 48.1377L256.703 48.3036L256.823 48.645L257.184 48.6376L257.174 48.1377ZM257.126 48.0011L257.598 47.8352V47.8352L257.126 48.0011ZM255.215 36.524L255.241 36.0246L254.715 35.9969V36.524H255.215ZM255.215 36.524L255.189 37.0233L255.687 37.0495L255.714 36.551L255.215 36.524ZM255.415 32.824L254.916 32.797V32.797L255.415 32.824ZM255.422 32.6944L255.243 32.2276L254.94 32.3437L254.923 32.6674L255.422 32.6944ZM255.543 32.648L255.364 32.1811L255.364 32.1811L255.543 32.648ZM272.125 60.9059L272.349 61.3531V61.3531L272.125 60.9059ZM279.719 59.7348L279.709 60.2347H279.709L279.719 59.7348ZM270.172 62.5633L269.753 62.291V62.291L270.172 62.5633ZM271.273 69.3762L271.627 69.0227L271.627 69.0226L271.273 69.3762ZM271.338 69.4404L270.984 69.7938L271.144 69.9543L271.371 69.9392L271.338 69.4404ZM271.428 69.4343L271.461 69.9332H271.461L271.428 69.4343ZM279.776 67.5252L279.929 68.0013H279.929L279.776 67.5252ZM279.915 67.4806L280.068 67.9567L280.415 67.8453V67.4806H279.915ZM279.915 59.7387H280.415V59.2486L279.925 59.2388L279.915 59.7387ZM270.508 62.7812L270.088 62.5089V62.5089L270.508 62.7812ZM272.304 61.2636L272.081 60.8164V60.8164L272.304 61.2636ZM279.515 60.1313H280.015V59.6387L279.522 59.6314L279.515 60.1313ZM279.515 67.1887L279.667 67.6651L280.015 67.5541V67.1887H279.515ZM271.493 69.0288L271.134 69.377L271.296 69.5446L271.529 69.5275L271.493 69.0288ZM16.4659 1.44317L16.5759 1.50067L17.0389 0.614317L16.9289 0.556825L16.4659 1.44317ZM16.8915 1.4772L16.9919 1.40407L16.4029 0.595929L16.3025 0.669062L16.8915 1.4772ZM7.08106 13.3731C9.73035 8.27317 13.0021 4.31187 16.8915 1.4772L16.3025 0.669061C12.2667 3.61045 8.9009 7.70062 6.19365 12.9121L7.08106 13.3731ZM7.01973 13.4911L7.08106 13.3731L6.19365 12.9121L6.13233 13.0301L7.01973 13.4911ZM7.0453 13.0427L6.96014 12.9405L6.19192 13.5807L6.27708 13.6829L7.0453 13.0427ZM18.8378 22.0611C14.2807 20.0137 10.3505 17.0089 7.0453 13.0427L6.27708 13.6829C9.67623 17.7619 13.7277 20.8616 18.428 22.9733L18.8378 22.0611ZM18.9427 22.1083L18.8378 22.0611L18.428 22.9733L18.5329 23.0204L18.9427 22.1083ZM18.5401 22.0909L18.4466 22.1579L19.0291 22.9708L19.1226 22.9037L18.5401 22.0909ZM27.7465 11.3006C25.5683 15.657 22.5005 19.2526 18.5401 22.0909L19.1226 22.9037C23.2151 19.9708 26.39 16.2497 28.6409 11.7478L27.7465 11.3006ZM27.7992 11.1951L27.7465 11.3006L28.6409 11.7478L28.6937 11.6424L27.7992 11.1951ZM27.7675 11.6046L27.8342 11.7018L28.6586 11.1357L28.5919 11.0386L27.7675 11.6046ZM16.5759 1.50067C20.9959 3.80963 24.7264 7.17517 27.7675 11.6046L28.5919 11.0386C25.4655 6.48485 21.6146 3.00456 17.0389 0.614317L16.5759 1.50067ZM16.436 1.06711C12.5344 3.93784 9.26097 7.91155 6.61086 12.9771L7.49693 13.4406C10.0895 8.4851 13.2703 4.63789 17.0287 1.87257L16.436 1.06711ZM28.1943 11.1664C25.14 6.74804 21.3972 3.36619 16.9657 1.02764L16.499 1.91204C20.7777 4.16999 24.4019 7.43897 27.3717 11.7351L28.1943 11.1664ZM18.9846 22.5103C22.946 19.6492 26.0284 16.0368 28.2294 11.676L27.3366 11.2255C25.2078 15.4433 22.2308 18.9322 18.3991 21.6996L18.9846 22.5103ZM6.67095 13.5303C9.98876 17.4823 13.9274 20.4935 18.4853 22.5603L18.8983 21.6496C14.4809 19.6465 10.6617 16.7286 7.43683 12.8874L6.67095 13.5303ZM361.931 42.3348C361.931 43.6678 362.416 44.8814 363.353 45.9623L364.108 45.3073C363.312 44.3882 362.931 43.4019 362.931 42.3348H361.931ZM366.287 37.6559C364.905 38.0705 363.816 38.6554 363.068 39.44C362.31 40.2365 361.931 41.2113 361.931 42.3348H362.931C362.931 41.4583 363.218 40.7332 363.793 40.1296C364.379 39.5143 365.29 38.9991 366.574 38.6137L366.287 37.6559ZM371.085 38.1377L366.485 37.6377L366.376 38.6319L370.977 39.1319L371.085 38.1377ZM374.604 47.5736L371.504 38.4736L370.557 38.796L373.657 47.896L374.604 47.5736ZM382.931 47.2348H374.131V48.2348H382.931V47.2348ZM384.131 37.2348C384.131 40.6461 383.573 44.0946 382.454 47.5821L383.407 47.8875C384.555 44.3083 385.131 40.7568 385.131 37.2348H384.131ZM383.931 33.7633L384.131 37.2633L385.13 37.2063L384.93 33.7063L383.931 33.7633ZM368.931 30.9348C374.938 30.9348 380.022 32.0241 384.201 34.1792L384.66 33.2904C380.306 31.0455 375.056 29.9348 368.931 29.9348V30.9348ZM353.22 35.2426C357.247 32.3845 362.471 30.9348 368.931 30.9348V29.9348C362.323 29.9348 356.881 31.4185 352.641 34.4271L353.22 35.2426ZM347.331 46.1348C347.331 41.643 349.274 38.0238 353.219 35.2435L352.642 34.4261C348.453 37.3792 346.331 41.2933 346.331 46.1348H347.331ZM349.926 53.7294C348.194 51.4831 347.331 48.9571 347.331 46.1348H346.331C346.331 49.1792 347.267 51.9198 349.135 54.3402L349.926 53.7294ZM360.261 60.9911C355.141 58.3312 351.716 55.9024 349.916 53.717L349.145 54.3527C351.078 56.7006 354.654 59.2051 359.8 61.8785L360.261 60.9911ZM369.596 66.4937C369.073 65.9336 368.013 65.2011 366.484 64.3036C364.937 63.3955 362.859 62.2899 360.254 60.9876L359.807 61.882C362.402 63.1797 364.458 64.2741 365.977 65.166C367.515 66.0685 368.454 66.736 368.865 67.176L369.596 66.4937ZM371.231 70.2348C371.231 68.8195 370.666 67.5631 369.584 66.4813L368.877 67.1884C369.795 68.1066 370.231 69.1168 370.231 70.2348H371.231ZM369.263 74.3085C370.552 73.1624 371.231 71.7993 371.231 70.2348H370.231C370.231 71.4703 369.709 72.5739 368.598 73.5611L369.263 74.3085ZM350.625 64.331C356.463 68.8262 362.508 72.1866 368.763 74.406L369.098 73.4636C362.953 71.2831 356.999 67.9768 351.236 63.5387L350.625 64.331ZM345.689 77.2343L351.389 64.1343L350.472 63.7353L344.772 76.8353L345.689 77.2343ZM366.131 81.9348C359.22 81.9348 352.331 80.1585 345.461 76.5911L345 77.4786C351.996 81.1112 359.041 82.9348 366.131 82.9348V81.9348ZM380.726 77.7382C377.104 80.5193 372.255 81.9348 366.131 81.9348V82.9348C372.406 82.9348 377.49 81.4837 381.335 78.5314L380.726 77.7382ZM386.131 66.9348C386.131 71.3065 384.341 74.8979 380.722 77.7417L381.339 78.528C385.187 75.5051 387.131 71.6298 387.131 66.9348H386.131ZM383.44 59.2472C385.236 61.4915 386.131 64.0479 386.131 66.9348H387.131C387.131 63.8218 386.159 61.0448 384.221 58.6225L383.44 59.2472ZM372.802 51.6798C378.122 54.406 381.639 56.932 383.436 59.2418L384.225 58.6278C382.288 56.1377 378.606 53.5303 373.259 50.7898L372.802 51.6798ZM363.364 45.975C363.853 46.5013 364.906 47.2347 366.448 48.1632C368.01 49.1037 370.128 50.2755 372.798 51.6775L373.263 50.7921C370.6 49.3941 368.501 48.2326 366.963 47.3065C365.405 46.3682 364.475 45.7016 364.097 45.2946L363.364 45.975ZM454.686 74.2979L441.386 81.6979L441.872 82.5717L455.172 75.1717L454.686 74.2979ZM453.834 70.4024L454.434 74.8024L455.424 74.6673L454.824 70.2673L453.834 70.4024ZM451.869 71.0332L454.369 70.8332L454.289 69.8364L451.789 70.0364L451.869 71.0332ZM449.248 71.1344L451.848 71.0344L451.81 70.0352L449.21 70.1352L449.248 71.1344ZM446.229 68.0348C446.229 68.9738 446.454 69.7706 446.994 70.3314C447.536 70.8957 448.313 71.1348 449.229 71.1348V70.1348C448.478 70.1348 448.005 69.9406 447.714 69.6383C447.42 69.3323 447.229 68.8292 447.229 68.0348H446.229ZM446.229 35.4348V68.0348H447.229V35.4348H446.229ZM440.997 31.0085L446.397 35.8085L447.061 35.0611L441.661 30.2611L440.997 31.0085ZM423.515 34.4991C428.784 32.3914 434.723 31.267 441.339 31.1347L441.319 30.1349C434.602 30.2693 428.541 31.4116 423.143 33.5706L423.515 34.4991ZM424.326 38.783L423.826 33.983L422.832 34.0866L423.332 38.8866L424.326 38.783ZM429.55 39.7497L423.95 38.3497L423.708 39.3199L429.308 40.7199L429.55 39.7497ZM429.929 68.8348V40.2348H428.929V68.8348H429.929ZM423.429 70.6348C425.568 70.6348 427.638 70.1858 429.633 69.2911L429.224 68.3786C427.354 69.2171 425.423 69.6348 423.429 69.6348V70.6348ZM416.629 61.8348C416.629 64.6505 417.161 66.8537 418.306 68.3621C419.47 69.8965 421.209 70.6348 423.429 70.6348V69.6348C421.449 69.6348 420.038 68.9898 419.102 67.7575C418.147 66.4992 417.629 64.5525 417.629 61.8348H416.629ZM416.629 35.4348V61.8348H417.629V35.4348H416.629ZM411.397 31.0085L416.797 35.8085L417.461 35.0611L412.061 30.2611L411.397 31.0085ZM392.107 34.8019C397.981 32.558 404.524 31.3333 411.743 31.1346L411.715 30.135C404.4 30.3363 397.743 31.5783 391.751 33.8677L392.107 34.8019ZM392.926 39.083L392.426 34.283L391.432 34.3866L391.932 39.1866L392.926 39.083ZM399.922 40.0435L392.522 38.6435L392.336 39.6261L399.736 41.0261L399.922 40.0435ZM400.329 65.2348V40.5348H399.329V65.2348H400.329ZM400.628 70.9085L400.328 65.2085L399.33 65.2611L399.63 70.9611L400.628 70.9085ZM405.519 78.5273C402.615 76.4625 401.005 73.9135 400.625 70.8728L399.633 70.9968C400.053 74.3561 401.843 77.1404 404.939 79.3423L405.519 78.5273ZM414.929 81.6348C411.641 81.6348 408.506 80.6054 405.514 78.5244L404.943 79.3453C408.085 81.5309 411.417 82.6348 414.929 82.6348V81.6348ZM430.726 73.2372C425.432 77.2739 420.119 80.0756 414.787 81.6554L415.071 82.6142C420.539 80.994 425.96 78.1291 431.332 74.0324L430.726 73.2372ZM436.04 79.2431C434.171 77.7612 432.649 75.823 431.479 73.4161L430.579 73.8535C431.808 76.38 433.42 78.4417 435.418 80.0266L436.04 79.2431ZM441.663 81.636C439.854 81.5112 437.978 80.7293 436.033 79.238L435.425 80.0316C437.48 81.607 439.538 82.4918 441.595 82.6336L441.663 81.636ZM490.608 80.5348C488.241 80.5348 485.907 80.3047 483.606 79.8445L483.41 80.8251C485.776 81.2983 488.175 81.5348 490.608 81.5348V80.5348ZM508.645 73.1911C504.015 78.0814 498.018 80.5348 490.608 80.5348V81.5348C498.264 81.5348 504.534 78.9883 509.371 73.8785L508.645 73.1911ZM515.608 54.3348C515.608 62.0253 513.278 68.2965 508.645 73.1911L509.371 73.8785C514.204 68.7732 516.608 62.2443 516.608 54.3348H515.608ZM510.418 38.0479C513.868 42.3437 515.608 47.7605 515.608 54.3348H516.608C516.608 47.5758 514.815 41.926 511.198 37.4217L510.418 38.0479ZM497.408 31.5348C502.714 31.5348 507.037 33.6919 510.413 38.0414L511.203 37.4282C507.645 32.8444 503.035 30.5348 497.408 30.5348V31.5348ZM494.052 31.8329L497.452 31.5329L497.364 30.5367L493.964 30.8367L494.052 31.8329ZM483.806 39.5362L494.306 31.7362L493.71 30.9334L483.21 38.7334L483.806 39.5362ZM483.008 35.4348V39.1348H484.008V35.4348H483.008ZM477.876 31.1089L483.176 35.8089L483.84 35.0607L478.54 30.3607L477.876 31.1089ZM477.708 30.6348V30.7348H478.708V30.6348H477.708ZM458.586 34.8019C464.46 32.558 471.003 31.3333 478.222 31.1346L478.194 30.135C470.879 30.3363 464.222 31.5783 458.229 33.8677L458.586 34.8019ZM459.405 39.083L458.905 34.283L457.911 34.3866L458.411 39.1866L459.405 39.083ZM466.302 40.0438L459.002 38.6438L458.814 39.6259L466.114 41.0259L466.302 40.0438ZM466.708 94.5348V40.5348H465.708V94.5348H466.708ZM459.791 97.6L466.391 95L466.025 94.0696L459.425 96.6696L459.791 97.6ZM460.307 100.606L460.107 97.1063L459.109 97.1633L459.309 100.663L460.307 100.606ZM492.808 100.135H459.808V101.135H492.808V100.135ZM492.508 95.7144L492.308 100.614L493.307 100.655L493.507 95.7552L492.508 95.7144ZM483.322 91.8991C487.314 93.4957 490.46 94.9208 492.769 96.1742L493.246 95.2954C490.889 94.0155 487.702 92.574 483.694 90.9706L483.322 91.8991ZM483.008 80.3348V91.4348H484.008V80.3348H483.008ZM488.308 42.6348C486.75 42.6348 485.078 43.0593 483.298 43.8808L483.717 44.7888C485.404 44.0103 486.932 43.6348 488.308 43.6348V42.6348ZM495.638 47.0791C493.893 44.1478 491.44 42.6348 488.308 42.6348V43.6348C491.043 43.6348 493.19 44.9218 494.778 47.5906L495.638 47.0791ZM498.208 57.2348C498.208 53.2955 497.358 49.9011 495.635 47.0745L494.781 47.5951C496.391 50.2352 497.208 53.4408 497.208 57.2348H498.208ZM496.576 66.2092C497.663 63.2878 498.208 60.2955 498.208 57.2348H497.208C497.208 60.1741 496.686 63.0485 495.639 65.8604L496.576 66.2092ZM492.454 72.9955C494.19 71.3287 495.56 69.0557 496.579 66.203L495.637 65.8666C494.656 68.6139 493.359 70.7409 491.762 72.2741L492.454 72.9955ZM483.379 72.2179C486.426 73.0304 489.349 73.3381 492.144 73.1335L492.071 72.1361C489.4 72.3316 486.59 72.0392 483.637 71.2517L483.379 72.2179ZM483.008 44.3348V71.7348H484.008V44.3348H483.008ZM563.068 57.0348L537.868 56.8348L537.86 57.8348L563.06 58.0348L563.068 57.0348ZM568.511 51.3813L562.711 57.1813L563.418 57.8884L569.218 52.0884L568.511 51.3813ZM562.52 36.6972C566.471 40.4544 568.43 45.4469 568.364 51.7296L569.364 51.74C569.432 45.2227 567.39 39.9486 563.209 35.9725L562.52 36.6972ZM547.064 30.9348C553.421 30.9348 558.557 32.8641 562.517 36.6942L563.212 35.9754C559.038 31.9389 553.64 29.9348 547.064 29.9348V30.9348ZM529.325 38.5814C534.232 33.4771 540.137 30.9348 547.064 30.9348V29.9348C539.858 29.9348 533.696 32.5925 528.604 37.8883L529.325 38.5814ZM522.064 57.0348C522.064 49.7583 524.485 43.6175 529.325 38.5813L528.604 37.8884C523.577 43.1188 521.064 49.5113 521.064 57.0348H522.064ZM529.21 74.5739C524.45 70.0094 522.064 64.177 522.064 57.0348H521.064C521.064 64.4259 523.545 70.5269 528.518 75.2957L529.21 74.5739ZM547.364 81.4348C540.079 81.4348 534.039 79.1422 529.208 74.5716L528.521 75.298C533.555 80.0608 539.849 82.4348 547.364 82.4348V81.4348ZM551.932 81.1359L547.332 81.4359L547.397 82.4338L551.997 82.1338L551.932 81.1359ZM567.418 72.2998L551.718 81.1998L552.211 82.0698L567.911 73.1698L567.418 72.2998ZM564.706 67.2356L567.206 72.9356L568.122 72.534L565.622 66.834L564.706 67.2356ZM552.464 71.3348C556.109 71.3348 560.425 70.0306 565.393 67.4796L564.936 66.59C560.037 69.1057 555.885 70.3348 552.464 70.3348V71.3348ZM542.135 67.7111C544.904 70.1345 548.36 71.3348 552.464 71.3348V70.3348C548.569 70.3348 545.357 69.2018 542.793 66.9585L542.135 67.7111ZM537.367 57.3883C537.843 61.8128 539.417 65.2722 542.13 67.7069L542.798 66.9627C540.311 64.7308 538.818 61.5235 538.361 57.2813L537.367 57.3883ZM544.099 38.3108C540.732 40.4155 538.65 44.2422 537.771 49.6546L538.758 49.815C539.611 44.5607 541.597 41.0541 544.629 39.1588L544.099 38.3108ZM550.555 41.5225C548.876 39.4245 546.812 38.3066 544.379 38.235L544.349 39.2346C546.449 39.2964 548.252 40.2451 549.774 42.1472L550.555 41.5225ZM553.759 48.7624C553.346 45.9431 552.277 43.5195 550.543 41.5083L549.785 42.1613C551.385 44.0167 552.382 46.2598 552.769 48.9072L553.759 48.7624ZM538.294 50.2339L553.294 49.3339L553.234 48.3357L538.234 49.2357L538.294 50.2339ZM597.69 47.6348V71.3348H598.69V47.6348H597.69ZM599.394 46.1316L597.894 47.2316L598.486 48.038L599.986 46.938L599.394 46.1316ZM610.711 52.2512C606.238 48.5131 602.574 46.3915 599.752 46.0387L599.628 47.031C602.139 47.3448 605.608 49.2899 610.069 53.0185L610.711 52.2512ZM621.498 37.8241L609.998 52.3241L610.782 52.9455L622.282 38.4455L621.498 37.8241ZM616.936 32.9658C619.106 34.242 620.594 36.0179 621.42 38.3046L622.36 37.965C621.453 35.4517 619.807 33.4943 617.443 32.1038L616.936 32.9658ZM609.89 31.0348C612.469 31.0348 614.812 31.6782 616.931 32.9624L617.449 32.1072C615.168 30.7247 612.644 30.0348 609.89 30.0348V31.0348ZM606.248 31.5092C607.18 31.1986 608.388 31.0348 609.89 31.0348V30.0348C608.325 30.0348 607 30.2043 605.932 30.5605L606.248 31.5092ZM598.564 40.2667L606.464 31.3667L605.716 30.7029L597.816 39.6029L598.564 40.2667ZM597.69 38.1348V39.9348H598.69V38.1348H597.69ZM592.384 30.927L597.784 38.427L598.596 37.8427L593.196 30.3427L592.384 30.927ZM573.168 34.8019C579.042 32.558 585.585 31.3333 592.804 31.1346L592.776 30.135C585.461 30.3363 578.804 31.5783 572.811 33.8677L573.168 34.8019ZM573.987 39.083L573.487 34.283L572.493 34.3866L572.993 39.1866L573.987 39.083ZM580.983 40.0435L573.583 38.6435L573.397 39.6261L580.797 41.0261L580.983 40.0435ZM581.39 73.6348V40.5348H580.39V73.6348H581.39ZM573.741 77.3672C575.774 76.1868 578.21 75.0991 581.055 74.1069L580.725 73.1627C577.836 74.1705 575.339 75.2829 573.239 76.5024L573.741 77.3672ZM574.189 80.4063L573.989 76.9063L572.991 76.9633L573.191 80.4633L574.189 80.4063ZM608.89 79.9348H573.69V80.9348H608.89V79.9348ZM608.59 75.5144L608.39 80.4144L609.389 80.4552L609.589 75.5552L608.59 75.5144ZM598.074 71.8211C602.507 72.8799 606.086 74.2634 608.827 75.9599L609.353 75.1097C606.494 73.3396 602.806 71.9231 598.306 70.8485L598.074 71.8211ZM21.4799 27.1116L21.4207 27.0589L20.7563 27.8064L20.8155 27.859L21.4799 27.1116ZM26.8799 31.9116L21.4799 27.1116L20.8155 27.859L26.2155 32.659L26.8799 31.9116ZM26.947 31.9712L26.8799 31.9116L26.2155 32.659L26.2827 32.7187L26.947 31.9712ZM27.1148 32.4348V32.3449H26.1148V32.4348H27.1148ZM27.1148 68.8919V32.4348H26.1148V68.8919H27.1148ZM34.0217 71.9651C32.1137 70.6023 29.6932 69.4238 26.7777 68.4192L26.4519 69.3646C29.3056 70.3479 31.6325 71.4875 33.4405 72.7789L34.0217 71.9651ZM34.1097 72.028L34.0217 71.9652L33.4404 72.7789L33.5284 72.8417L34.1097 72.028ZM34.3143 72.5633L34.3187 72.4553L33.3195 72.4145L33.3151 72.5225L34.3143 72.5633ZM34.1143 77.4633L34.3143 72.5633L33.3151 72.5225L33.1151 77.4225L34.1143 77.4633ZM34.1064 77.6552L34.1143 77.4633L33.1151 77.4225L33.1073 77.6144L34.1064 77.6552ZM33.4148 78.1348H33.6068V77.1348H33.4148V78.1348ZM1.71483 78.1348H33.4148V77.1348H1.71483V78.1348ZM1.52594 78.1348H1.71483V77.1348H1.52594V78.1348ZM1.01597 77.4747L1.02675 77.6633L2.02512 77.6062L2.01435 77.4176L1.01597 77.4747ZM0.815975 73.9747L1.01597 77.4747L2.01435 77.4176L1.81435 73.9176L0.815975 73.9747ZM0.808911 73.8511L0.815975 73.9747L1.81435 73.9176L1.80728 73.794L0.808911 73.8511ZM1.16752 73.327L1.06001 73.3884L1.55618 74.2567L1.66369 74.1952L1.16752 73.327ZM8.75189 69.9192C6.03168 70.8569 3.50308 71.9924 1.16754 73.327L1.66368 74.1952C3.94121 72.8938 6.41233 71.7834 9.07778 70.8646L8.75189 69.9192ZM8.41483 37.7005V70.3919H9.41483V37.7005H8.41483ZM1.58471 36.8226L8.82189 38.1918L9.00778 37.2092L1.7706 35.84L1.58471 36.8226ZM1.4384 36.7949L1.58472 36.8226L1.7706 35.84L1.62428 35.8123L1.4384 36.7949ZM1.0186 36.2073L1.03403 36.3554L2.02865 36.2518L2.01322 36.1037L1.0186 36.2073ZM0.518602 31.4073L1.0186 36.2073L2.01322 36.1037L1.51322 31.3037L0.518602 31.4073ZM0.502691 31.2545L0.518602 31.4073L1.51322 31.3037L1.49731 31.1509L0.502691 31.2545ZM0.965026 30.6809L0.821565 30.7357L1.17844 31.6698L1.3219 31.615L0.965026 30.6809ZM20.9956 26.935C13.6612 27.1369 6.98192 28.3823 0.965027 30.6809L1.3219 31.615C7.21946 29.362 13.7854 28.1339 21.0231 27.9346L20.9956 26.935ZM21.0748 26.9328L20.9956 26.935L21.0231 27.9346L21.1023 27.9325L21.0748 26.9328ZM2.39564 35.9141L1.927 31.4152L0.932386 31.5188L1.40102 36.0177L2.39564 35.9141ZM9.24496 36.847L1.99128 35.4746L1.80538 36.4572L9.05907 37.8295L9.24496 36.847ZM9.40778 36.8778L9.24496 36.847L9.05907 37.8295L9.22189 37.8603L9.40778 36.8778ZM9.81484 37.5348V37.3691H8.81484V37.5348H9.81484ZM9.81484 70.5348V37.5348H8.81484V70.5348H9.81484ZM9.81484 70.6778V70.5348H8.81484V70.6778H9.81484ZM9.34102 71.1972L9.47639 71.151L9.15328 70.2046L9.01791 70.2508L9.34102 71.1972ZM1.9683 74.4821C4.23109 73.1984 6.68813 72.1031 9.34104 71.1972L9.01789 70.2509C6.31027 71.1754 3.79574 72.2957 1.47488 73.6123L1.9683 74.4821ZM2.40292 77.2062L2.22077 74.0187L1.2224 74.0757L1.40455 77.2633L2.40292 77.2062ZM33.2228 76.7348H1.90373V77.7348H33.2228V76.7348ZM32.911 72.6147L32.7233 77.2144L33.7224 77.2551L33.9102 72.6554L32.911 72.6147ZM26.189 69.6973C29.033 70.6669 31.3384 71.7858 33.1225 73.0437L33.6987 72.2264C31.8151 70.8983 29.417 69.7413 26.5116 68.7508L26.189 69.6973ZM26.0535 69.6512L26.189 69.6973L26.5116 68.7508L26.3761 68.7046L26.0535 69.6512ZM25.7148 69.0348V69.1779H26.7148V69.0348H25.7148ZM25.7148 32.5246V69.0348H26.7148V32.5246H25.7148ZM20.609 28.2106L25.8827 32.8983L26.547 32.1509L21.2734 27.4632L20.609 28.2106ZM1.6067 31.9347C7.39864 29.7423 13.8457 28.5399 20.9555 28.3367L20.9269 27.3371C13.7215 27.543 7.16249 28.7624 1.25269 30.9994L1.6067 31.9347ZM98.6148 26.9348C95.7168 26.9348 91.6261 27.4899 86.3535 28.5911L86.558 29.57C91.8109 28.4728 95.8213 27.9348 98.6148 27.9348V26.9348ZM112.954 34.3528C109.432 29.413 104.643 26.9348 98.6148 26.9348V27.9348C104.317 27.9348 108.803 30.2546 112.139 34.9333L112.954 34.3528ZM113.861 37.338C113.66 36.0636 113.371 35.0741 112.98 34.3937L112.113 34.8923C112.414 35.4158 112.679 36.2638 112.873 37.4939L113.861 37.338ZM114.215 42.1277C114.181 40.2206 114.064 38.6228 113.861 37.338L112.873 37.4939C113.067 38.7169 113.182 40.2647 113.215 42.1453L114.215 42.1277ZM114.215 65.0348V42.1365H113.215V65.0348H114.215ZM114.756 66.7768C114.413 66.42 114.215 65.8582 114.215 65.0348H113.215C113.215 66.0025 113.447 66.8582 114.035 67.4699L114.756 66.7768ZM116.415 67.3348C115.631 67.3348 115.097 67.1314 114.756 66.7768L114.035 67.4699C114.628 68.0868 115.467 68.3348 116.415 68.3348V67.3348ZM116.915 67.8349V67.8348H115.915V67.8349H116.915ZM116.404 67.335L116.396 67.3352L116.433 68.3346L116.441 68.3343L116.404 67.335ZM119.104 67.235L116.404 67.335L116.441 68.3343L119.141 68.2343L119.104 67.235ZM119.622 67.7348V67.7346H118.622V67.7348H119.622ZM119.09 67.2358L119.081 67.2366L119.164 68.2331L119.173 68.2323L119.09 67.2358ZM121.301 67.0516L119.09 67.2358L119.173 68.2323L121.384 68.0481L121.301 67.0516ZM122.394 71.5593L121.838 67.4823L120.847 67.6174L121.403 71.6944L122.394 71.5593ZM109.111 79.3689L122.143 72.063L121.654 71.1907L108.622 78.4966L109.111 79.3689ZM103.14 77.2789C105.025 78.6247 106.927 79.3505 108.845 79.4323L108.888 78.4332C107.203 78.3614 105.484 77.724 103.722 76.4651L103.14 77.2789ZM98.4534 71.9818C99.6735 74.1509 101.236 75.9183 103.14 77.2789L103.722 76.4651C101.944 75.1954 100.478 73.5416 99.325 71.4916L98.4534 71.9818ZM98.3488 71.7959L98.4534 71.9818L99.325 71.4916L99.2204 71.3056L98.3488 71.7959ZM98.8785 72.0862L99.0573 71.9698L98.5118 71.1317L98.333 71.2481L98.8785 72.0862ZM88.3203 78.959L98.8785 72.0862L98.333 71.2481L87.7748 78.1209L88.3203 78.959ZM84.75 79.3328L88.0915 79.038L88.0036 78.0419L84.6621 78.3367L84.75 79.3328ZM73.6675 75.4607C76.627 78.0461 80.3136 79.333 84.7059 79.3348L84.7063 78.3348C80.5235 78.3331 77.0798 77.1138 74.3254 74.7076L73.6675 75.4607ZM69.2148 66.0348C69.2148 69.728 70.7074 72.8749 73.6675 75.4607L74.3254 74.7076C71.5655 72.2967 70.2148 69.4173 70.2148 66.0348H69.2148ZM77.4314 53.9925C71.9874 56.8958 69.2148 60.9108 69.2148 66.0348H70.2148C70.2148 61.3679 72.6982 57.65 77.902 54.8749L77.4314 53.9925ZM96.6085 53.5348L77.6562 53.9338L77.6772 54.9336L96.6296 54.5346L96.6085 53.5348ZM96.8043 53.5307L96.6085 53.5348L96.6296 54.5346L96.8254 54.5305L96.8043 53.5307ZM96.3148 53.8348V54.0306H97.3148V53.8348H96.3148ZM96.3148 45.6348V53.8348H97.3148V45.6348H96.3148ZM91.8761 35.8007C94.7996 37.3261 96.3148 40.5528 96.3148 45.6348H97.3148C97.3148 40.3813 95.7392 36.6883 92.3386 34.9142L91.8761 35.8007ZM91.8267 35.775L91.8761 35.8007L92.3386 34.9141L92.2892 34.8884L91.8267 35.775ZM92.0336 35.8342L92.0892 35.8307L92.0268 34.8326L91.9712 34.8361L92.0336 35.8342ZM86.5302 37.0117C88.0933 36.3604 89.926 35.9659 92.0336 35.8342L91.9712 34.8361C89.7777 34.9732 87.8319 35.386 86.1456 36.0886L86.5302 37.0117ZM86.434 37.0518L86.5302 37.0117L86.1456 36.0886L86.0494 36.1287L86.434 37.0518ZM86.708 36.7987L86.7302 36.6968L85.7532 36.4837L85.7309 36.5856L86.708 36.7987ZM84.3416 47.6446L86.708 36.7987L85.7309 36.5855L83.3646 47.4314L84.3416 47.6446ZM74.366 48.2317L83.8633 48.0379L83.8429 47.0381L74.3456 47.2319L74.366 48.2317ZM72.0148 36.5402C72.0154 40.5192 72.6378 44.3049 73.8834 47.8957L74.8282 47.568C73.6209 44.0876 73.0154 40.413 73.0148 36.5401L72.0148 36.5402ZM72.2083 32.9482L72.0156 36.5132L73.0141 36.5671L73.2068 33.0022L72.2083 32.9482ZM86.3535 28.5911C81.1282 29.6825 76.5197 30.9877 72.5295 32.508L72.8856 33.4425C76.816 31.9449 81.372 30.6531 86.558 29.57L86.3535 28.5911ZM86.4762 29.1784C91.737 28.0797 95.7795 27.5348 98.6148 27.5348V26.5348C95.6751 26.5348 91.5522 27.0967 86.2717 28.1995L86.4762 29.1784ZM72.6222 33.1149C76.6041 31.5885 81.2214 30.2759 86.4762 29.1784L86.2717 28.1995C80.9773 29.3054 76.3067 30.6315 72.2643 32.1811L72.6222 33.1149ZM72.5011 33.1613L72.6222 33.1149L72.2643 32.1811L72.1432 32.2276L72.5011 33.1613ZM72.8144 32.851L72.8214 32.7214L71.8229 32.6674L71.8159 32.797L72.8144 32.851ZM72.6144 36.551L72.8144 32.851L71.8159 32.797L71.6159 36.497L72.6144 36.551ZM72.0886 37.0233L72.0889 37.0233L72.1414 36.0247L72.1411 36.0246L72.0886 37.0233ZM72.6148 36.5348V36.524H71.6148V36.5348H72.6148ZM74.4978 47.8352C73.243 44.2687 72.6148 40.5025 72.6148 36.5348H71.6148C71.6148 40.6101 72.2603 44.4889 73.5545 48.1671L74.4978 47.8352ZM74.5459 47.9717L74.4978 47.8352L73.5545 48.1671L73.6026 48.3036L74.5459 47.9717ZM74.2087 47.6348L74.064 47.6378L74.0844 48.6376L74.2291 48.6346L74.2087 47.6348ZM84.0087 47.4348L74.2087 47.6348L74.2291 48.6346L84.0291 48.4346L84.0087 47.4348ZM84.1664 47.4316L84.0087 47.4348L84.0291 48.4346L84.1868 48.4314L84.1664 47.4316ZM83.7217 47.6708L83.6881 47.8249L84.6651 48.0381L84.6988 47.884L83.7217 47.6708ZM86.0994 36.7732L83.7217 47.6708L84.6988 47.884L87.0764 36.9864L86.0994 36.7732ZM91.9391 35.239C89.8472 35.3746 87.9991 35.7654 86.3994 36.4167L86.7765 37.3429C88.257 36.7401 89.9958 36.3671 92.0038 36.2369L91.9391 35.239ZM96.9148 45.6348C96.9148 40.4785 95.3806 36.9821 92.2059 35.2963L91.7369 36.1795C94.4402 37.615 95.9148 40.6494 95.9148 45.6348H96.9148ZM96.9148 53.6389V45.6348H95.9148V53.6389H96.9148ZM77.6212 54.5347L96.4254 54.1388L96.4043 53.139L77.6001 53.5349L77.6212 54.5347ZM77.5736 54.5357L77.6212 54.5347L77.6001 53.5349L77.5525 53.5359L77.5736 54.5357ZM77.7556 54.4997L77.7976 54.4774L77.3286 53.5942L77.2866 53.6165L77.7556 54.4997ZM69.8148 66.0348C69.8148 61.1725 72.4274 57.3282 77.7555 54.4997L77.2866 53.6165C71.7187 56.5723 68.8148 60.7134 68.8148 66.0348H69.8148ZM74.0622 75.0088C71.2223 72.528 69.8148 69.5416 69.8148 66.0348H68.8148C68.8148 69.8522 70.3641 73.1062 73.4043 75.7619L74.0622 75.0088ZM84.7148 78.7348C80.4443 78.7348 76.9007 77.4884 74.0622 75.0088L73.4043 75.7619C76.448 78.4208 80.2348 79.7348 84.7148 79.7348V78.7348ZM84.7237 78.7348H84.7148V79.7348H84.7237V78.7348ZM84.6882 78.7359L84.6794 78.7367L84.7679 79.7328L84.7766 79.732L84.6882 78.7359ZM88.0885 78.4359L84.6885 78.7359L84.7764 79.732L88.1764 79.4321L88.0885 78.4359ZM88.1382 78.4315L88.0885 78.4359L88.1764 79.4321L88.2261 79.4277L88.1382 78.4315ZM87.9512 78.4833L87.9094 78.5106L88.4549 79.3486L88.4967 79.3214L87.9512 78.4833ZM98.3734 71.6991L87.9512 78.4833L88.4967 79.3214L98.9189 72.5372L98.3734 71.6991ZM103.489 76.7906C101.713 75.5221 100.243 73.8827 99.0791 71.868L98.2132 72.3682C99.4441 74.4987 101.009 76.2477 102.908 77.6044L103.489 76.7906ZM108.926 78.835C107.13 78.7708 105.319 78.0976 103.489 76.7906L102.908 77.6044C104.861 78.9992 106.857 79.7617 108.89 79.8343L108.926 78.835ZM108.982 78.837L108.926 78.835L108.89 79.8343L108.946 79.8363L108.982 78.837ZM108.768 78.8731L108.719 78.9005L109.208 79.7728L109.257 79.7453L108.768 78.8731ZM121.968 71.4731L108.768 78.8731L109.257 79.7454L122.457 72.3454L121.968 71.4731ZM122.087 71.4065L121.968 71.4731L122.457 72.3454L122.576 72.2788L122.087 71.4065ZM121.818 71.7753L121.836 71.9102L122.827 71.7751L122.808 71.6402L121.818 71.7753ZM121.218 67.3753L121.818 71.7753L122.808 71.6402L122.208 67.2402L121.218 67.3753ZM121.192 67.1872L121.218 67.3753L122.208 67.2402L122.183 67.0521L121.192 67.1872ZM121.54 67.6337L121.729 67.618L121.646 66.6214L121.457 66.6372L121.54 67.6337ZM119.144 67.8333L121.54 67.6337L121.457 66.6372L119.061 66.8368L119.144 67.8333ZM116.43 67.9344L119.121 67.8347L119.084 66.8354L116.393 66.9351L116.43 67.9344ZM114.324 67.1927C114.815 67.7037 115.53 67.9341 116.411 67.9348L116.412 66.9348C115.696 66.9342 115.284 66.7492 115.044 66.4996L114.324 67.1927ZM113.615 65.0348C113.615 65.945 113.834 66.683 114.324 67.1927L115.044 66.4996C114.799 66.2445 114.615 65.8001 114.615 65.0348H113.615ZM113.615 42.1348L113.615 65.0348H114.615L114.615 42.1348H113.615ZM113.615 42.1399L113.615 42.1435L114.615 42.1261L114.615 42.1226L113.615 42.1399ZM113.269 37.4315C113.466 38.6796 113.582 40.248 113.615 42.14L114.615 42.1225C114.581 40.2039 114.463 38.5856 114.256 37.2756L113.269 37.4315ZM112.455 34.6851C112.794 35.271 113.071 36.1782 113.269 37.4315L114.256 37.2756C114.051 35.978 113.751 34.928 113.321 34.184L112.455 34.6851ZM112.451 34.6769L112.455 34.6851L113.321 34.184L113.316 34.1758L112.451 34.6769ZM112.47 34.7087L112.476 34.7163L113.291 34.1365L113.285 34.1288L112.47 34.7087ZM98.6148 27.5348C104.45 27.5348 109.06 29.9205 112.471 34.7088L113.285 34.1286C109.688 29.0791 104.776 26.5348 98.6148 26.5348V27.5348ZM96.6288 59.2349C93.2585 59.1675 90.6213 59.5489 88.8018 60.4587L89.249 61.3531C90.8502 60.5525 93.2914 60.1684 96.6088 60.2347L96.6288 59.2349ZM96.8248 59.2388L96.6288 59.2349L96.6088 60.2347L96.8048 60.2386L96.8248 59.2388ZM97.3148 59.9348V59.7387H96.3148V59.9348H97.3148ZM97.3148 67.3348V59.9348H96.3148V67.3348H97.3148ZM97.3148 67.4806V67.3348H96.3148V67.4806H97.3148ZM96.8287 68.0013L96.9676 67.9567L96.6621 67.0045L96.5232 67.0491L96.8287 68.0013ZM88.3614 69.9332C90.4474 69.7941 93.2787 69.14 96.8286 68.0013L96.5232 67.0491C92.997 68.1801 90.258 68.8046 88.2949 68.9354L88.3614 69.9332ZM88.2708 69.9392L88.3614 69.9332L88.2949 68.9354L88.2043 68.9415L88.2708 69.9392ZM87.8199 69.7297L87.884 69.7939L88.5911 69.0868L88.527 69.0226L87.8199 69.7297ZM85.9148 64.9348C85.9148 66.837 86.5439 68.4538 87.8199 69.7297L88.527 69.0226C87.4548 67.9504 86.9148 66.5957 86.9148 64.9348H85.9148ZM86.6528 62.291C86.1529 63.0608 85.9148 63.9513 85.9148 64.9348H86.9148C86.9148 64.1181 87.1104 63.4224 87.4915 62.8356L86.6528 62.291ZM88.8018 60.4587C87.8812 60.919 87.1507 61.5242 86.6528 62.291L87.4915 62.8356C87.8733 62.2476 88.4531 61.751 89.249 61.3531L88.8018 60.4587ZM87.3148 64.9348C87.3148 64.1849 87.4934 63.5671 87.8269 63.0535L86.9882 62.5089C86.5359 63.2054 86.3148 64.018 86.3148 64.9348H87.3148ZM88.7515 68.6806C87.8 67.7001 87.3148 66.4691 87.3148 64.9348H86.3148C86.3148 66.7045 86.8848 68.193 88.0339 69.377L88.7515 68.6806ZM96.263 66.7124C92.867 67.7952 90.2395 68.3918 88.3561 68.5302L88.4293 69.5275C90.4303 69.3805 93.1462 68.7558 96.5667 67.6651L96.263 66.7124ZM95.9148 60.1313V67.1887H96.9148V60.1313H95.9148ZM89.4279 61.7108C90.9113 60.9691 93.2109 60.584 96.4074 60.6313L96.4222 59.6314C93.1714 59.5833 90.6791 59.9672 88.9807 60.8164L89.4279 61.7108ZM87.8269 63.0535C88.1623 62.537 88.6819 62.0839 89.4279 61.7108L88.9807 60.8164C88.1099 61.2518 87.4397 61.8136 86.9882 62.5089L87.8269 63.0535ZM143.942 27.786L144.003 27.8469L144.71 27.1398L144.649 27.0789L143.942 27.786ZM144.223 27.9346L144.309 27.9323L144.282 26.9327L144.196 26.935L144.223 27.9346ZM124.522 31.615C130.419 29.362 136.985 28.1339 144.223 27.9346L144.196 26.935C136.861 27.1369 130.182 28.3823 124.165 30.6809L124.522 31.615ZM124.378 31.6698L124.522 31.615L124.165 30.6809L124.022 30.7357L124.378 31.6698ZM124.713 31.3037L124.697 31.1509L123.703 31.2546L123.719 31.4073L124.713 31.3037ZM125.213 36.1037L124.713 31.3037L123.719 31.4073L124.219 36.2073L125.213 36.1037ZM125.229 36.2518L125.213 36.1037L124.219 36.2073L124.234 36.3554L125.229 36.2518ZM124.971 35.84L124.824 35.8123L124.638 36.7949L124.785 36.8226L124.971 35.84ZM132.208 37.2092L124.971 35.84L124.785 36.8226L132.022 38.1918L132.208 37.2092ZM132.615 70.4929V37.7005H131.615V70.4929H132.615ZM125.065 74.1942C127.08 73.0245 129.484 71.9474 132.281 70.9646L131.949 70.0212C129.108 71.0196 126.644 72.1211 124.563 73.3294L125.065 74.1942ZM124.959 74.2559L125.065 74.1942L124.563 73.3294L124.457 73.3911L124.959 74.2559ZM125.214 73.9177L125.207 73.795L124.209 73.852L124.216 73.9747L125.214 73.9177ZM125.414 77.4176L125.214 73.9176L124.216 73.9747L124.416 77.4747L125.414 77.4176ZM125.425 77.6063L125.414 77.4177L124.416 77.4747L124.427 77.6633L125.425 77.6063ZM125.115 77.1348H124.926V78.1348H125.115V77.1348ZM155.215 77.1348H125.115V78.1348H155.215V77.1348ZM155.407 77.1348H155.215V78.1348H155.407V77.1348ZM154.915 77.4225L154.907 77.6144L155.906 77.6552L155.914 77.4633L154.915 77.4225ZM155.115 72.5225L154.915 77.4225L155.914 77.4633L156.114 72.5633L155.115 72.5225ZM155.119 72.4156L155.115 72.5225L156.114 72.5633L156.119 72.4564L155.119 72.4156ZM155.238 72.7774L155.325 72.8403L155.913 72.0316L155.827 71.9687L155.238 72.7774ZM149.611 69.6614C151.945 70.7054 153.818 71.7446 155.238 72.7774L155.827 71.9687C154.332 70.8815 152.391 69.8096 150.019 68.7485L149.611 69.6614ZM149.315 41.267V69.205H150.315V41.267H149.315ZM155.615 39.3348C153.922 39.3348 151.921 39.8328 149.62 40.8065L150.01 41.7274C152.244 40.7817 154.106 40.3348 155.615 40.3348V39.3348ZM160.668 41.9992C159.542 40.222 157.842 39.3348 155.615 39.3348V40.3348C157.529 40.3348 158.896 41.0702 159.824 42.5344L160.668 41.9992ZM162.315 49.7348C162.315 46.3461 161.78 43.7533 160.668 41.9992L159.824 42.5344C160.786 44.0526 161.315 46.4194 161.315 49.7348H162.315ZM162.315 77.4348V49.7348H161.315V77.4348H162.315ZM162.315 77.6348V77.4348H161.315V77.6348H162.315ZM162.015 77.1348H161.815V78.1348H162.015V77.1348ZM185.015 77.1348H162.015V78.1348H185.015V77.1348ZM185.203 77.1348H185.015V78.1348H185.203V77.1348ZM184.715 77.4165L184.704 77.6042L185.702 77.6653L185.714 77.4775L184.715 77.4165ZM185.015 72.5164L184.715 77.4164L185.714 77.4775L186.014 72.5775L185.015 72.5164ZM185.022 72.4037L185.015 72.5164L186.014 72.5775L186.02 72.4648L185.022 72.4037ZM185.144 72.7817L185.237 72.8458L185.805 72.0227L185.712 71.9585L185.144 72.7817ZM179.319 69.5621C181.323 70.4125 183.265 71.4855 185.145 72.7817L185.712 71.9585C183.78 70.6257 181.779 69.5196 179.71 68.6416L179.319 69.5621ZM178.915 41.3636L179.014 69.1036L180.014 69.1001L179.915 41.3601L178.915 41.3636ZM185.415 39.3348C183.524 39.3348 181.453 39.8654 179.205 40.9083L179.626 41.8154C181.784 40.8142 183.71 40.3348 185.415 40.3348V39.3348ZM190.468 41.9992C189.342 40.222 187.642 39.3348 185.415 39.3348V40.3348C187.329 40.3348 188.696 41.0702 189.624 42.5344L190.468 41.9992ZM192.115 49.7348C192.115 46.3461 191.58 43.7533 190.468 41.9992L189.624 42.5344C190.586 44.0526 191.115 46.4194 191.115 49.7348H192.115ZM192.115 77.4348V49.7348H191.115V77.4348H192.115ZM192.115 77.6348V77.4348H191.115V77.6348H192.115ZM191.815 77.1348H191.615V78.1348H191.815V77.1348ZM216.515 77.1348H191.815V78.1348H216.515V77.1348ZM216.703 77.1348H216.515V78.1348H216.703V77.1348ZM216.215 77.4165L216.204 77.6042L217.202 77.6653L217.214 77.4775L216.215 77.4165ZM216.515 72.5164L216.215 77.4164L217.214 77.4775L217.514 72.5775L216.515 72.5164ZM216.522 72.4037L216.515 72.5164L217.514 72.5775L217.52 72.4648L216.522 72.4037ZM216.644 72.7817L216.737 72.8458L217.305 72.0227L217.212 71.9585L216.644 72.7817ZM209.147 69.1645C212.27 70.2796 214.767 71.4866 216.645 72.7817L217.212 71.9585C215.239 70.5976 212.656 69.3554 209.483 68.2227L209.147 69.1645ZM208.815 44.2348L208.815 68.6936H209.815L209.815 44.2348H208.815ZM208.815 44.2374L208.815 44.2402L209.815 44.2294L209.815 44.2265L208.815 44.2374ZM208.467 38.449C208.665 39.9496 208.782 41.8784 208.815 44.239L209.815 44.2249C209.781 41.8439 209.664 39.8724 209.459 38.3182L208.467 38.449ZM207.652 35.2793C207.99 35.8947 208.268 36.9396 208.467 38.449L209.459 38.3182C209.257 36.7845 208.961 35.5839 208.528 34.7974L207.652 35.2793ZM207.649 35.2734L207.652 35.28L208.528 34.7968L208.524 34.7902L207.649 35.2734ZM207.663 35.298L207.667 35.3043L208.506 34.7593L208.502 34.753L207.663 35.298ZM194.005 28.2346C200.19 28.432 204.725 30.7933 207.664 35.2986L208.501 34.7524C205.357 29.9314 200.495 27.4412 194.037 27.2351L194.005 28.2346ZM193.971 28.2335L194.005 28.2346L194.037 27.2351L194.003 27.234L193.971 28.2335ZM194.106 28.2205L194.139 28.21L193.835 27.2575L193.802 27.268L194.106 28.2205ZM179.095 36.5224C184.403 32.485 189.406 29.7218 194.106 28.2205L193.802 27.268C188.963 28.8136 183.859 31.6424 178.489 35.7264L179.095 36.5224ZM177.842 35.2605L178.338 36.3339L179.246 35.9149L178.75 34.8414L177.842 35.2605ZM177.836 35.2471L177.842 35.2604L178.75 34.8415L178.744 34.8283L177.836 35.2471ZM177.864 35.2987L177.872 35.3109L178.709 34.7645L178.701 34.7523L177.864 35.2987ZM164.205 28.2346C170.39 28.432 174.925 30.7933 177.864 35.2986L178.701 34.7524C175.557 29.9314 170.695 27.4412 164.237 27.2351L164.205 28.2346ZM164.171 28.2335L164.205 28.2346L164.237 27.2351L164.203 27.234L164.171 28.2335ZM164.305 28.221L164.337 28.2109L164.038 27.2567L164.005 27.2668L164.305 28.221ZM150.109 35.8454C155.237 32.1175 159.968 29.5801 164.305 28.221L164.005 27.2668C159.534 28.6682 154.705 31.2676 149.521 35.0365L150.109 35.8454ZM149.315 33.0348V35.441H150.315V33.0348H149.315ZM149.315 32.9519V33.0348H150.315V32.9519H149.315ZM149.403 33.2469L149.461 33.3055L150.168 32.5983L150.11 32.5397L149.403 33.2469ZM144.003 27.8469L149.403 33.2469L150.11 32.5398L144.71 27.1398L144.003 27.8469ZM124.132 31.5188L124.601 36.0177L125.596 35.9141L125.127 31.4152L124.132 31.5188ZM144.12 27.3373C136.917 27.5438 130.361 28.7632 124.453 30.9994L124.807 31.9347C130.597 29.743 137.042 28.5407 144.149 28.3369L144.12 27.3373ZM149.768 32.764L144.488 27.4835L143.781 28.1907L149.061 33.4712L149.768 32.764ZM149.915 35.8348V33.1176H148.915V35.8348H149.915ZM149.915 36.2297V35.8348H148.915V36.2297H149.915ZM149.437 35.5929L149.119 35.8267L149.711 36.6328L150.029 36.399L149.437 35.5929ZM164.092 27.6588C159.593 29.0743 154.708 31.7232 149.437 35.5929L150.029 36.399C155.244 32.5706 160.031 29.9851 164.392 28.6127L164.092 27.6588ZM178.358 34.9584C175.302 30.2804 170.585 27.8462 164.259 27.636L164.226 28.6355C170.279 28.8366 174.67 31.1418 177.521 35.5053L178.358 34.9584ZM178.987 36.309L178.393 35.0223L177.485 35.4414L178.079 36.7281L178.987 36.309ZM179.092 36.5359L178.987 36.309L178.079 36.7281L178.184 36.955L179.092 36.5359ZM178.532 36.1965L178.334 36.3484L178.942 37.1425L179.14 36.9906L178.532 36.1965ZM193.89 27.6597C189.058 29.2089 183.939 32.0586 178.532 36.1965L179.14 36.9906C184.485 32.8996 189.503 30.1163 194.196 28.6119L193.89 27.6597ZM208.162 34.9643C205.106 30.2827 200.388 27.8464 194.059 27.6361L194.026 28.6355C200.081 28.8368 204.474 31.1439 207.324 35.5109L208.162 34.9643ZM209.062 38.3705C208.862 36.8517 208.575 35.716 208.182 34.9978L207.304 35.4775C207.604 36.0256 207.874 37.0069 208.071 38.5013L209.062 38.3705ZM209.415 44.2295C209.381 41.8571 209.264 39.903 209.062 38.3705L208.071 38.5013C208.266 39.9802 208.382 41.8916 208.415 44.2435L209.415 44.2295ZM209.415 68.8348V44.2365H208.415V68.8348H209.415ZM209.415 68.9761V68.8348H208.415V68.9761H209.415ZM209.215 68.552L209.082 68.5048L208.748 69.4474L208.881 69.4946L209.215 68.552ZM216.89 72.2224C214.939 70.8945 212.378 69.6723 209.215 68.552L208.881 69.4946C211.995 70.5976 214.471 71.7854 216.327 73.049L216.89 72.2224ZM216.826 77.2653L217.107 72.6662L216.109 72.6051L215.828 77.2042L216.826 77.2653ZM192.015 77.7348H216.327V76.7348H192.015V77.7348ZM191.515 49.7348V77.2348H192.515V49.7348H191.515ZM189.961 42.3203C190.983 43.9329 191.515 46.3901 191.515 49.7348H192.515C192.515 46.3167 191.977 43.6336 190.806 41.7851L189.961 42.3203ZM185.415 39.9348C187.454 39.9348 188.954 40.731 189.961 42.3203L190.806 41.7851C189.601 39.8826 187.768 38.9348 185.415 38.9348V39.9348ZM179.343 41.5062C181.582 40.4522 183.605 39.9348 185.415 39.9348V38.9348C183.416 38.9348 181.246 39.5051 178.917 40.6014L179.343 41.5062ZM179.227 41.5605L179.343 41.5062L178.917 40.6014L178.801 40.6556L179.227 41.5605ZM179.515 41.2337L179.514 41.1063L178.514 41.1099L178.515 41.2373L179.515 41.2337ZM179.615 69.2337L179.515 41.2337L178.515 41.2373L178.615 69.2373L179.615 69.2337ZM179.615 69.3661L179.615 69.2336L178.615 69.2373L178.615 69.3698L179.615 69.3661ZM179.431 68.9581L179.309 68.9069L178.922 69.829L179.044 69.8803L179.431 68.9581ZM185.391 72.223C183.471 70.9076 181.484 69.819 179.431 68.9581L179.044 69.8803C181.032 70.7138 182.959 71.7691 184.826 73.048L185.391 72.223ZM185.326 77.2653L185.607 72.666L184.609 72.6049L184.328 77.2042L185.326 77.2653ZM162.215 77.7348H184.827V76.7348H162.215V77.7348ZM161.715 49.7348V77.2348H162.715V49.7348H161.715ZM160.161 42.3203C161.183 43.9329 161.715 46.3901 161.715 49.7348H162.715C162.715 46.3167 162.177 43.6336 161.006 41.7851L160.161 42.3203ZM155.615 39.9348C157.654 39.9348 159.154 40.731 160.161 42.3203L161.006 41.7851C159.801 39.8826 157.968 38.9348 155.615 38.9348V39.9348ZM149.733 41.4105C152.047 40.419 154.004 39.9348 155.615 39.9348V38.9348C153.817 38.9348 151.718 39.4716 149.339 40.4914L149.733 41.4105ZM149.612 41.4625L149.733 41.4105L149.339 40.4914L149.218 40.5433L149.612 41.4625ZM149.915 41.1348V41.0029H148.915V41.1348H149.915ZM149.915 69.3348V41.1348H148.915V69.3348H149.915ZM149.915 69.4647V69.3348H148.915V69.4647H149.915ZM149.737 69.0606L149.618 69.0078L149.212 69.9216L149.331 69.9744L149.737 69.0606ZM155.502 72.2278C154.025 71.1664 152.101 70.1113 149.737 69.0606L149.331 69.9744C151.657 71.0083 153.515 72.0315 154.919 73.04L155.502 72.2278ZM155.522 77.2551L155.71 72.6543L154.711 72.6135L154.523 77.2144L155.522 77.2551ZM125.304 77.7348H155.023V76.7348H125.304V77.7348ZM124.622 74.0748L124.805 77.2633L125.803 77.2062L125.621 74.0178L124.622 74.0748ZM132.216 70.3515C129.385 71.3389 126.937 72.4255 124.872 73.6129L125.371 74.4797C127.369 73.3303 129.759 72.2678 132.545 71.2957L132.216 70.3515ZM132.35 70.3047L132.216 70.3515L132.545 71.2957L132.68 71.2489L132.35 70.3047ZM132.015 70.6348V70.7768H133.015V70.6348H132.015ZM132.015 37.5348V70.6348H133.015V37.5348H132.015ZM132.015 37.3691V37.5348H133.015V37.3691H132.015ZM132.259 37.8295L132.422 37.8603L132.608 36.8778L132.445 36.847L132.259 37.8295ZM125.005 36.4572L132.259 37.8295L132.445 36.847L125.191 35.4746L125.005 36.4572ZM269.658 29.57C274.911 28.4728 278.921 27.9348 281.715 27.9348V26.9348C278.817 26.9348 274.726 27.4899 269.453 28.5911L269.658 29.57ZM255.986 33.4425C259.916 31.9449 264.472 30.6531 269.658 29.57L269.453 28.5911C264.228 29.6825 259.62 30.9877 255.63 32.508L255.986 33.4425ZM256.114 36.5671L256.307 33.0022L255.308 32.9482L255.116 36.5132L256.114 36.5671ZM257.928 47.568C256.721 44.0876 256.115 40.413 256.115 36.5401L255.115 36.5402C255.115 40.5192 255.738 44.3049 256.983 47.8957L257.928 47.568ZM266.943 47.0381L257.446 47.2319L257.466 48.2317L266.963 48.0379L266.943 47.0381ZM268.831 36.5855L266.465 47.4314L267.442 47.6446L269.808 36.7987L268.831 36.5855ZM268.853 36.4837L268.831 36.5856L269.808 36.7987L269.83 36.6968L268.853 36.4837ZM269.246 36.0886L269.149 36.1287L269.534 37.0518L269.63 37.0117L269.246 36.0886ZM275.071 34.8361C272.878 34.9732 270.932 35.386 269.246 36.0886L269.63 37.0117C271.193 36.3604 273.026 35.9659 275.134 35.8342L275.071 34.8361ZM275.127 34.8326L275.071 34.8361L275.134 35.8342L275.189 35.8307L275.127 34.8326ZM275.439 34.9142L275.389 34.8884L274.927 35.7749L274.976 35.8007L275.439 34.9142ZM280.415 45.6348C280.415 40.3813 278.839 36.6883 275.439 34.9142L274.976 35.8007C277.9 37.3261 279.415 40.5528 279.415 45.6348H280.415ZM280.415 53.8348V45.6348H279.415V53.8348H280.415ZM280.415 54.0306V53.8348H279.415V54.0306H280.415ZM279.73 54.5346L279.925 54.5305L279.904 53.5307L279.708 53.5348L279.73 54.5346ZM260.777 54.9336L279.73 54.5346L279.708 53.5348L260.756 53.9338L260.777 54.9336ZM253.315 66.0348C253.315 61.3679 255.798 57.65 261.002 54.8749L260.531 53.9925C255.087 56.8958 252.315 60.9108 252.315 66.0348H253.315ZM257.425 74.7076C254.666 72.2967 253.315 69.4173 253.315 66.0348H252.315C252.315 69.728 253.807 72.8749 256.767 75.4607L257.425 74.7076ZM267.806 78.3348C263.623 78.3331 260.18 77.1138 257.425 74.7076L256.767 75.4607C259.727 78.0461 263.414 79.333 267.806 79.3348L267.806 78.3348ZM271.104 78.0419L267.762 78.3367L267.85 79.3328L271.191 79.038L271.104 78.0419ZM281.433 71.2481L270.875 78.1209L271.42 78.959L281.978 72.0862L281.433 71.2481ZM281.612 71.1317L281.433 71.2481L281.979 72.0862L282.157 71.9698L281.612 71.1317ZM282.425 71.4916L282.32 71.3056L281.449 71.7959L281.553 71.9819L282.425 71.4916ZM286.822 76.4651C285.044 75.1954 283.578 73.5416 282.425 71.4916L281.553 71.9818C282.773 74.1509 284.336 75.9183 286.24 77.2789L286.822 76.4651ZM291.988 78.4332C290.303 78.3614 288.584 77.724 286.822 76.4651L286.24 77.2789C288.125 78.6247 290.027 79.3505 291.945 79.4323L291.988 78.4332ZM304.754 71.1907L291.722 78.4966L292.211 79.3689L305.243 72.063L304.754 71.1907ZM303.947 67.6174L304.503 71.6944L305.494 71.5593L304.938 67.4823L303.947 67.6174ZM302.273 68.2323L304.484 68.0481L304.401 67.0516L302.19 67.2358L302.273 68.2323ZM302.264 68.2331L302.273 68.2323L302.19 67.2358L302.181 67.2366L302.264 68.2331ZM299.541 68.3343L302.241 68.2345L302.204 67.2352L299.504 67.335L299.541 68.3343ZM299.533 68.3346L299.541 68.3343L299.504 67.335L299.496 67.3352L299.533 68.3346ZM297.135 67.4699C297.728 68.0868 298.567 68.3347 299.515 68.3349L299.515 67.3349C298.731 67.3348 298.197 67.1314 297.856 66.7768L297.135 67.4699ZM296.315 65.0348C296.315 66.0025 296.547 66.8582 297.135 67.4699L297.856 66.7768C297.513 66.42 297.315 65.8582 297.315 65.0348H296.315ZM296.315 42.1365V65.0348H297.315V42.1365H296.315ZM295.973 37.4939C296.166 38.7169 296.282 40.2647 296.315 42.1453L297.315 42.1278C297.281 40.2206 297.164 38.6228 296.961 37.338L295.973 37.4939ZM295.213 34.8923C295.514 35.4158 295.779 36.2638 295.973 37.4939L296.961 37.338C296.76 36.0636 296.471 35.0741 296.08 34.3938L295.213 34.8923ZM281.715 27.9348C287.417 27.9348 291.903 30.2546 295.239 34.9333L296.053 34.3528C292.532 29.413 287.743 26.9348 281.715 26.9348V27.9348ZM281.715 26.5348C278.775 26.5348 274.652 27.0967 269.372 28.1995L269.576 29.1784C274.837 28.0797 278.879 27.5348 281.715 27.5348V26.5348ZM296.385 34.1286C292.788 29.0791 287.876 26.5348 281.715 26.5348V27.5348C287.55 27.5348 292.16 29.9205 295.57 34.7088L296.385 34.1286ZM296.391 34.1365L296.385 34.1288L295.57 34.7087L295.576 34.7163L296.391 34.1365ZM296.42 34.1837L296.416 34.1755L295.551 34.6773L295.555 34.6854L296.42 34.1837ZM297.356 37.2756C297.151 35.978 296.851 34.928 296.421 34.184L295.555 34.6851C295.894 35.271 296.171 36.1782 296.368 37.4315L297.356 37.2756ZM297.715 42.1225C297.681 40.2039 297.563 38.5856 297.356 37.2756L296.368 37.4315C296.566 38.6796 296.682 40.248 296.715 42.14L297.715 42.1225ZM297.715 42.1261L297.715 42.1226L296.715 42.1399L296.715 42.1435L297.715 42.1261ZM297.715 65.0348L297.715 42.1348H296.715L296.715 65.0348H297.715ZM298.144 66.4996C297.899 66.2445 297.715 65.8 297.715 65.0348H296.715C296.715 65.945 296.934 66.683 297.424 67.1927L298.144 66.4996ZM299.512 66.9348C298.796 66.9342 298.384 66.7492 298.144 66.4996L297.424 67.1927C297.915 67.7037 298.63 67.9341 299.511 67.9348L299.512 66.9348ZM302.184 66.8354L299.493 66.9351L299.53 67.9344L302.221 67.8347L302.184 66.8354ZM304.557 66.6372L302.161 66.8368L302.244 67.8333L304.64 67.6337L304.557 66.6372ZM304.746 66.6214L304.557 66.6372L304.64 67.6337L304.829 67.618L304.746 66.6214ZM305.308 67.2402L305.283 67.0522L304.292 67.1872L304.318 67.3753L305.308 67.2402ZM305.908 71.6402L305.308 67.2402L304.318 67.3753L304.918 71.7753L305.908 71.6402ZM305.927 71.7751L305.908 71.6402L304.918 71.7753L304.936 71.9102L305.927 71.7751ZM305.557 72.3454L305.676 72.2788L305.187 71.4065L305.068 71.4731L305.557 72.3454ZM292.357 79.7454L305.557 72.3454L305.068 71.4731L291.868 78.8731L292.357 79.7454ZM292.308 79.7727L292.357 79.7453L291.868 78.8731L291.819 78.9005L292.308 79.7727ZM291.99 79.8343L292.046 79.8363L292.082 78.837L292.026 78.835L291.99 79.8343ZM286.008 77.6044C287.961 78.9992 289.957 79.7617 291.99 79.8343L292.026 78.835C290.23 78.7708 288.419 78.0976 286.589 76.7906L286.008 77.6044ZM281.313 72.3682C282.544 74.4987 284.109 76.2477 286.008 77.6044L286.589 76.7906C284.813 75.5221 283.343 73.8827 282.179 71.868L281.313 72.3682ZM271.597 79.3214L282.019 72.5372L281.473 71.6991L271.051 78.4833L271.597 79.3214ZM271.555 79.3487L271.597 79.3215L271.051 78.4833L271.009 78.5105L271.555 79.3487ZM271.276 79.4321L271.326 79.4277L271.238 78.4315L271.188 78.4359L271.276 79.4321ZM267.876 79.732L271.276 79.4321L271.188 78.4359L267.788 78.7359L267.876 79.732ZM267.868 79.7328L267.877 79.732L267.788 78.7359L267.779 78.7367L267.868 79.7328ZM267.815 79.7348H267.824V78.7348H267.815V79.7348ZM256.504 75.7619C259.548 78.4208 263.335 79.7348 267.815 79.7348V78.7348C263.544 78.7348 260.001 77.4884 257.162 75.0088L256.504 75.7619ZM251.915 66.0348C251.915 69.8522 253.464 73.1062 256.504 75.7619L257.162 75.0088C254.322 72.528 252.915 69.5416 252.915 66.0348H251.915ZM260.387 53.6165C254.819 56.5723 251.915 60.7134 251.915 66.0348H252.915C252.915 61.1725 255.527 57.3282 260.855 54.4997L260.387 53.6165ZM260.429 53.5942L260.387 53.6165L260.855 54.4998L260.897 54.4775L260.429 53.5942ZM260.7 53.5349L260.652 53.5359L260.674 54.5357L260.721 54.5347L260.7 53.5349ZM279.504 53.139L260.7 53.5349L260.721 54.5347L279.525 54.1388L279.504 53.139ZM279.015 45.6348V53.6389H280.015V45.6348H279.015ZM274.837 36.1795C277.54 37.615 279.015 40.6494 279.015 45.6348H280.015C280.015 40.4785 278.481 36.9821 275.306 35.2963L274.837 36.1795ZM269.876 37.3429C271.357 36.7401 273.096 36.3671 275.104 36.2369L275.039 35.239C272.947 35.3746 271.099 35.7654 269.499 36.4167L269.876 37.3429ZM267.799 47.884L270.176 36.9864L269.199 36.7732L266.822 47.6708L267.799 47.884ZM267.765 48.038L267.799 47.8839L266.822 47.6709L266.788 47.825L267.765 48.038ZM267.129 48.4346L267.287 48.4314L267.266 47.4316L267.109 47.4348L267.129 48.4346ZM257.329 48.6346L267.129 48.4346L267.109 47.4348L257.309 47.6348L257.329 48.6346ZM257.184 48.6376L257.329 48.6346L257.309 47.6348L257.164 47.6378L257.184 48.6376ZM256.654 48.1671L256.703 48.3036L257.646 47.9717L257.598 47.8352L256.654 48.1671ZM254.715 36.5348C254.715 40.6101 255.36 44.4889 256.655 48.1671L257.598 47.8352C256.343 44.2687 255.715 40.5025 255.715 36.5348H254.715ZM254.715 36.524V36.5348H255.715V36.524H254.715ZM255.241 36.0247L255.241 36.0246L255.189 37.0233L255.189 37.0233L255.241 36.0247ZM254.916 32.797L254.716 36.497L255.714 36.551L255.914 32.851L254.916 32.797ZM254.923 32.6674L254.916 32.797L255.914 32.851L255.921 32.7214L254.923 32.6674ZM255.364 32.1811L255.243 32.2276L255.601 33.1613L255.722 33.1149L255.364 32.1811ZM269.372 28.1995C264.077 29.3054 259.407 30.6315 255.364 32.1811L255.722 33.1149C259.704 31.5885 264.321 30.2759 269.576 29.1784L269.372 28.1995ZM272.349 61.3531C273.95 60.5525 276.391 60.1684 279.709 60.2347L279.729 59.2349C276.358 59.1675 273.721 59.5489 271.902 60.4587L272.349 61.3531ZM270.591 62.8356C270.973 62.2476 271.553 61.751 272.349 61.3531L271.902 60.4587C270.981 60.919 270.251 61.5242 269.753 62.291L270.591 62.8356ZM270.015 64.9348C270.015 64.1181 270.21 63.4224 270.591 62.8356L269.753 62.291C269.253 63.0608 269.015 63.9513 269.015 64.9348H270.015ZM271.627 69.0226C270.555 67.9504 270.015 66.5957 270.015 64.9348H269.015C269.015 66.837 269.644 68.4538 270.92 69.7297L271.627 69.0226ZM271.691 69.0869L271.627 69.0227L270.92 69.7297L270.984 69.7938L271.691 69.0869ZM271.395 68.9354L271.304 68.9415L271.371 69.9392L271.461 69.9332L271.395 68.9354ZM279.623 67.0491C276.097 68.1801 273.358 68.8046 271.395 68.9354L271.461 69.9332C273.547 69.7941 276.379 69.14 279.929 68.0013L279.623 67.0491ZM279.762 67.0045L279.623 67.0491L279.929 68.0013L280.068 67.9567L279.762 67.0045ZM279.415 67.3348V67.4806H280.415V67.3348H279.415ZM279.415 59.9348V67.3348H280.415V59.9348H279.415ZM279.415 59.7387V59.9348H280.415V59.7387H279.415ZM279.709 60.2347L279.905 60.2386L279.925 59.2388L279.729 59.2349L279.709 60.2347ZM270.088 62.5089C269.636 63.2054 269.415 64.018 269.415 64.9348H270.415C270.415 64.1849 270.593 63.5671 270.927 63.0535L270.088 62.5089ZM272.081 60.8164C271.21 61.2518 270.54 61.8136 270.088 62.5089L270.927 63.0535C271.262 62.537 271.782 62.0839 272.528 61.7108L272.081 60.8164ZM279.522 59.6314C276.271 59.5833 273.779 59.9672 272.081 60.8164L272.528 61.7109C274.011 60.9691 276.311 60.584 279.507 60.6313L279.522 59.6314ZM280.015 67.1887V60.1313H279.015V67.1887H280.015ZM271.529 69.5275C273.53 69.3805 276.246 68.7558 279.667 67.6651L279.363 66.7124C275.967 67.7952 273.339 68.3918 271.456 68.5302L271.529 69.5275ZM269.415 64.9348C269.415 66.7045 269.985 68.193 271.134 69.377L271.851 68.6806C270.9 67.7001 270.415 66.4691 270.415 64.9348H269.415Z" fill="#3DD7AC"/>
</svg>
