<svg width="623" height="65" viewBox="0 0 623 65" fill="none" xmlns="http://www.w3.org/2000/svg">
<path d="M16.6974 0L16.9289 -0.443175L16.6538 -0.586904L16.4029 -0.404071L16.6974 0ZM16.8074 0.0574918L17.0389 -0.385683V-0.385683L16.8074 0.0574918ZM16.597 0.0731329L16.8915 0.477205L16.8915 0.477204L16.597 0.0731329ZM6.63735 12.1426L6.19365 11.9121H6.19365L6.63735 12.1426ZM6.57603 12.2606L6.13233 12.0301L5.97902 12.3252L6.19192 12.5807L6.57603 12.2606ZM6.66119 12.3628L7.0453 12.0427L7.0453 12.0427L6.66119 12.3628ZM18.6329 21.5172L18.428 21.9733H18.428L18.6329 21.5172ZM18.7378 21.5643L18.5329 22.0204L18.7953 22.1383L19.0291 21.9708L18.7378 21.5643ZM18.8313 21.4973L19.1226 21.9037H19.1226L18.8313 21.4973ZM28.1937 10.5242L27.7465 10.3006L27.7465 10.3006L28.1937 10.5242ZM28.2464 10.4188L28.6937 10.6424L28.8255 10.3787L28.6586 10.1357L28.2464 10.4188ZM28.1797 10.3216L27.7675 10.6046L27.7675 10.6046L28.1797 10.3216ZM16.7323 0.46984L16.9657 0.0276356L16.6885 -0.118654L16.436 0.0671088L16.7323 0.46984ZM7.05389 12.2088L6.61086 11.9771L6.45561 12.2738L6.67095 12.5303L7.05389 12.2088ZM27.783 10.4508L28.2294 10.676L28.3632 10.4108L28.1943 10.1664L27.783 10.4508ZM18.6918 21.1049L18.4853 21.5603L18.7495 21.6801L18.9846 21.5103L18.6918 21.1049ZM363.731 44.6348L363.353 44.9623L363.358 44.9688L363.364 44.975L363.731 44.6348ZM366.431 37.1348L366.485 36.6377L366.384 36.6268L366.287 36.6559L366.431 37.1348ZM371.031 37.6348L371.504 37.4736L371.401 37.1721L371.085 37.1377L371.031 37.6348ZM374.131 46.7348L373.657 46.896L373.773 47.2348H374.131V46.7348ZM382.931 46.7348V47.2348H383.295L383.407 46.8875L382.931 46.7348ZM384.631 36.2348H385.131V36.2205L385.13 36.2063L384.631 36.2348ZM384.431 32.7348L384.93 32.7063L384.913 32.4213L384.66 32.2904L384.431 32.7348ZM352.931 33.8348L353.219 34.2435L353.22 34.2426L352.931 33.8348ZM349.531 53.0348L349.135 53.3402L349.139 53.3465L349.145 53.3527L349.531 53.0348ZM360.031 60.4348L359.8 60.8786L359.807 60.882L360.031 60.4348ZM369.231 65.8348L368.865 66.176L368.871 66.1823L368.877 66.1884L369.231 65.8348ZM368.931 72.9348L368.763 73.406L369.042 73.5049L369.263 73.3085L368.931 72.9348ZM350.931 62.9348L351.236 62.5387L350.728 62.1476L350.472 62.7353L350.931 62.9348ZM345.231 76.0348L344.772 75.8353L344.586 76.2634L345 76.4786L345.231 76.0348ZM381.031 77.1348L381.335 77.5314L381.339 77.528L381.031 77.1348ZM383.831 57.9348L383.436 58.2418L383.44 58.2472L383.831 57.9348ZM373.031 50.2348L372.798 50.6775L372.802 50.6798L373.031 50.2348ZM454.929 73.7348L455.172 74.1717L455.471 74.0057L455.424 73.6673L454.929 73.7348ZM441.629 81.1348L441.595 81.6336L441.742 81.6438L441.872 81.5717L441.629 81.1348ZM454.329 69.3348L454.824 69.2673L454.76 68.7987L454.289 68.8364L454.329 69.3348ZM451.829 69.5348L451.848 70.0344L451.859 70.034L451.869 70.0332L451.829 69.5348ZM449.229 69.6348V70.1348H449.239L449.248 70.1344L449.229 69.6348ZM446.729 34.4348H447.229V34.2103L447.061 34.0611L446.729 34.4348ZM441.329 29.6348L441.661 29.2611L441.515 29.131L441.319 29.1349L441.329 29.6348ZM423.329 33.0348L423.143 32.5706L422.793 32.7109L422.832 33.0866L423.329 33.0348ZM423.829 37.8348L423.332 37.8866L423.368 38.2349L423.708 38.3199L423.829 37.8348ZM429.429 39.2348H429.929V38.8444L429.55 38.7497L429.429 39.2348ZM429.429 67.8348L429.633 68.2911L429.929 68.1586V67.8348H429.429ZM417.129 34.4348H417.629V34.2103L417.461 34.0611L417.129 34.4348ZM411.729 29.6348L412.061 29.2611L411.913 29.1296L411.715 29.135L411.729 29.6348ZM391.929 33.3348L391.751 32.8677L391.392 33.0047L391.432 33.3866L391.929 33.3348ZM392.429 38.1348L391.932 38.1866L391.97 38.5569L392.336 38.6261L392.429 38.1348ZM399.829 39.5348H400.329V39.1205L399.922 39.0435L399.829 39.5348ZM399.829 64.2348H399.329V64.248L399.33 64.2611L399.829 64.2348ZM400.129 69.9348L399.63 69.9611L399.631 69.979L399.633 69.9968L400.129 69.9348ZM405.229 77.9348L404.939 78.3423L404.943 78.3453L405.229 77.9348ZM414.929 81.1348V81.6348H415.001L415.071 81.6142L414.929 81.1348ZM431.029 72.6348L431.479 72.4161L431.211 71.8669L430.726 72.2372L431.029 72.6348ZM435.729 78.6348L435.418 79.0266L435.425 79.0316L435.729 78.6348ZM483.508 79.3348L483.606 78.8445L483.008 78.7249V79.3348H483.508ZM510.808 36.7348L510.413 37.0414L510.418 37.0479L510.808 36.7348ZM497.408 30.0348V29.5348H497.386L497.364 29.5367L497.408 30.0348ZM494.008 30.3348L493.964 29.8367L493.823 29.8492L493.71 29.9334L494.008 30.3348ZM483.508 38.1348H483.008V39.1291L483.806 38.5362L483.508 38.1348ZM483.508 34.4348H484.008V34.2099L483.84 34.0607L483.508 34.4348ZM478.208 29.7348H477.708V29.9597L477.876 30.1089L478.208 29.7348ZM478.208 29.6348H478.708V29.1209L478.194 29.135L478.208 29.6348ZM458.408 33.3348L458.229 32.8677L457.871 33.0047L457.911 33.3866L458.408 33.3348ZM458.908 38.1348L458.411 38.1866L458.449 38.5559L458.814 38.6259L458.908 38.1348ZM466.208 39.5348H466.708V39.1216L466.302 39.0438L466.208 39.5348ZM466.208 93.5348L466.391 94L466.708 93.8752V93.5348H466.208ZM459.608 96.1348L459.425 95.6696L459.088 95.8022L459.109 96.1633L459.608 96.1348ZM459.808 99.6348L459.309 99.6633L459.336 100.135H459.808V99.6348ZM492.808 99.6348V100.135H493.288L493.307 99.6552L492.808 99.6348ZM493.008 94.7348L493.507 94.7552L493.52 94.444L493.246 94.2954L493.008 94.7348ZM483.508 90.4348H483.008V90.7733L483.322 90.8991L483.508 90.4348ZM483.508 43.3348L483.298 42.8808L483.008 43.0149V43.3348H483.508ZM495.208 46.3348L494.778 46.5906L494.781 46.5951L495.208 46.3348ZM496.108 65.0348L495.639 64.8604L495.637 64.8666L496.108 65.0348ZM492.108 71.6348L492.144 72.1335L492.324 72.1203L492.454 71.9955L492.108 71.6348ZM483.508 70.7348H483.008V71.119L483.379 71.2179L483.508 70.7348ZM563.064 56.5348L563.06 57.0348L563.27 57.0365L563.418 56.8884L563.064 56.5348ZM537.864 56.3348L537.868 55.8348L537.307 55.8304L537.367 56.3883L537.864 56.3348ZM568.864 50.7348L569.218 51.0884L569.362 50.9441L569.364 50.74L568.864 50.7348ZM562.864 35.3348L562.517 35.6942L562.52 35.6972L562.864 35.3348ZM528.964 37.2348L528.604 36.8883L528.604 36.8884L528.964 37.2348ZM528.864 73.9348L528.518 74.2957L528.521 74.298L528.864 73.9348ZM547.364 80.9348V81.4348H547.38L547.397 81.4338L547.364 80.9348ZM551.964 80.6348L551.997 81.1338L552.111 81.1263L552.211 81.0698L551.964 80.6348ZM567.664 71.7348L567.911 72.1698L568.303 71.9473L568.122 71.534L567.664 71.7348ZM565.164 66.0348L565.622 65.834L565.409 65.3472L564.936 65.59L565.164 66.0348ZM542.464 66.3348L542.13 66.707L542.135 66.7111L542.464 66.3348ZM544.364 37.7348L544.379 37.235L544.228 37.2306L544.099 37.3108L544.364 37.7348ZM538.264 48.7348L537.771 48.6546L537.67 49.2713L538.294 49.2339L538.264 48.7348ZM550.164 40.8348L549.774 41.1472L549.779 41.1543L549.785 41.1613L550.164 40.8348ZM553.264 47.8348L553.294 48.3339L553.838 48.3013L553.759 47.7624L553.264 47.8348ZM598.19 46.6348L597.894 46.2316L597.69 46.3814V46.6348H598.19ZM598.19 70.3348H597.69V70.7295L598.074 70.8211L598.19 70.3348ZM599.69 45.5348L599.752 45.0387L599.555 45.014L599.394 45.1316L599.69 45.5348ZM610.39 51.6348L610.069 52.0185L610.463 52.3475L610.782 51.9455L610.39 51.6348ZM621.89 37.1348L622.282 37.4455L622.455 37.2271L622.36 36.965L621.89 37.1348ZM617.19 31.5348L616.931 31.9624L616.936 31.9658L617.19 31.5348ZM606.09 30.0348L605.932 29.5605L605.805 29.6028L605.716 29.7029L606.09 30.0348ZM598.19 38.9348H597.69V40.2513L598.564 39.2667L598.19 38.9348ZM598.19 37.1348H598.69V36.9735L598.596 36.8427L598.19 37.1348ZM592.79 29.6348L593.196 29.3427L593.041 29.1277L592.776 29.135L592.79 29.6348ZM572.99 33.3348L572.811 32.8677L572.453 33.0047L572.493 33.3866L572.99 33.3348ZM573.49 38.1348L572.993 38.1866L573.031 38.5569L573.397 38.6261L573.49 38.1348ZM580.89 39.5348H581.39V39.1205L580.983 39.0435L580.89 39.5348ZM580.89 72.6348L581.055 73.1069L581.39 72.9899V72.6348H580.89ZM573.49 75.9348L573.239 75.5024L572.973 75.6567L572.991 75.9633L573.49 75.9348ZM573.69 79.4348L573.191 79.4633L573.218 79.9348H573.69V79.4348ZM608.89 79.4348V79.9348H609.37L609.389 79.4552L608.89 79.4348ZM609.09 74.5348L609.589 74.5552L609.601 74.2634L609.353 74.1097L609.09 74.5348ZM21.1477 26.4853L21.4799 26.1116L21.4799 26.1116L21.1477 26.4853ZM21.0885 26.4327L21.4207 26.0589L21.2727 25.9274L21.0748 25.9328L21.0885 26.4327ZM26.5477 31.2853L26.2155 31.659L26.2155 31.659L26.5477 31.2853ZM26.6148 31.3449H27.1148V31.1204L26.947 30.9712L26.6148 31.3449ZM26.6148 67.8919H26.1148V68.2485L26.4519 68.3646L26.6148 67.8919ZM33.7311 71.372L34.0217 70.9652L34.0217 70.9651L33.7311 71.372ZM33.8191 71.4349L34.3187 71.4553L34.3297 71.1852L34.1097 71.028L33.8191 71.4349ZM33.8147 71.5429L34.3143 71.5633L33.8147 71.5429ZM33.6147 76.4429L34.1143 76.4633L33.6147 76.4429ZM33.6068 76.6348V77.1348H34.0868L34.1064 76.6552L33.6068 76.6348ZM1.52594 76.6348L1.02675 76.6633L1.05369 77.1348H1.52594V76.6348ZM1.51516 76.4462L2.01435 76.4176H2.01435L1.51516 76.4462ZM1.31516 72.9462L1.81435 72.9176H1.81435L1.31516 72.9462ZM1.3081 72.8225L1.06001 72.3884L0.79125 72.542L0.808911 72.8511L1.3081 72.8225ZM1.41561 72.7611L1.16754 72.327L1.16752 72.327L1.41561 72.7611ZM8.91483 69.3919L9.07778 69.8646L9.41483 69.7485V69.3919H8.91483ZM8.91483 36.7005H9.41483V36.2862L9.00778 36.2092L8.91483 36.7005ZM1.67766 35.3313L1.7706 34.84L1.7706 34.84L1.67766 35.3313ZM1.53134 35.3036L1.03403 35.3554L1.0726 35.7257L1.4384 35.7949L1.53134 35.3036ZM1.51591 35.1555L2.01322 35.1037L1.51591 35.1555ZM1.01591 30.3555L0.518602 30.4073L0.518602 30.4073L1.01591 30.3555ZM1 30.2027L0.821565 29.7357L0.462913 29.8727L0.502691 30.2545L1 30.2027ZM1.14346 30.1479L0.965027 29.6809H0.965026L1.14346 30.1479ZM21.0093 26.4348L20.9956 25.935H20.9956L21.0093 26.4348ZM1.89833 34.9659L1.40102 35.0177L1.43959 35.388L1.80538 35.4572L1.89833 34.9659ZM1.42969 30.467L1.25269 29.9994L0.892482 30.1358L0.932386 30.5188L1.42969 30.467ZM9.15201 36.3382L9.05907 36.8295L9.05907 36.8295L9.15201 36.3382ZM9.31484 36.3691H9.81484V35.9548L9.40778 35.8778L9.31484 36.3691ZM9.31484 69.6778L9.47639 70.151L9.81484 70.0354V69.6778H9.31484ZM9.17946 69.724L9.01791 69.2508L9.01789 69.2509L9.17946 69.724ZM1.72159 73.0472L1.47488 72.6123L1.20468 72.7656L1.2224 73.0757L1.72159 73.0472ZM1.90373 76.2348L1.40455 76.2633L1.43149 76.7348H1.90373V76.2348ZM33.2228 76.2348V76.7348H33.7028L33.7224 76.2551L33.2228 76.2348ZM33.4106 71.6351L33.9102 71.6554L33.9213 71.3833L33.6987 71.2264L33.4106 71.6351ZM26.3503 68.2241L26.5116 67.7508L26.5116 67.7508L26.3503 68.2241ZM26.2148 68.1779H25.7148V68.5357L26.0535 68.6512L26.2148 68.1779ZM26.2148 31.5246H26.7148V31.3L26.547 31.1509L26.2148 31.5246ZM20.9412 26.8369L21.2734 26.4632L21.1252 26.3314L20.9269 26.3371L20.9412 26.8369ZM86.4557 28.0805L86.3535 27.5911L86.4557 28.0805ZM112.546 33.643L112.98 33.3937L112.968 33.3726L112.954 33.3528L112.546 33.643ZM113.367 36.416L112.873 36.4939L113.367 36.416ZM113.715 41.1365H114.215L114.215 41.1277L113.715 41.1365ZM114.396 66.1234L114.035 66.4699L114.035 66.4699L114.396 66.1234ZM116.415 66.8348H116.915V66.3348H116.415V66.8348ZM116.415 66.8349H115.915V67.3538L116.433 67.3346L116.415 66.8349ZM116.422 66.8346L116.404 66.335H116.404L116.422 66.8346ZM119.122 66.7346H119.622V66.2158L119.104 66.235L119.122 66.7346ZM119.122 66.7348H118.622V67.2785L119.164 67.2331L119.122 66.7348ZM119.131 66.7341L119.09 66.2358L119.09 66.2358L119.131 66.7341ZM121.342 66.5498L121.838 66.4823L121.774 66.0122L121.301 66.0516L121.342 66.5498ZM121.898 70.6269L122.143 71.063L122.44 70.8966L122.394 70.5593L121.898 70.6269ZM108.866 77.9327L108.845 78.4323L108.987 78.4383L109.111 78.3689L108.866 77.9327ZM103.431 75.872L103.14 76.2789L103.431 75.872ZM98.8892 70.7367L98.4534 70.9818L98.4534 70.9818L98.8892 70.7367ZM98.7846 70.5507L99.2204 70.3056L98.9588 69.8407L98.5118 70.1317L98.7846 70.5507ZM98.6057 70.6671L98.8785 71.0862V71.0862L98.6057 70.6671ZM88.0476 77.5399L88.0915 78.038L88.2158 78.027L88.3203 77.959L88.0476 77.5399ZM84.7061 77.8348L84.7059 78.3348L84.728 78.3348L84.75 78.3328L84.7061 77.8348ZM73.9964 74.0841L74.3254 73.7076L73.9964 74.0841ZM77.6667 53.4337L77.6562 52.9338L77.5368 52.9363L77.4314 52.9925L77.6667 53.4337ZM96.6191 53.0347L96.6296 53.5346H96.6296L96.6191 53.0347ZM96.8148 53.0306L96.8254 53.5305L97.3148 53.5202V53.0306H96.8148ZM92.1074 34.3574L92.3386 33.9142L92.3386 33.9141L92.1074 34.3574ZM92.058 34.3317L92.2892 33.8884L92.1658 33.824L92.0268 33.8326L92.058 34.3317ZM92.0024 34.3352L92.0336 34.8342H92.0336L92.0024 34.3352ZM86.3379 35.5501L86.5302 36.0117L86.5302 36.0117L86.3379 35.5501ZM86.2417 35.5903L86.0494 35.1287L85.8087 35.229L85.7532 35.4837L86.2417 35.5903ZM86.2194 35.6921L86.708 35.7987V35.7987L86.2194 35.6921ZM83.8531 46.538L83.8633 47.0379L84.2575 47.0299L84.3416 46.6446L83.8531 46.538ZM74.3558 46.7318L73.8834 46.8957L74.0026 47.2392L74.366 47.2317L74.3558 46.7318ZM72.5148 35.5402L72.0156 35.5132L72.0148 35.5267V35.5402L72.5148 35.5402ZM72.7076 31.9752L72.5295 31.508L72.2258 31.6237L72.2083 31.9482L72.7076 31.9752ZM86.374 27.689L86.4762 28.1784L86.374 27.689ZM72.4433 31.648L72.2643 31.1811L72.2643 31.1811L72.4433 31.648ZM72.3221 31.6944L72.1432 31.2276L71.8404 31.3436L71.8229 31.6674L72.3221 31.6944ZM72.3151 31.824L71.8159 31.797V31.797L72.3151 31.824ZM72.1151 35.524L72.0889 36.0233L72.5875 36.0495L72.6144 35.551L72.1151 35.524ZM72.1148 35.524L72.1411 35.0246L71.6148 34.9969V35.524H72.1148ZM74.0262 47.0011L74.4978 46.8352V46.8352L74.0262 47.0011ZM74.0742 47.1377L73.6026 47.3036L73.7226 47.645L74.0844 47.6376L74.0742 47.1377ZM74.2189 47.1347L74.2291 47.6346L74.2189 47.1347ZM84.0189 46.9347L84.0291 47.4346H84.0291L84.0189 46.9347ZM84.1766 46.9315L84.1868 47.4314L84.5811 47.4234L84.6651 47.0381L84.1766 46.9315ZM84.2103 46.7774L83.7217 46.6708L84.2103 46.7774ZM86.5879 35.8798L86.3994 35.4167L86.1555 35.516L86.0994 35.7732L86.5879 35.8798ZM91.9714 34.7379L92.2059 34.2963L92.0807 34.2298L91.9391 34.239L91.9714 34.7379ZM96.4148 52.6389L96.4254 53.1388L96.9148 53.1285V52.6389H96.4148ZM77.6106 53.0348L77.6001 52.5349H77.6001L77.6106 53.0348ZM77.5631 53.0358L77.5525 52.5359L77.4336 52.5384L77.3286 52.5942L77.5631 53.0358ZM77.5211 53.0581L77.7555 53.4997L77.7556 53.4997L77.5211 53.0581ZM73.7333 74.3854L74.0622 74.0088L73.7333 74.3854ZM84.7237 78.2348V78.7348H84.7458L84.7679 78.7328L84.7237 78.2348ZM84.7324 78.234L84.6885 77.7359L84.6882 77.7359L84.7324 78.234ZM88.1324 77.934L88.1764 78.4321H88.1764L88.1324 77.934ZM88.1821 77.9296L88.2261 78.4277L88.3504 78.4167L88.4549 78.3486L88.1821 77.9296ZM88.224 77.9024L87.9512 77.4833L87.9512 77.4833L88.224 77.9024ZM98.6462 71.1181L99.0791 70.868L98.8153 70.4114L98.3734 70.6991L98.6462 71.1181ZM103.199 76.1975L102.908 76.6044L103.199 76.1975ZM108.908 78.3346L108.926 77.835H108.926L108.908 78.3346ZM108.964 78.3366L108.946 78.8363L109.086 78.8413L109.208 78.7728L108.964 78.3366ZM109.013 78.3092L108.768 77.8731L108.768 77.8731L109.013 78.3092ZM122.213 70.9092L121.968 70.4731H121.968L122.213 70.9092ZM122.331 70.8426L122.576 71.2788L122.873 71.1124L122.827 70.7751L122.331 70.8426ZM122.313 70.7077L122.808 70.6402V70.6402L122.313 70.7077ZM121.713 66.3077L121.218 66.3753L121.713 66.3077ZM121.687 66.1197L122.183 66.0521L122.119 65.582L121.646 65.6214L121.687 66.1197ZM121.498 66.1355L121.54 66.6337H121.54L121.498 66.1355ZM119.103 66.3351L119.121 66.8347L119.133 66.8343L119.144 66.8333L119.103 66.3351ZM116.411 66.4348L116.411 66.9348L116.42 66.9348L116.43 66.9344L116.411 66.4348ZM114.684 65.8461L114.324 66.1927L114.324 66.1927L114.684 65.8461ZM114.115 64.0348H113.615H114.115ZM114.115 41.1348H114.615L114.615 41.1261L114.115 41.1348ZM114.115 41.1313L114.615 41.1226V41.1225L114.115 41.1313ZM113.762 36.3536L114.256 36.2756V36.2756L113.762 36.3536ZM112.888 33.4346L113.321 33.184L113.321 33.184L112.888 33.4346ZM112.883 33.4264L113.316 33.1758L113.304 33.1556L113.291 33.1365L112.883 33.4264ZM112.878 33.4187L113.285 33.1288L113.285 33.1286L112.878 33.4187ZM96.6188 58.7348L96.6088 59.2347L96.6188 58.7348ZM96.8148 58.7387H97.3148V58.2486L96.8248 58.2388L96.8148 58.7387ZM96.8148 66.4806L96.9676 66.9567L97.3148 66.8453V66.4806H96.8148ZM96.6759 66.5252L96.8286 67.0013L96.8287 67.0013L96.6759 66.5252ZM88.3281 68.4343L88.3614 68.9332H88.3614L88.3281 68.4343ZM88.2376 68.4404L87.884 68.7939L88.0445 68.9543L88.2708 68.9392L88.2376 68.4404ZM87.0721 61.5633L87.4915 61.8356V61.8356L87.0721 61.5633ZM87.4076 61.7812L86.9882 61.5089L87.4076 61.7812ZM88.3927 68.0288L88.0339 68.377L88.1965 68.5446L88.4293 68.5275L88.3927 68.0288ZM96.4148 66.1887L96.5667 66.6651L96.9148 66.5541V66.1887H96.4148ZM96.4148 59.1313H96.9148V58.6387L96.4222 58.6314L96.4148 59.1313ZM144.295 26.4325L144.649 26.0789L144.497 25.9267L144.282 25.9327L144.295 26.4325ZM144.356 26.4933L144.003 26.8469L144.003 26.8469L144.356 26.4933ZM144.209 26.4348L144.223 26.9346L144.209 26.4348ZM124.343 30.1479L124.522 30.615L124.343 30.1479ZM124.2 30.2027L124.022 29.7357L123.663 29.8727L123.703 30.2546L124.2 30.2027ZM124.216 30.3555L124.713 30.3037V30.3037L124.216 30.3555ZM124.716 35.1555L125.213 35.1037V35.1037L124.716 35.1555ZM124.731 35.3036L124.234 35.3554L124.273 35.7257L124.638 35.7949L124.731 35.3036ZM124.878 35.3313L124.971 34.84L124.971 34.84L124.878 35.3313ZM132.115 36.7005H132.615V36.2862L132.208 36.2092L132.115 36.7005ZM132.115 69.4929L132.281 69.9646L132.615 69.8471V69.4929H132.115ZM124.814 72.7618L124.563 72.3294L124.563 72.3294L124.814 72.7618ZM124.708 72.8235L124.457 72.3911L124.191 72.5453L124.209 72.852L124.708 72.8235ZM124.715 72.9462L124.216 72.9747V72.9747L124.715 72.9462ZM124.915 76.4462L125.414 76.4177V76.4176L124.915 76.4462ZM124.926 76.6348L124.427 76.6633L124.454 77.1348H124.926V76.6348ZM155.407 76.6348V77.1348H155.887L155.906 76.6552L155.407 76.6348ZM155.415 76.4429L154.915 76.4225V76.4225L155.415 76.4429ZM155.615 71.5429L156.114 71.5633V71.5633L155.615 71.5429ZM155.619 71.436L156.119 71.4564L156.13 71.189L155.913 71.0316L155.619 71.436ZM155.532 71.373L155.827 70.9687H155.827L155.532 71.373ZM149.815 68.205H149.315V68.529L149.611 68.6614L149.815 68.205ZM149.815 40.267L149.62 39.8065L149.315 39.9356V40.267H149.815ZM160.246 41.2668L160.668 40.9992V40.9992L160.246 41.2668ZM161.815 76.6348H161.315V77.1348H161.815V76.6348ZM185.203 76.6348V77.1348H185.673L185.702 76.6653L185.203 76.6348ZM185.214 76.447L184.715 76.4164V76.4165L185.214 76.447ZM185.514 71.547L186.014 71.5775V71.5775L185.514 71.547ZM185.521 71.4342L186.02 71.4648L186.038 71.183L185.805 71.0227L185.521 71.4342ZM185.428 71.3701L185.712 70.9585L185.712 70.9585L185.428 71.3701ZM179.514 68.1019L179.014 68.1036L179.016 68.4333L179.319 68.5621L179.514 68.1019ZM179.415 40.3619L179.205 39.9083L178.914 40.0432L178.915 40.3636L179.415 40.3619ZM190.046 41.2668L190.468 40.9992V40.9992L190.046 41.2668ZM191.615 76.6348H191.115V77.1348H191.615V76.6348ZM216.703 76.6348V77.1348H217.173L217.202 76.6653L216.703 76.6348ZM216.714 76.447L216.215 76.4164V76.4165L216.714 76.447ZM217.014 71.547L217.514 71.5775V71.5775L217.014 71.547ZM217.021 71.4342L217.52 71.4648L217.538 71.183L217.305 71.0227L217.021 71.4342ZM216.928 71.3701L217.212 70.9585L217.212 70.9585L216.928 71.3701ZM209.315 67.6936H208.815V68.046L209.147 68.1645L209.315 67.6936ZM209.315 43.2348H209.815L209.815 43.2294L209.315 43.2348ZM209.315 43.2319L209.815 43.2265L209.815 43.2249L209.315 43.2319ZM208.963 37.3836L209.459 37.3182V37.3182L208.963 37.3836ZM208.09 34.0384L208.528 33.7974L208.528 33.7968L208.09 34.0384ZM208.086 34.0318L208.524 33.7902L208.516 33.7744L208.506 33.7593L208.086 34.0318ZM208.082 34.0255L208.502 33.753L208.501 33.7524L208.082 34.0255ZM194.021 26.7349L194.037 26.2351L194.021 26.7349ZM193.987 26.7338L194.003 26.234L193.917 26.2313L193.835 26.2575L193.987 26.7338ZM193.954 26.7442L194.106 27.2205L194.106 27.2205L193.954 26.7442ZM178.792 35.1244L178.338 35.3339L178.599 35.8994L179.095 35.5224L178.792 35.1244ZM178.296 34.0509L177.842 34.2604L177.842 34.2605L178.296 34.0509ZM178.29 34.0377L178.744 33.8283L178.729 33.7951L178.709 33.7645L178.29 34.0377ZM178.282 34.0255L177.864 34.2986L177.864 34.2987L178.282 34.0255ZM164.221 26.7349L164.237 26.2351H164.237L164.221 26.7349ZM164.187 26.7338L164.203 26.234L164.119 26.2313L164.038 26.2567L164.187 26.7338ZM164.155 26.7439L164.305 27.221L164.305 27.221L164.155 26.7439ZM149.815 34.441H149.315V35.4226L150.109 34.8454L149.815 34.441ZM149.815 31.9519H150.315V31.7448L150.168 31.5983L149.815 31.9519ZM149.756 31.8933L149.403 32.2469L149.403 32.2469L149.756 31.8933ZM124.63 30.467L124.453 29.9994L124.092 30.1358L124.132 30.5188L124.63 30.467ZM125.098 34.9659L124.601 35.0177L124.64 35.388L125.005 35.4572L125.098 34.9659ZM144.134 26.8371L144.488 26.4835L144.335 26.3311L144.12 26.3373L144.134 26.8371ZM149.415 32.1176H149.915V31.9105L149.768 31.764L149.415 32.1176ZM149.415 35.2297H148.915V36.2171L149.711 35.6328L149.415 35.2297ZM149.733 34.996L149.437 34.5929V34.5929L149.733 34.996ZM164.242 27.1358L164.259 26.636L164.174 26.6332L164.092 26.6588L164.242 27.1358ZM177.939 34.2318L178.393 34.0223L178.378 33.989L178.358 33.9584L177.939 34.2318ZM178.533 35.5186L178.079 35.7281L178.533 35.5186ZM178.638 35.7455L178.184 35.955L178.446 36.5222L178.942 36.1425L178.638 35.7455ZM178.836 35.5936L178.532 35.1965L178.532 35.1965L178.836 35.5936ZM194.043 27.1358L194.059 26.6361L193.973 26.6332L193.89 26.6597L194.043 27.1358ZM207.743 34.2376L208.182 33.9978L208.173 33.9807L208.162 33.9643L207.743 34.2376ZM208.567 37.4359L209.062 37.3705L208.567 37.4359ZM208.915 43.2365H209.415L209.415 43.2295L208.915 43.2365ZM208.915 67.9761H208.415V68.3295L208.748 68.4474L208.915 67.9761ZM209.048 68.0233L209.215 67.552V67.552L209.048 68.0233ZM216.608 71.6357L217.107 71.6662L217.125 71.3824L216.89 71.2224L216.608 71.6357ZM216.327 76.2348V76.7348H216.797L216.826 76.2653L216.327 76.2348ZM192.015 76.2348H191.515V76.7348H192.015V76.2348ZM190.384 41.0527L190.806 40.7851L190.384 41.0527ZM179.13 40.0538L179.343 40.5062H179.343L179.13 40.0538ZM179.014 40.1081L178.801 39.6556L178.513 39.7913L178.514 40.1099L179.014 40.1081ZM179.015 40.2355L179.515 40.2337V40.2337L179.015 40.2355ZM179.115 68.2355L178.615 68.2373V68.2373L179.115 68.2355ZM179.115 68.368L178.615 68.3698L178.617 68.701L178.922 68.829L179.115 68.368ZM179.237 68.4192L179.044 68.8803L179.044 68.8803L179.237 68.4192ZM185.108 71.6355L185.607 71.666L185.625 71.3831L185.391 71.223L185.108 71.6355ZM184.827 76.2348V76.7348H185.297L185.326 76.2653L184.827 76.2348ZM162.215 76.2348H161.715V76.7348H162.215V76.2348ZM160.584 41.0527L160.161 41.3203V41.3203L160.584 41.0527ZM149.536 39.9509L149.339 39.4914L149.339 39.4914L149.536 39.9509ZM149.415 40.0029L149.218 39.5433L148.915 39.6732V40.0029H149.415ZM149.415 68.4647H148.915V68.7897L149.212 68.9216L149.415 68.4647ZM149.534 68.5175L149.737 68.0606L149.534 68.5175ZM155.211 71.6339L155.71 71.6543L155.721 71.3851L155.502 71.2278L155.211 71.6339ZM155.023 76.2348V76.7348H155.503L155.522 76.2551L155.023 76.2348ZM125.304 76.2348L124.805 76.2633L124.831 76.7348H125.304V76.2348ZM125.122 73.0463L124.872 72.6129L124.605 72.7667L124.622 73.0748L125.122 73.0463ZM132.381 69.8236L132.545 70.2957H132.545L132.381 69.8236ZM132.515 69.7768L132.68 70.2489L133.015 70.1319V69.7768H132.515ZM132.515 36.3691H133.015V35.9548L132.608 35.8778L132.515 36.3691ZM132.352 36.3382L132.259 36.8295V36.8295L132.352 36.3382ZM269.556 28.0805L269.658 28.57L269.556 28.0805ZM255.808 31.9752L255.63 31.508L255.326 31.6237L255.308 31.9482L255.808 31.9752ZM255.615 35.5402L255.116 35.5132L255.115 35.5267V35.5402L255.615 35.5402ZM257.456 46.7318L256.983 46.8957L257.103 47.2392L257.466 47.2317L257.456 46.7318ZM266.953 46.538L266.963 47.0379L267.357 47.0299L267.442 46.6446L266.953 46.538ZM269.319 35.6921L269.808 35.7987L269.808 35.7987L269.319 35.6921ZM269.342 35.5903L269.149 35.1287L268.909 35.229L268.853 35.4837L269.342 35.5903ZM269.438 35.5501L269.63 36.0117H269.63L269.438 35.5501ZM275.102 34.3352L275.134 34.8342L275.102 34.3352ZM275.158 34.3317L275.389 33.8884L275.266 33.824L275.127 33.8326L275.158 34.3317ZM275.207 34.3574L274.976 34.8007L274.976 34.8007L275.207 34.3574ZM279.915 53.0306L279.925 53.5305L280.415 53.5202V53.0306H279.915ZM279.719 53.0347L279.73 53.5346L279.719 53.0347ZM260.767 53.4337L260.756 52.9338L260.637 52.9363L260.531 52.9925L260.767 53.4337ZM257.096 74.0841L257.425 73.7076L257.096 74.0841ZM267.806 77.8348L267.806 78.3348L267.828 78.3348L267.85 78.3328L267.806 77.8348ZM271.148 77.5399L271.191 78.038L271.316 78.027L271.42 77.959L271.148 77.5399ZM281.706 70.6671L281.978 71.0862L281.979 71.0862L281.706 70.6671ZM281.885 70.5507L282.32 70.3056L282.059 69.8407L281.612 70.1317L281.885 70.5507ZM281.989 70.7367L282.425 70.4916V70.4916L281.989 70.7367ZM286.531 75.872L286.24 76.2789L286.531 75.872ZM291.966 77.9327L291.945 78.4323L292.087 78.4383L292.211 78.3689L291.966 77.9327ZM304.998 70.6269L305.243 71.063L305.54 70.8966L305.494 70.5593L304.998 70.6269ZM304.442 66.5498L304.938 66.4823L304.874 66.0122L304.401 66.0516L304.442 66.5498ZM302.231 66.7341L302.19 66.2358L302.19 66.2358L302.231 66.7341ZM302.222 66.7348L302.241 67.2345L302.252 67.2341L302.264 67.2331L302.222 66.7348ZM299.522 66.8346L299.504 66.335H299.504L299.522 66.8346ZM299.515 66.8349L299.515 67.3349H299.524L299.533 67.3346L299.515 66.8349ZM297.496 66.1234L297.856 65.7768V65.7768L297.496 66.1234ZM296.815 41.1365H297.315L297.315 41.1278L296.815 41.1365ZM296.467 36.416L296.961 36.338L296.961 36.338L296.467 36.416ZM295.646 33.643L296.08 33.3938L296.068 33.3726L296.053 33.3528L295.646 33.643ZM269.474 27.689L269.576 28.1784L269.474 27.689ZM295.978 33.4187L296.385 33.1288L296.385 33.1286L295.978 33.4187ZM295.983 33.4264L296.416 33.1755L296.404 33.1554L296.391 33.1365L295.983 33.4264ZM295.988 33.4346L296.421 33.184L296.42 33.1837L295.988 33.4346ZM296.862 36.3536L296.368 36.4315L296.368 36.4315L296.862 36.3536ZM297.215 41.1313L297.715 41.1226L297.715 41.1225L297.215 41.1313ZM297.215 41.1348H297.715L297.715 41.1261L297.215 41.1348ZM297.215 64.0348H296.715H297.215ZM297.784 65.8461L298.144 65.4996V65.4996L297.784 65.8461ZM299.511 66.4348L299.511 66.9348L299.52 66.9348L299.53 66.9344L299.511 66.4348ZM302.203 66.3351L302.221 66.8347L302.233 66.8343L302.244 66.8333L302.203 66.3351ZM304.598 66.1355L304.64 66.6337L304.598 66.1355ZM304.787 66.1197L305.283 66.0522L305.219 65.582L304.746 65.6214L304.787 66.1197ZM304.813 66.3077L304.318 66.3753V66.3753L304.813 66.3077ZM305.413 70.7077L304.918 70.7753V70.7753L305.413 70.7077ZM305.431 70.8426L305.676 71.2788L305.973 71.1124L305.927 70.7751L305.431 70.8426ZM305.313 70.9092L305.068 70.4731L305.068 70.4731L305.313 70.9092ZM292.113 78.3092L291.868 77.8731L291.868 77.8731L292.113 78.3092ZM292.064 78.3366L292.046 78.8363L292.186 78.8413L292.308 78.7727L292.064 78.3366ZM292.008 78.3346L292.026 77.835H292.026L292.008 78.3346ZM286.299 76.1975L286.589 75.7906L286.299 76.1975ZM281.746 71.1181L282.179 70.868L281.915 70.4114L281.473 70.6991L281.746 71.1181ZM271.324 77.9024L271.597 78.3215L271.597 78.3214L271.324 77.9024ZM271.282 77.9296L271.326 78.4277L271.45 78.4167L271.555 78.3487L271.282 77.9296ZM271.232 77.934L271.276 78.4321L271.232 77.934ZM267.832 78.234L267.788 77.7359L267.788 77.7359L267.832 78.234ZM267.824 78.2348V78.7348H267.846L267.868 78.7328L267.824 78.2348ZM256.833 74.3854L257.162 74.0088L256.833 74.3854ZM260.621 53.0581L260.387 52.6165L260.387 52.6165L260.621 53.0581ZM260.663 53.0358L260.652 52.5359L260.534 52.5384L260.429 52.5942L260.663 53.0358ZM260.711 53.0348L260.7 52.5349H260.7L260.711 53.0348ZM279.515 52.6389L279.525 53.1388L280.015 53.1285V52.6389H279.515ZM275.071 34.7379L275.306 34.2963L275.181 34.2298L275.039 34.239L275.071 34.7379ZM269.688 35.8798L269.499 35.4167L269.256 35.516L269.199 35.7732L269.688 35.8798ZM267.31 46.7774L266.822 46.6708L266.822 46.6709L267.31 46.7774ZM267.277 46.9315L267.287 47.4314L267.681 47.4234L267.765 47.038L267.277 46.9315ZM267.119 46.9347L267.129 47.4346L267.119 46.9347ZM257.319 47.1347L257.329 47.6346L257.319 47.1347ZM257.174 47.1377L256.703 47.3036L256.823 47.645L257.184 47.6376L257.174 47.1377ZM257.126 47.0011L257.598 46.8352V46.8352L257.126 47.0011ZM255.215 35.524L255.241 35.0246L254.715 34.9969V35.524H255.215ZM255.215 35.524L255.189 36.0233L255.687 36.0495L255.714 35.551L255.215 35.524ZM255.415 31.824L254.916 31.797V31.797L255.415 31.824ZM255.422 31.6944L255.243 31.2276L254.94 31.3437L254.923 31.6674L255.422 31.6944ZM255.543 31.648L255.364 31.1811L255.364 31.1811L255.543 31.648ZM272.125 59.9059L272.349 60.3531V60.3531L272.125 59.9059ZM279.719 58.7348L279.709 59.2347H279.709L279.719 58.7348ZM270.172 61.5633L269.753 61.291V61.291L270.172 61.5633ZM271.273 68.3762L271.627 68.0227L271.627 68.0226L271.273 68.3762ZM271.338 68.4404L270.984 68.7938L271.144 68.9543L271.371 68.9392L271.338 68.4404ZM271.428 68.4343L271.461 68.9332H271.461L271.428 68.4343ZM279.776 66.5252L279.929 67.0013H279.929L279.776 66.5252ZM279.915 66.4806L280.068 66.9567L280.415 66.8453V66.4806H279.915ZM279.915 58.7387H280.415V58.2486L279.925 58.2388L279.915 58.7387ZM270.508 61.7812L270.088 61.5089V61.5089L270.508 61.7812ZM272.304 60.2636L272.081 59.8164V59.8164L272.304 60.2636ZM279.515 59.1313H280.015V58.6387L279.522 58.6314L279.515 59.1313ZM279.515 66.1887L279.667 66.6651L280.015 66.5541V66.1887H279.515ZM271.493 68.0288L271.134 68.377L271.296 68.5446L271.529 68.5275L271.493 68.0288ZM16.4659 0.443175L16.5759 0.500666L17.0389 -0.385683L16.9289 -0.443175L16.4659 0.443175ZM16.8915 0.477204L16.9919 0.404071L16.4029 -0.404071L16.3025 -0.330938L16.8915 0.477204ZM7.08106 12.3731C9.73035 7.27317 13.0021 3.31187 16.8915 0.477205L16.3025 -0.330939C12.2667 2.61045 8.9009 6.70062 6.19365 11.9121L7.08106 12.3731ZM7.01973 12.4911L7.08106 12.3731L6.19365 11.9121L6.13233 12.0301L7.01973 12.4911ZM7.0453 12.0427L6.96014 11.9405L6.19192 12.5807L6.27708 12.6829L7.0453 12.0427ZM18.8378 21.0611C14.2807 19.0137 10.3505 16.0089 7.0453 12.0427L6.27708 12.6829C9.67623 16.7619 13.7277 19.8616 18.428 21.9733L18.8378 21.0611ZM18.9427 21.1083L18.8378 21.0611L18.428 21.9733L18.5329 22.0204L18.9427 21.1083ZM18.5401 21.0909L18.4466 21.1579L19.0291 21.9708L19.1226 21.9037L18.5401 21.0909ZM27.7465 10.3006C25.5683 14.657 22.5005 18.2526 18.5401 21.0909L19.1226 21.9037C23.2151 18.9708 26.39 15.2497 28.6409 10.7478L27.7465 10.3006ZM27.7992 10.1951L27.7465 10.3006L28.6409 10.7478L28.6937 10.6424L27.7992 10.1951ZM27.7675 10.6046L27.8342 10.7018L28.6586 10.1357L28.5919 10.0386L27.7675 10.6046ZM16.5759 0.500666C20.9959 2.80963 24.7264 6.17517 27.7675 10.6046L28.5919 10.0386C25.4655 5.48485 21.6146 2.00456 17.0389 -0.385683L16.5759 0.500666ZM16.436 0.0671088C12.5344 2.93784 9.26097 6.91155 6.61086 11.9771L7.49693 12.4406C10.0895 7.4851 13.2703 3.63789 17.0287 0.872571L16.436 0.0671088ZM28.1943 10.1664C25.14 5.74804 21.3972 2.36619 16.9657 0.0276356L16.499 0.912044C20.7777 3.16999 24.4019 6.43897 27.3717 10.7351L28.1943 10.1664ZM18.9846 21.5103C22.946 18.6492 26.0284 15.0368 28.2294 10.676L27.3366 10.2255C25.2078 14.4433 22.2308 17.9322 18.3991 20.6996L18.9846 21.5103ZM6.67095 12.5303C9.98876 16.4823 13.9274 19.4935 18.4853 21.5603L18.8983 20.6496C14.4809 18.6465 10.6617 15.7286 7.43683 11.8874L6.67095 12.5303ZM361.931 41.3348C361.931 42.6678 362.416 43.8814 363.353 44.9623L364.108 44.3073C363.312 43.3882 362.931 42.4019 362.931 41.3348H361.931ZM366.287 36.6559C364.905 37.0705 363.816 37.6554 363.068 38.44C362.31 39.2365 361.931 40.2113 361.931 41.3348H362.931C362.931 40.4583 363.218 39.7332 363.793 39.1296C364.379 38.5143 365.29 37.9991 366.574 37.6137L366.287 36.6559ZM371.085 37.1377L366.485 36.6377L366.376 37.6319L370.977 38.1319L371.085 37.1377ZM374.604 46.5736L371.504 37.4736L370.557 37.796L373.657 46.896L374.604 46.5736ZM382.931 46.2348H374.131V47.2348H382.931V46.2348ZM384.131 36.2348C384.131 39.6461 383.573 43.0946 382.454 46.5821L383.407 46.8875C384.555 43.3083 385.131 39.7568 385.131 36.2348H384.131ZM383.931 32.7633L384.131 36.2633L385.13 36.2063L384.93 32.7063L383.931 32.7633ZM368.931 29.9348C374.938 29.9348 380.022 31.0241 384.201 33.1792L384.66 32.2904C380.306 30.0455 375.056 28.9348 368.931 28.9348V29.9348ZM353.22 34.2426C357.247 31.3845 362.471 29.9348 368.931 29.9348V28.9348C362.323 28.9348 356.881 30.4185 352.641 33.4271L353.22 34.2426ZM347.331 45.1348C347.331 40.643 349.274 37.0238 353.219 34.2435L352.642 33.4261C348.453 36.3792 346.331 40.2933 346.331 45.1348H347.331ZM349.926 52.7294C348.194 50.4831 347.331 47.9571 347.331 45.1348H346.331C346.331 48.1792 347.267 50.9198 349.135 53.3402L349.926 52.7294ZM360.261 59.9911C355.141 57.3312 351.716 54.9024 349.916 52.717L349.145 53.3527C351.078 55.7006 354.654 58.2051 359.8 60.8785L360.261 59.9911ZM369.596 65.4937C369.073 64.9336 368.013 64.2011 366.484 63.3036C364.937 62.3955 362.859 61.2899 360.254 59.9876L359.807 60.882C362.402 62.1797 364.458 63.2741 365.977 64.166C367.515 65.0685 368.454 65.736 368.865 66.176L369.596 65.4937ZM371.231 69.2348C371.231 67.8195 370.666 66.5631 369.584 65.4813L368.877 66.1884C369.795 67.1066 370.231 68.1168 370.231 69.2348H371.231ZM369.263 73.3085C370.552 72.1624 371.231 70.7993 371.231 69.2348H370.231C370.231 70.4703 369.709 71.5739 368.598 72.5611L369.263 73.3085ZM350.625 63.331C356.463 67.8262 362.508 71.1866 368.763 73.406L369.098 72.4636C362.953 70.2831 356.999 66.9768 351.236 62.5387L350.625 63.331ZM345.689 76.2343L351.389 63.1343L350.472 62.7353L344.772 75.8353L345.689 76.2343ZM366.131 80.9348C359.22 80.9348 352.331 79.1585 345.461 75.5911L345 76.4786C351.996 80.1112 359.041 81.9348 366.131 81.9348V80.9348ZM380.726 76.7382C377.104 79.5193 372.255 80.9348 366.131 80.9348V81.9348C372.406 81.9348 377.49 80.4837 381.335 77.5314L380.726 76.7382ZM386.131 65.9348C386.131 70.3065 384.341 73.8979 380.722 76.7417L381.339 77.528C385.187 74.5051 387.131 70.6298 387.131 65.9348H386.131ZM383.44 58.2472C385.236 60.4915 386.131 63.0479 386.131 65.9348H387.131C387.131 62.8218 386.159 60.0448 384.221 57.6225L383.44 58.2472ZM372.802 50.6798C378.122 53.406 381.639 55.932 383.436 58.2418L384.225 57.6278C382.288 55.1377 378.606 52.5303 373.259 49.7898L372.802 50.6798ZM363.364 44.975C363.853 45.5013 364.906 46.2347 366.448 47.1632C368.01 48.1037 370.128 49.2755 372.798 50.6775L373.263 49.7921C370.6 48.3941 368.501 47.2326 366.963 46.3065C365.405 45.3682 364.475 44.7016 364.097 44.2946L363.364 44.975ZM454.686 73.2979L441.386 80.6979L441.872 81.5717L455.172 74.1717L454.686 73.2979ZM453.834 69.4024L454.434 73.8024L455.424 73.6673L454.824 69.2673L453.834 69.4024ZM451.869 70.0332L454.369 69.8332L454.289 68.8364L451.789 69.0364L451.869 70.0332ZM449.248 70.1344L451.848 70.0344L451.81 69.0352L449.21 69.1352L449.248 70.1344ZM446.229 67.0348C446.229 67.9738 446.454 68.7706 446.994 69.3314C447.536 69.8957 448.313 70.1348 449.229 70.1348V69.1348C448.478 69.1348 448.005 68.9406 447.714 68.6383C447.42 68.3323 447.229 67.8292 447.229 67.0348H446.229ZM446.229 34.4348V67.0348H447.229V34.4348H446.229ZM440.997 30.0085L446.397 34.8085L447.061 34.0611L441.661 29.2611L440.997 30.0085ZM423.515 33.4991C428.784 31.3914 434.723 30.267 441.339 30.1347L441.319 29.1349C434.602 29.2693 428.541 30.4116 423.143 32.5706L423.515 33.4991ZM424.326 37.783L423.826 32.983L422.832 33.0866L423.332 37.8866L424.326 37.783ZM429.55 38.7497L423.95 37.3497L423.708 38.3199L429.308 39.7199L429.55 38.7497ZM429.929 67.8348V39.2348H428.929V67.8348H429.929ZM423.429 69.6348C425.568 69.6348 427.638 69.1858 429.633 68.2911L429.224 67.3786C427.354 68.2171 425.423 68.6348 423.429 68.6348V69.6348ZM416.629 60.8348C416.629 63.6505 417.161 65.8537 418.306 67.3621C419.47 68.8965 421.209 69.6348 423.429 69.6348V68.6348C421.449 68.6348 420.038 67.9898 419.102 66.7575C418.147 65.4992 417.629 63.5525 417.629 60.8348H416.629ZM416.629 34.4348V60.8348H417.629V34.4348H416.629ZM411.397 30.0085L416.797 34.8085L417.461 34.0611L412.061 29.2611L411.397 30.0085ZM392.107 33.8019C397.981 31.558 404.524 30.3333 411.743 30.1346L411.715 29.135C404.4 29.3363 397.743 30.5783 391.751 32.8677L392.107 33.8019ZM392.926 38.083L392.426 33.283L391.432 33.3866L391.932 38.1866L392.926 38.083ZM399.922 39.0435L392.522 37.6435L392.336 38.6261L399.736 40.0261L399.922 39.0435ZM400.329 64.2348V39.5348H399.329V64.2348H400.329ZM400.628 69.9085L400.328 64.2085L399.33 64.2611L399.63 69.9611L400.628 69.9085ZM405.519 77.5273C402.615 75.4625 401.005 72.9135 400.625 69.8728L399.633 69.9968C400.053 73.3561 401.843 76.1404 404.939 78.3423L405.519 77.5273ZM414.929 80.6348C411.641 80.6348 408.506 79.6054 405.514 77.5244L404.943 78.3453C408.085 80.5309 411.417 81.6348 414.929 81.6348V80.6348ZM430.726 72.2372C425.432 76.2739 420.119 79.0756 414.787 80.6554L415.071 81.6142C420.539 79.994 425.96 77.1291 431.332 73.0324L430.726 72.2372ZM436.04 78.2431C434.171 76.7612 432.649 74.823 431.479 72.4161L430.579 72.8535C431.808 75.38 433.42 77.4417 435.418 79.0266L436.04 78.2431ZM441.663 80.636C439.854 80.5112 437.978 79.7293 436.033 78.238L435.425 79.0316C437.48 80.607 439.538 81.4918 441.595 81.6336L441.663 80.636ZM490.608 79.5348C488.241 79.5348 485.907 79.3047 483.606 78.8445L483.41 79.8251C485.776 80.2983 488.175 80.5348 490.608 80.5348V79.5348ZM508.645 72.1911C504.015 77.0814 498.018 79.5348 490.608 79.5348V80.5348C498.264 80.5348 504.534 77.9883 509.371 72.8785L508.645 72.1911ZM515.608 53.3348C515.608 61.0253 513.278 67.2965 508.645 72.1911L509.371 72.8785C514.204 67.7732 516.608 61.2443 516.608 53.3348H515.608ZM510.418 37.0479C513.868 41.3437 515.608 46.7605 515.608 53.3348H516.608C516.608 46.5758 514.815 40.926 511.198 36.4217L510.418 37.0479ZM497.408 30.5348C502.714 30.5348 507.037 32.6919 510.413 37.0414L511.203 36.4282C507.645 31.8444 503.035 29.5348 497.408 29.5348V30.5348ZM494.052 30.8329L497.452 30.5329L497.364 29.5367L493.964 29.8367L494.052 30.8329ZM483.806 38.5362L494.306 30.7362L493.71 29.9334L483.21 37.7334L483.806 38.5362ZM483.008 34.4348V38.1348H484.008V34.4348H483.008ZM477.876 30.1089L483.176 34.8089L483.84 34.0607L478.54 29.3607L477.876 30.1089ZM477.708 29.6348V29.7348H478.708V29.6348H477.708ZM458.586 33.8019C464.46 31.558 471.003 30.3333 478.222 30.1346L478.194 29.135C470.879 29.3363 464.222 30.5783 458.229 32.8677L458.586 33.8019ZM459.405 38.083L458.905 33.283L457.911 33.3866L458.411 38.1866L459.405 38.083ZM466.302 39.0438L459.002 37.6438L458.814 38.6259L466.114 40.0259L466.302 39.0438ZM466.708 93.5348V39.5348H465.708V93.5348H466.708ZM459.791 96.6L466.391 94L466.025 93.0696L459.425 95.6696L459.791 96.6ZM460.307 99.6063L460.107 96.1063L459.109 96.1633L459.309 99.6633L460.307 99.6063ZM492.808 99.1348H459.808V100.135H492.808V99.1348ZM492.508 94.7144L492.308 99.6144L493.307 99.6552L493.507 94.7552L492.508 94.7144ZM483.322 90.8991C487.314 92.4957 490.46 93.9208 492.769 95.1742L493.246 94.2954C490.889 93.0155 487.702 91.574 483.694 89.9706L483.322 90.8991ZM483.008 79.3348V90.4348H484.008V79.3348H483.008ZM488.308 41.6348C486.75 41.6348 485.078 42.0593 483.298 42.8808L483.717 43.7888C485.404 43.0103 486.932 42.6348 488.308 42.6348V41.6348ZM495.638 46.0791C493.893 43.1478 491.44 41.6348 488.308 41.6348V42.6348C491.043 42.6348 493.19 43.9218 494.778 46.5906L495.638 46.0791ZM498.208 56.2348C498.208 52.2955 497.358 48.9011 495.635 46.0745L494.781 46.5951C496.391 49.2352 497.208 52.4408 497.208 56.2348H498.208ZM496.576 65.2092C497.663 62.2878 498.208 59.2955 498.208 56.2348H497.208C497.208 59.1741 496.686 62.0485 495.639 64.8604L496.576 65.2092ZM492.454 71.9955C494.19 70.3287 495.56 68.0557 496.579 65.203L495.637 64.8666C494.656 67.6139 493.359 69.7409 491.762 71.2741L492.454 71.9955ZM483.379 71.2179C486.426 72.0304 489.349 72.3381 492.144 72.1335L492.071 71.1361C489.4 71.3316 486.59 71.0392 483.637 70.2517L483.379 71.2179ZM483.008 43.3348V70.7348H484.008V43.3348H483.008ZM563.068 56.0348L537.868 55.8348L537.86 56.8348L563.06 57.0348L563.068 56.0348ZM568.511 50.3813L562.711 56.1813L563.418 56.8884L569.218 51.0884L568.511 50.3813ZM562.52 35.6972C566.471 39.4544 568.43 44.4469 568.364 50.7296L569.364 50.74C569.432 44.2227 567.39 38.9486 563.209 34.9725L562.52 35.6972ZM547.064 29.9348C553.421 29.9348 558.557 31.8641 562.517 35.6942L563.212 34.9754C559.038 30.9389 553.64 28.9348 547.064 28.9348V29.9348ZM529.325 37.5814C534.232 32.4771 540.137 29.9348 547.064 29.9348V28.9348C539.858 28.9348 533.696 31.5925 528.604 36.8883L529.325 37.5814ZM522.064 56.0348C522.064 48.7583 524.485 42.6175 529.325 37.5813L528.604 36.8884C523.577 42.1188 521.064 48.5113 521.064 56.0348H522.064ZM529.21 73.5739C524.45 69.0094 522.064 63.177 522.064 56.0348H521.064C521.064 63.4259 523.545 69.5269 528.518 74.2957L529.21 73.5739ZM547.364 80.4348C540.079 80.4348 534.039 78.1422 529.208 73.5716L528.521 74.298C533.555 79.0608 539.849 81.4348 547.364 81.4348V80.4348ZM551.932 80.1359L547.332 80.4359L547.397 81.4338L551.997 81.1338L551.932 80.1359ZM567.418 71.2998L551.718 80.1998L552.211 81.0698L567.911 72.1698L567.418 71.2998ZM564.706 66.2356L567.206 71.9356L568.122 71.534L565.622 65.834L564.706 66.2356ZM552.464 70.3348C556.109 70.3348 560.425 69.0306 565.393 66.4796L564.936 65.59C560.037 68.1057 555.885 69.3348 552.464 69.3348V70.3348ZM542.135 66.7111C544.904 69.1345 548.36 70.3348 552.464 70.3348V69.3348C548.569 69.3348 545.357 68.2018 542.793 65.9585L542.135 66.7111ZM537.367 56.3883C537.843 60.8128 539.417 64.2722 542.13 66.7069L542.798 65.9627C540.311 63.7308 538.818 60.5235 538.361 56.2813L537.367 56.3883ZM544.099 37.3108C540.732 39.4155 538.65 43.2422 537.771 48.6546L538.758 48.815C539.611 43.5607 541.597 40.0541 544.629 38.1588L544.099 37.3108ZM550.555 40.5225C548.876 38.4245 546.812 37.3066 544.379 37.235L544.349 38.2346C546.449 38.2964 548.252 39.2451 549.774 41.1472L550.555 40.5225ZM553.759 47.7624C553.346 44.9431 552.277 42.5195 550.543 40.5083L549.785 41.1613C551.385 43.0167 552.382 45.2598 552.769 47.9072L553.759 47.7624ZM538.294 49.2339L553.294 48.3339L553.234 47.3357L538.234 48.2357L538.294 49.2339ZM597.69 46.6348V70.3348H598.69V46.6348H597.69ZM599.394 45.1316L597.894 46.2316L598.486 47.038L599.986 45.938L599.394 45.1316ZM610.711 51.2512C606.238 47.5131 602.574 45.3915 599.752 45.0387L599.628 46.031C602.139 46.3448 605.608 48.2899 610.069 52.0185L610.711 51.2512ZM621.498 36.8241L609.998 51.3241L610.782 51.9455L622.282 37.4455L621.498 36.8241ZM616.936 31.9658C619.106 33.242 620.594 35.0179 621.42 37.3046L622.36 36.965C621.453 34.4517 619.807 32.4943 617.443 31.1038L616.936 31.9658ZM609.89 30.0348C612.469 30.0348 614.812 30.6782 616.931 31.9624L617.449 31.1072C615.168 29.7247 612.644 29.0348 609.89 29.0348V30.0348ZM606.248 30.5092C607.18 30.1986 608.388 30.0348 609.89 30.0348V29.0348C608.325 29.0348 607 29.2043 605.932 29.5605L606.248 30.5092ZM598.564 39.2667L606.464 30.3667L605.716 29.7029L597.816 38.6029L598.564 39.2667ZM597.69 37.1348V38.9348H598.69V37.1348H597.69ZM592.384 29.927L597.784 37.427L598.596 36.8427L593.196 29.3427L592.384 29.927ZM573.168 33.8019C579.042 31.558 585.585 30.3333 592.804 30.1346L592.776 29.135C585.461 29.3363 578.804 30.5783 572.811 32.8677L573.168 33.8019ZM573.987 38.083L573.487 33.283L572.493 33.3866L572.993 38.1866L573.987 38.083ZM580.983 39.0435L573.583 37.6435L573.397 38.6261L580.797 40.0261L580.983 39.0435ZM581.39 72.6348V39.5348H580.39V72.6348H581.39ZM573.741 76.3672C575.774 75.1868 578.21 74.0991 581.055 73.1069L580.725 72.1627C577.836 73.1705 575.339 74.2829 573.239 75.5024L573.741 76.3672ZM574.189 79.4063L573.989 75.9063L572.991 75.9633L573.191 79.4633L574.189 79.4063ZM608.89 78.9348H573.69V79.9348H608.89V78.9348ZM608.59 74.5144L608.39 79.4144L609.389 79.4552L609.589 74.5552L608.59 74.5144ZM598.074 70.8211C602.507 71.8799 606.086 73.2634 608.827 74.9599L609.353 74.1097C606.494 72.3396 602.806 70.9231 598.306 69.8485L598.074 70.8211ZM21.4799 26.1116L21.4207 26.0589L20.7563 26.8064L20.8155 26.859L21.4799 26.1116ZM26.8799 30.9116L21.4799 26.1116L20.8155 26.859L26.2155 31.659L26.8799 30.9116ZM26.947 30.9712L26.8799 30.9116L26.2155 31.659L26.2827 31.7187L26.947 30.9712ZM27.1148 31.4348V31.3449H26.1148V31.4348H27.1148ZM27.1148 67.8919V31.4348H26.1148V67.8919H27.1148ZM34.0217 70.9651C32.1137 69.6023 29.6932 68.4238 26.7777 67.4192L26.4519 68.3646C29.3056 69.3479 31.6325 70.4875 33.4405 71.7789L34.0217 70.9651ZM34.1097 71.028L34.0217 70.9652L33.4404 71.7789L33.5284 71.8417L34.1097 71.028ZM34.3143 71.5633L34.3187 71.4553L33.3195 71.4145L33.3151 71.5225L34.3143 71.5633ZM34.1143 76.4633L34.3143 71.5633L33.3151 71.5225L33.1151 76.4225L34.1143 76.4633ZM34.1064 76.6552L34.1143 76.4633L33.1151 76.4225L33.1073 76.6144L34.1064 76.6552ZM33.4148 77.1348H33.6068V76.1348H33.4148V77.1348ZM1.71483 77.1348H33.4148V76.1348H1.71483V77.1348ZM1.52594 77.1348H1.71483V76.1348H1.52594V77.1348ZM1.01597 76.4747L1.02675 76.6633L2.02512 76.6062L2.01435 76.4176L1.01597 76.4747ZM0.815975 72.9747L1.01597 76.4747L2.01435 76.4176L1.81435 72.9176L0.815975 72.9747ZM0.808911 72.8511L0.815975 72.9747L1.81435 72.9176L1.80728 72.794L0.808911 72.8511ZM1.16752 72.327L1.06001 72.3884L1.55618 73.2567L1.66369 73.1952L1.16752 72.327ZM8.75189 68.9192C6.03168 69.8569 3.50308 70.9924 1.16754 72.327L1.66368 73.1952C3.94121 71.8938 6.41233 70.7834 9.07778 69.8646L8.75189 68.9192ZM8.41483 36.7005V69.3919H9.41483V36.7005H8.41483ZM1.58471 35.8226L8.82189 37.1918L9.00778 36.2092L1.7706 34.84L1.58471 35.8226ZM1.4384 35.7949L1.58472 35.8226L1.7706 34.84L1.62428 34.8123L1.4384 35.7949ZM1.0186 35.2073L1.03403 35.3554L2.02865 35.2518L2.01322 35.1037L1.0186 35.2073ZM0.518602 30.4073L1.0186 35.2073L2.01322 35.1037L1.51322 30.3037L0.518602 30.4073ZM0.502691 30.2545L0.518602 30.4073L1.51322 30.3037L1.49731 30.1509L0.502691 30.2545ZM0.965026 29.6809L0.821565 29.7357L1.17844 30.6698L1.3219 30.615L0.965026 29.6809ZM20.9956 25.935C13.6612 26.1369 6.98192 27.3823 0.965027 29.6809L1.3219 30.615C7.21946 28.362 13.7854 27.1339 21.0231 26.9346L20.9956 25.935ZM21.0748 25.9328L20.9956 25.935L21.0231 26.9346L21.1023 26.9325L21.0748 25.9328ZM2.39564 34.9141L1.927 30.4152L0.932386 30.5188L1.40102 35.0177L2.39564 34.9141ZM9.24496 35.847L1.99128 34.4746L1.80538 35.4572L9.05907 36.8295L9.24496 35.847ZM9.40778 35.8778L9.24496 35.847L9.05907 36.8295L9.22189 36.8603L9.40778 35.8778ZM9.81484 36.5348V36.3691H8.81484V36.5348H9.81484ZM9.81484 69.5348V36.5348H8.81484V69.5348H9.81484ZM9.81484 69.6778V69.5348H8.81484V69.6778H9.81484ZM9.34102 70.1972L9.47639 70.151L9.15328 69.2046L9.01791 69.2508L9.34102 70.1972ZM1.9683 73.4821C4.23109 72.1984 6.68813 71.1031 9.34104 70.1972L9.01789 69.2509C6.31027 70.1754 3.79574 71.2957 1.47488 72.6123L1.9683 73.4821ZM2.40292 76.2062L2.22077 73.0187L1.2224 73.0757L1.40455 76.2633L2.40292 76.2062ZM33.2228 75.7348H1.90373V76.7348H33.2228V75.7348ZM32.911 71.6147L32.7233 76.2144L33.7224 76.2551L33.9102 71.6554L32.911 71.6147ZM26.189 68.6973C29.033 69.6669 31.3384 70.7858 33.1225 72.0437L33.6987 71.2264C31.8151 69.8983 29.417 68.7413 26.5116 67.7508L26.189 68.6973ZM26.0535 68.6512L26.189 68.6973L26.5116 67.7508L26.3761 67.7046L26.0535 68.6512ZM25.7148 68.0348V68.1779H26.7148V68.0348H25.7148ZM25.7148 31.5246V68.0348H26.7148V31.5246H25.7148ZM20.609 27.2106L25.8827 31.8983L26.547 31.1509L21.2734 26.4632L20.609 27.2106ZM1.6067 30.9347C7.39864 28.7423 13.8457 27.5399 20.9555 27.3367L20.9269 26.3371C13.7215 26.543 7.16249 27.7624 1.25269 29.9994L1.6067 30.9347ZM98.6148 25.9348C95.7168 25.9348 91.6261 26.4899 86.3535 27.5911L86.558 28.57C91.8109 27.4728 95.8213 26.9348 98.6148 26.9348V25.9348ZM112.954 33.3528C109.432 28.413 104.643 25.9348 98.6148 25.9348V26.9348C104.317 26.9348 108.803 29.2546 112.139 33.9333L112.954 33.3528ZM113.861 36.338C113.66 35.0636 113.371 34.0741 112.98 33.3937L112.113 33.8923C112.414 34.4158 112.679 35.2638 112.873 36.4939L113.861 36.338ZM114.215 41.1277C114.181 39.2206 114.064 37.6228 113.861 36.338L112.873 36.4939C113.067 37.7169 113.182 39.2647 113.215 41.1453L114.215 41.1277ZM114.215 64.0348V41.1365H113.215V64.0348H114.215ZM114.756 65.7768C114.413 65.42 114.215 64.8582 114.215 64.0348H113.215C113.215 65.0025 113.447 65.8582 114.035 66.4699L114.756 65.7768ZM116.415 66.3348C115.631 66.3348 115.097 66.1314 114.756 65.7768L114.035 66.4699C114.628 67.0868 115.467 67.3348 116.415 67.3348V66.3348ZM116.915 66.8349V66.8348H115.915V66.8349H116.915ZM116.404 66.335L116.396 66.3352L116.433 67.3346L116.441 67.3343L116.404 66.335ZM119.104 66.235L116.404 66.335L116.441 67.3343L119.141 67.2343L119.104 66.235ZM119.622 66.7348V66.7346H118.622V66.7348H119.622ZM119.09 66.2358L119.081 66.2366L119.164 67.2331L119.173 67.2323L119.09 66.2358ZM121.301 66.0516L119.09 66.2358L119.173 67.2323L121.384 67.0481L121.301 66.0516ZM122.394 70.5593L121.838 66.4823L120.847 66.6174L121.403 70.6944L122.394 70.5593ZM109.111 78.3689L122.143 71.063L121.654 70.1907L108.622 77.4966L109.111 78.3689ZM103.14 76.2789C105.025 77.6247 106.927 78.3505 108.845 78.4323L108.888 77.4332C107.203 77.3614 105.484 76.724 103.722 75.4651L103.14 76.2789ZM98.4534 70.9818C99.6735 73.1509 101.236 74.9183 103.14 76.2789L103.722 75.4651C101.944 74.1954 100.478 72.5416 99.325 70.4916L98.4534 70.9818ZM98.3488 70.7959L98.4534 70.9818L99.325 70.4916L99.2204 70.3056L98.3488 70.7959ZM98.8785 71.0862L99.0573 70.9698L98.5118 70.1317L98.333 70.2481L98.8785 71.0862ZM88.3203 77.959L98.8785 71.0862L98.333 70.2481L87.7748 77.1209L88.3203 77.959ZM84.75 78.3328L88.0915 78.038L88.0036 77.0419L84.6621 77.3367L84.75 78.3328ZM73.6675 74.4607C76.627 77.0461 80.3136 78.333 84.7059 78.3348L84.7063 77.3348C80.5235 77.3331 77.0798 76.1138 74.3254 73.7076L73.6675 74.4607ZM69.2148 65.0348C69.2148 68.728 70.7074 71.8749 73.6675 74.4607L74.3254 73.7076C71.5655 71.2967 70.2148 68.4173 70.2148 65.0348H69.2148ZM77.4314 52.9925C71.9874 55.8958 69.2148 59.9108 69.2148 65.0348H70.2148C70.2148 60.3679 72.6982 56.65 77.902 53.8749L77.4314 52.9925ZM96.6085 52.5348L77.6562 52.9338L77.6772 53.9336L96.6296 53.5346L96.6085 52.5348ZM96.8043 52.5307L96.6085 52.5348L96.6296 53.5346L96.8254 53.5305L96.8043 52.5307ZM96.3148 52.8348V53.0306H97.3148V52.8348H96.3148ZM96.3148 44.6348V52.8348H97.3148V44.6348H96.3148ZM91.8761 34.8007C94.7996 36.3261 96.3148 39.5528 96.3148 44.6348H97.3148C97.3148 39.3813 95.7392 35.6883 92.3386 33.9142L91.8761 34.8007ZM91.8267 34.775L91.8761 34.8007L92.3386 33.9141L92.2892 33.8884L91.8267 34.775ZM92.0336 34.8342L92.0892 34.8307L92.0268 33.8326L91.9712 33.8361L92.0336 34.8342ZM86.5302 36.0117C88.0933 35.3604 89.926 34.9659 92.0336 34.8342L91.9712 33.8361C89.7777 33.9732 87.8319 34.386 86.1456 35.0886L86.5302 36.0117ZM86.434 36.0518L86.5302 36.0117L86.1456 35.0886L86.0494 35.1287L86.434 36.0518ZM86.708 35.7987L86.7302 35.6968L85.7532 35.4837L85.7309 35.5856L86.708 35.7987ZM84.3416 46.6446L86.708 35.7987L85.7309 35.5855L83.3646 46.4314L84.3416 46.6446ZM74.366 47.2317L83.8633 47.0379L83.8429 46.0381L74.3456 46.2319L74.366 47.2317ZM72.0148 35.5402C72.0154 39.5192 72.6378 43.3049 73.8834 46.8957L74.8282 46.568C73.6209 43.0876 73.0154 39.413 73.0148 35.5401L72.0148 35.5402ZM72.2083 31.9482L72.0156 35.5132L73.0141 35.5671L73.2068 32.0022L72.2083 31.9482ZM86.3535 27.5911C81.1282 28.6825 76.5197 29.9877 72.5295 31.508L72.8856 32.4425C76.816 30.9449 81.372 29.6531 86.558 28.57L86.3535 27.5911ZM86.4762 28.1784C91.737 27.0797 95.7795 26.5348 98.6148 26.5348V25.5348C95.6751 25.5348 91.5522 26.0967 86.2717 27.1995L86.4762 28.1784ZM72.6222 32.1149C76.6041 30.5885 81.2214 29.2759 86.4762 28.1784L86.2717 27.1995C80.9773 28.3054 76.3067 29.6315 72.2643 31.1811L72.6222 32.1149ZM72.5011 32.1613L72.6222 32.1149L72.2643 31.1811L72.1432 31.2276L72.5011 32.1613ZM72.8144 31.851L72.8214 31.7214L71.8229 31.6674L71.8159 31.797L72.8144 31.851ZM72.6144 35.551L72.8144 31.851L71.8159 31.797L71.6159 35.497L72.6144 35.551ZM72.0886 36.0233L72.0889 36.0233L72.1414 35.0247L72.1411 35.0246L72.0886 36.0233ZM72.6148 35.5348V35.524H71.6148V35.5348H72.6148ZM74.4978 46.8352C73.243 43.2687 72.6148 39.5025 72.6148 35.5348H71.6148C71.6148 39.6101 72.2603 43.4889 73.5545 47.1671L74.4978 46.8352ZM74.5459 46.9717L74.4978 46.8352L73.5545 47.1671L73.6026 47.3036L74.5459 46.9717ZM74.2087 46.6348L74.064 46.6378L74.0844 47.6376L74.2291 47.6346L74.2087 46.6348ZM84.0087 46.4348L74.2087 46.6348L74.2291 47.6346L84.0291 47.4346L84.0087 46.4348ZM84.1664 46.4316L84.0087 46.4348L84.0291 47.4346L84.1868 47.4314L84.1664 46.4316ZM83.7217 46.6708L83.6881 46.8249L84.6651 47.0381L84.6988 46.884L83.7217 46.6708ZM86.0994 35.7732L83.7217 46.6708L84.6988 46.884L87.0764 35.9864L86.0994 35.7732ZM91.9391 34.239C89.8472 34.3746 87.9991 34.7654 86.3994 35.4167L86.7765 36.3429C88.257 35.7401 89.9958 35.3671 92.0038 35.2369L91.9391 34.239ZM96.9148 44.6348C96.9148 39.4785 95.3806 35.9821 92.2059 34.2963L91.7369 35.1795C94.4402 36.615 95.9148 39.6494 95.9148 44.6348H96.9148ZM96.9148 52.6389V44.6348H95.9148V52.6389H96.9148ZM77.6212 53.5347L96.4254 53.1388L96.4043 52.139L77.6001 52.5349L77.6212 53.5347ZM77.5736 53.5357L77.6212 53.5347L77.6001 52.5349L77.5525 52.5359L77.5736 53.5357ZM77.7556 53.4997L77.7976 53.4774L77.3286 52.5942L77.2866 52.6165L77.7556 53.4997ZM69.8148 65.0348C69.8148 60.1725 72.4274 56.3282 77.7555 53.4997L77.2866 52.6165C71.7187 55.5723 68.8148 59.7134 68.8148 65.0348H69.8148ZM74.0622 74.0088C71.2223 71.528 69.8148 68.5416 69.8148 65.0348H68.8148C68.8148 68.8522 70.3641 72.1062 73.4043 74.7619L74.0622 74.0088ZM84.7148 77.7348C80.4443 77.7348 76.9007 76.4884 74.0622 74.0088L73.4043 74.7619C76.448 77.4208 80.2348 78.7348 84.7148 78.7348V77.7348ZM84.7237 77.7348H84.7148V78.7348H84.7237V77.7348ZM84.6882 77.7359L84.6794 77.7367L84.7679 78.7328L84.7766 78.732L84.6882 77.7359ZM88.0885 77.4359L84.6885 77.7359L84.7764 78.732L88.1764 78.4321L88.0885 77.4359ZM88.1382 77.4315L88.0885 77.4359L88.1764 78.4321L88.2261 78.4277L88.1382 77.4315ZM87.9512 77.4833L87.9094 77.5106L88.4549 78.3486L88.4967 78.3214L87.9512 77.4833ZM98.3734 70.6991L87.9512 77.4833L88.4967 78.3214L98.9189 71.5372L98.3734 70.6991ZM103.489 75.7906C101.713 74.5221 100.243 72.8827 99.0791 70.868L98.2132 71.3682C99.4441 73.4987 101.009 75.2477 102.908 76.6044L103.489 75.7906ZM108.926 77.835C107.13 77.7708 105.319 77.0976 103.489 75.7906L102.908 76.6044C104.861 77.9992 106.857 78.7617 108.89 78.8343L108.926 77.835ZM108.982 77.837L108.926 77.835L108.89 78.8343L108.946 78.8363L108.982 77.837ZM108.768 77.8731L108.719 77.9005L109.208 78.7728L109.257 78.7453L108.768 77.8731ZM121.968 70.4731L108.768 77.8731L109.257 78.7454L122.457 71.3454L121.968 70.4731ZM122.087 70.4065L121.968 70.4731L122.457 71.3454L122.576 71.2788L122.087 70.4065ZM121.818 70.7753L121.836 70.9102L122.827 70.7751L122.808 70.6402L121.818 70.7753ZM121.218 66.3753L121.818 70.7753L122.808 70.6402L122.208 66.2402L121.218 66.3753ZM121.192 66.1872L121.218 66.3753L122.208 66.2402L122.183 66.0521L121.192 66.1872ZM121.54 66.6337L121.729 66.618L121.646 65.6214L121.457 65.6372L121.54 66.6337ZM119.144 66.8333L121.54 66.6337L121.457 65.6372L119.061 65.8368L119.144 66.8333ZM116.43 66.9344L119.121 66.8347L119.084 65.8354L116.393 65.9351L116.43 66.9344ZM114.324 66.1927C114.815 66.7037 115.53 66.9341 116.411 66.9348L116.412 65.9348C115.696 65.9342 115.284 65.7492 115.044 65.4996L114.324 66.1927ZM113.615 64.0348C113.615 64.945 113.834 65.683 114.324 66.1927L115.044 65.4996C114.799 65.2445 114.615 64.8001 114.615 64.0348H113.615ZM113.615 41.1348L113.615 64.0348H114.615L114.615 41.1348H113.615ZM113.615 41.1399L113.615 41.1435L114.615 41.1261L114.615 41.1226L113.615 41.1399ZM113.269 36.4315C113.466 37.6796 113.582 39.248 113.615 41.14L114.615 41.1225C114.581 39.2039 114.463 37.5856 114.256 36.2756L113.269 36.4315ZM112.455 33.6851C112.794 34.271 113.071 35.1782 113.269 36.4315L114.256 36.2756C114.051 34.978 113.751 33.928 113.321 33.184L112.455 33.6851ZM112.451 33.6769L112.455 33.6851L113.321 33.184L113.316 33.1758L112.451 33.6769ZM112.47 33.7087L112.476 33.7163L113.291 33.1365L113.285 33.1288L112.47 33.7087ZM98.6148 26.5348C104.45 26.5348 109.06 28.9205 112.471 33.7088L113.285 33.1286C109.688 28.0791 104.776 25.5348 98.6148 25.5348V26.5348ZM96.6288 58.2349C93.2585 58.1675 90.6213 58.5489 88.8018 59.4587L89.249 60.3531C90.8502 59.5525 93.2914 59.1684 96.6088 59.2347L96.6288 58.2349ZM96.8248 58.2388L96.6288 58.2349L96.6088 59.2347L96.8048 59.2386L96.8248 58.2388ZM97.3148 58.9348V58.7387H96.3148V58.9348H97.3148ZM97.3148 66.3348V58.9348H96.3148V66.3348H97.3148ZM97.3148 66.4806V66.3348H96.3148V66.4806H97.3148ZM96.8287 67.0013L96.9676 66.9567L96.6621 66.0045L96.5232 66.0491L96.8287 67.0013ZM88.3614 68.9332C90.4474 68.7941 93.2787 68.14 96.8286 67.0013L96.5232 66.0491C92.997 67.1801 90.258 67.8046 88.2949 67.9354L88.3614 68.9332ZM88.2708 68.9392L88.3614 68.9332L88.2949 67.9354L88.2043 67.9415L88.2708 68.9392ZM87.8199 68.7297L87.884 68.7939L88.5911 68.0868L88.527 68.0226L87.8199 68.7297ZM85.9148 63.9348C85.9148 65.837 86.5439 67.4538 87.8199 68.7297L88.527 68.0226C87.4548 66.9504 86.9148 65.5957 86.9148 63.9348H85.9148ZM86.6528 61.291C86.1529 62.0608 85.9148 62.9513 85.9148 63.9348H86.9148C86.9148 63.1181 87.1104 62.4224 87.4915 61.8356L86.6528 61.291ZM88.8018 59.4587C87.8812 59.919 87.1507 60.5242 86.6528 61.291L87.4915 61.8356C87.8733 61.2476 88.4531 60.751 89.249 60.3531L88.8018 59.4587ZM87.3148 63.9348C87.3148 63.1849 87.4934 62.5671 87.8269 62.0535L86.9882 61.5089C86.5359 62.2054 86.3148 63.018 86.3148 63.9348H87.3148ZM88.7515 67.6806C87.8 66.7001 87.3148 65.4691 87.3148 63.9348H86.3148C86.3148 65.7045 86.8848 67.193 88.0339 68.377L88.7515 67.6806ZM96.263 65.7124C92.867 66.7952 90.2395 67.3918 88.3561 67.5302L88.4293 68.5275C90.4303 68.3805 93.1462 67.7558 96.5667 66.6651L96.263 65.7124ZM95.9148 59.1313V66.1887H96.9148V59.1313H95.9148ZM89.4279 60.7108C90.9113 59.9691 93.2109 59.584 96.4074 59.6313L96.4222 58.6314C93.1714 58.5833 90.6791 58.9672 88.9807 59.8164L89.4279 60.7108ZM87.8269 62.0535C88.1623 61.537 88.6819 61.0839 89.4279 60.7108L88.9807 59.8164C88.1099 60.2518 87.4397 60.8136 86.9882 61.5089L87.8269 62.0535ZM143.942 26.786L144.003 26.8469L144.71 26.1398L144.649 26.0789L143.942 26.786ZM144.223 26.9346L144.309 26.9323L144.282 25.9327L144.196 25.935L144.223 26.9346ZM124.522 30.615C130.419 28.362 136.985 27.1339 144.223 26.9346L144.196 25.935C136.861 26.1369 130.182 27.3823 124.165 29.6809L124.522 30.615ZM124.378 30.6698L124.522 30.615L124.165 29.6809L124.022 29.7357L124.378 30.6698ZM124.713 30.3037L124.697 30.1509L123.703 30.2546L123.719 30.4073L124.713 30.3037ZM125.213 35.1037L124.713 30.3037L123.719 30.4073L124.219 35.2073L125.213 35.1037ZM125.229 35.2518L125.213 35.1037L124.219 35.2073L124.234 35.3554L125.229 35.2518ZM124.971 34.84L124.824 34.8123L124.638 35.7949L124.785 35.8226L124.971 34.84ZM132.208 36.2092L124.971 34.84L124.785 35.8226L132.022 37.1918L132.208 36.2092ZM132.615 69.4929V36.7005H131.615V69.4929H132.615ZM125.065 73.1942C127.08 72.0245 129.484 70.9474 132.281 69.9646L131.949 69.0212C129.108 70.0196 126.644 71.1211 124.563 72.3294L125.065 73.1942ZM124.959 73.2559L125.065 73.1942L124.563 72.3294L124.457 72.3911L124.959 73.2559ZM125.214 72.9177L125.207 72.795L124.209 72.852L124.216 72.9747L125.214 72.9177ZM125.414 76.4176L125.214 72.9176L124.216 72.9747L124.416 76.4747L125.414 76.4176ZM125.425 76.6063L125.414 76.4177L124.416 76.4747L124.427 76.6633L125.425 76.6063ZM125.115 76.1348H124.926V77.1348H125.115V76.1348ZM155.215 76.1348H125.115V77.1348H155.215V76.1348ZM155.407 76.1348H155.215V77.1348H155.407V76.1348ZM154.915 76.4225L154.907 76.6144L155.906 76.6552L155.914 76.4633L154.915 76.4225ZM155.115 71.5225L154.915 76.4225L155.914 76.4633L156.114 71.5633L155.115 71.5225ZM155.119 71.4156L155.115 71.5225L156.114 71.5633L156.119 71.4564L155.119 71.4156ZM155.238 71.7774L155.325 71.8403L155.913 71.0316L155.827 70.9687L155.238 71.7774ZM149.611 68.6614C151.945 69.7054 153.818 70.7446 155.238 71.7774L155.827 70.9687C154.332 69.8815 152.391 68.8096 150.019 67.7485L149.611 68.6614ZM149.315 40.267V68.205H150.315V40.267H149.315ZM155.615 38.3348C153.922 38.3348 151.921 38.8328 149.62 39.8065L150.01 40.7274C152.244 39.7817 154.106 39.3348 155.615 39.3348V38.3348ZM160.668 40.9992C159.542 39.222 157.842 38.3348 155.615 38.3348V39.3348C157.529 39.3348 158.896 40.0702 159.824 41.5344L160.668 40.9992ZM162.315 48.7348C162.315 45.3461 161.78 42.7533 160.668 40.9992L159.824 41.5344C160.786 43.0526 161.315 45.4194 161.315 48.7348H162.315ZM162.315 76.4348V48.7348H161.315V76.4348H162.315ZM162.315 76.6348V76.4348H161.315V76.6348H162.315ZM162.015 76.1348H161.815V77.1348H162.015V76.1348ZM185.015 76.1348H162.015V77.1348H185.015V76.1348ZM185.203 76.1348H185.015V77.1348H185.203V76.1348ZM184.715 76.4165L184.704 76.6042L185.702 76.6653L185.714 76.4775L184.715 76.4165ZM185.015 71.5164L184.715 76.4164L185.714 76.4775L186.014 71.5775L185.015 71.5164ZM185.022 71.4037L185.015 71.5164L186.014 71.5775L186.02 71.4648L185.022 71.4037ZM185.144 71.7817L185.237 71.8458L185.805 71.0227L185.712 70.9585L185.144 71.7817ZM179.319 68.5621C181.323 69.4125 183.265 70.4855 185.145 71.7817L185.712 70.9585C183.78 69.6257 181.779 68.5196 179.71 67.6416L179.319 68.5621ZM178.915 40.3636L179.014 68.1036L180.014 68.1001L179.915 40.3601L178.915 40.3636ZM185.415 38.3348C183.524 38.3348 181.453 38.8654 179.205 39.9083L179.626 40.8154C181.784 39.8142 183.71 39.3348 185.415 39.3348V38.3348ZM190.468 40.9992C189.342 39.222 187.642 38.3348 185.415 38.3348V39.3348C187.329 39.3348 188.696 40.0702 189.624 41.5344L190.468 40.9992ZM192.115 48.7348C192.115 45.3461 191.58 42.7533 190.468 40.9992L189.624 41.5344C190.586 43.0526 191.115 45.4194 191.115 48.7348H192.115ZM192.115 76.4348V48.7348H191.115V76.4348H192.115ZM192.115 76.6348V76.4348H191.115V76.6348H192.115ZM191.815 76.1348H191.615V77.1348H191.815V76.1348ZM216.515 76.1348H191.815V77.1348H216.515V76.1348ZM216.703 76.1348H216.515V77.1348H216.703V76.1348ZM216.215 76.4165L216.204 76.6042L217.202 76.6653L217.214 76.4775L216.215 76.4165ZM216.515 71.5164L216.215 76.4164L217.214 76.4775L217.514 71.5775L216.515 71.5164ZM216.522 71.4037L216.515 71.5164L217.514 71.5775L217.52 71.4648L216.522 71.4037ZM216.644 71.7817L216.737 71.8458L217.305 71.0227L217.212 70.9585L216.644 71.7817ZM209.147 68.1645C212.27 69.2796 214.767 70.4866 216.645 71.7817L217.212 70.9585C215.239 69.5976 212.656 68.3554 209.483 67.2227L209.147 68.1645ZM208.815 43.2348L208.815 67.6936H209.815L209.815 43.2348H208.815ZM208.815 43.2374L208.815 43.2402L209.815 43.2294L209.815 43.2265L208.815 43.2374ZM208.467 37.449C208.665 38.9496 208.782 40.8784 208.815 43.239L209.815 43.2249C209.781 40.8439 209.664 38.8724 209.459 37.3182L208.467 37.449ZM207.652 34.2793C207.99 34.8947 208.268 35.9396 208.467 37.449L209.459 37.3182C209.257 35.7845 208.961 34.5839 208.528 33.7974L207.652 34.2793ZM207.649 34.2734L207.652 34.28L208.528 33.7968L208.524 33.7902L207.649 34.2734ZM207.663 34.298L207.667 34.3043L208.506 33.7593L208.502 33.753L207.663 34.298ZM194.005 27.2346C200.19 27.432 204.725 29.7933 207.664 34.2986L208.501 33.7524C205.357 28.9314 200.495 26.4412 194.037 26.2351L194.005 27.2346ZM193.971 27.2335L194.005 27.2346L194.037 26.2351L194.003 26.234L193.971 27.2335ZM194.106 27.2205L194.139 27.21L193.835 26.2575L193.802 26.268L194.106 27.2205ZM179.095 35.5224C184.403 31.485 189.406 28.7218 194.106 27.2205L193.802 26.268C188.963 27.8136 183.859 30.6424 178.489 34.7264L179.095 35.5224ZM177.842 34.2605L178.338 35.3339L179.246 34.9149L178.75 33.8414L177.842 34.2605ZM177.836 34.2471L177.842 34.2604L178.75 33.8415L178.744 33.8283L177.836 34.2471ZM177.864 34.2987L177.872 34.3109L178.709 33.7645L178.701 33.7523L177.864 34.2987ZM164.205 27.2346C170.39 27.432 174.925 29.7933 177.864 34.2986L178.701 33.7524C175.557 28.9314 170.695 26.4412 164.237 26.2351L164.205 27.2346ZM164.171 27.2335L164.205 27.2346L164.237 26.2351L164.203 26.234L164.171 27.2335ZM164.305 27.221L164.337 27.2109L164.038 26.2567L164.005 26.2668L164.305 27.221ZM150.109 34.8454C155.237 31.1175 159.968 28.5801 164.305 27.221L164.005 26.2668C159.534 27.6682 154.705 30.2676 149.521 34.0365L150.109 34.8454ZM149.315 32.0348V34.441H150.315V32.0348H149.315ZM149.315 31.9519V32.0348H150.315V31.9519H149.315ZM149.403 32.2469L149.461 32.3055L150.168 31.5983L150.11 31.5397L149.403 32.2469ZM144.003 26.8469L149.403 32.2469L150.11 31.5398L144.71 26.1398L144.003 26.8469ZM124.132 30.5188L124.601 35.0177L125.596 34.9141L125.127 30.4152L124.132 30.5188ZM144.12 26.3373C136.917 26.5438 130.361 27.7632 124.453 29.9994L124.807 30.9347C130.597 28.743 137.042 27.5407 144.149 27.3369L144.12 26.3373ZM149.768 31.764L144.488 26.4835L143.781 27.1907L149.061 32.4712L149.768 31.764ZM149.915 34.8348V32.1176H148.915V34.8348H149.915ZM149.915 35.2297V34.8348H148.915V35.2297H149.915ZM149.437 34.5929L149.119 34.8267L149.711 35.6328L150.029 35.399L149.437 34.5929ZM164.092 26.6588C159.593 28.0743 154.708 30.7232 149.437 34.5929L150.029 35.399C155.244 31.5706 160.031 28.9851 164.392 27.6127L164.092 26.6588ZM178.358 33.9584C175.302 29.2804 170.585 26.8462 164.259 26.636L164.226 27.6355C170.279 27.8366 174.67 30.1418 177.521 34.5053L178.358 33.9584ZM178.987 35.309L178.393 34.0223L177.485 34.4414L178.079 35.7281L178.987 35.309ZM179.092 35.5359L178.987 35.309L178.079 35.7281L178.184 35.955L179.092 35.5359ZM178.532 35.1965L178.334 35.3484L178.942 36.1425L179.14 35.9906L178.532 35.1965ZM193.89 26.6597C189.058 28.2089 183.939 31.0586 178.532 35.1965L179.14 35.9906C184.485 31.8996 189.503 29.1163 194.196 27.6119L193.89 26.6597ZM208.162 33.9643C205.106 29.2827 200.388 26.8464 194.059 26.6361L194.026 27.6355C200.081 27.8368 204.474 30.1439 207.324 34.5109L208.162 33.9643ZM209.062 37.3705C208.862 35.8517 208.575 34.716 208.182 33.9978L207.304 34.4775C207.604 35.0256 207.874 36.0069 208.071 37.5013L209.062 37.3705ZM209.415 43.2295C209.381 40.8571 209.264 38.903 209.062 37.3705L208.071 37.5013C208.266 38.9802 208.382 40.8916 208.415 43.2435L209.415 43.2295ZM209.415 67.8348V43.2365H208.415V67.8348H209.415ZM209.415 67.9761V67.8348H208.415V67.9761H209.415ZM209.215 67.552L209.082 67.5048L208.748 68.4474L208.881 68.4946L209.215 67.552ZM216.89 71.2224C214.939 69.8945 212.378 68.6723 209.215 67.552L208.881 68.4946C211.995 69.5976 214.471 70.7854 216.327 72.049L216.89 71.2224ZM216.826 76.2653L217.107 71.6662L216.109 71.6051L215.828 76.2042L216.826 76.2653ZM192.015 76.7348H216.327V75.7348H192.015V76.7348ZM191.515 48.7348V76.2348H192.515V48.7348H191.515ZM189.961 41.3203C190.983 42.9329 191.515 45.3901 191.515 48.7348H192.515C192.515 45.3167 191.977 42.6336 190.806 40.7851L189.961 41.3203ZM185.415 38.9348C187.454 38.9348 188.954 39.731 189.961 41.3203L190.806 40.7851C189.601 38.8826 187.768 37.9348 185.415 37.9348V38.9348ZM179.343 40.5062C181.582 39.4522 183.605 38.9348 185.415 38.9348V37.9348C183.416 37.9348 181.246 38.5051 178.917 39.6014L179.343 40.5062ZM179.227 40.5605L179.343 40.5062L178.917 39.6014L178.801 39.6556L179.227 40.5605ZM179.515 40.2337L179.514 40.1063L178.514 40.1099L178.515 40.2373L179.515 40.2337ZM179.615 68.2337L179.515 40.2337L178.515 40.2373L178.615 68.2373L179.615 68.2337ZM179.615 68.3661L179.615 68.2336L178.615 68.2373L178.615 68.3698L179.615 68.3661ZM179.431 67.9581L179.309 67.9069L178.922 68.829L179.044 68.8803L179.431 67.9581ZM185.391 71.223C183.471 69.9076 181.484 68.819 179.431 67.9581L179.044 68.8803C181.032 69.7138 182.959 70.7691 184.826 72.048L185.391 71.223ZM185.326 76.2653L185.607 71.666L184.609 71.6049L184.328 76.2042L185.326 76.2653ZM162.215 76.7348H184.827V75.7348H162.215V76.7348ZM161.715 48.7348V76.2348H162.715V48.7348H161.715ZM160.161 41.3203C161.183 42.9329 161.715 45.3901 161.715 48.7348H162.715C162.715 45.3167 162.177 42.6336 161.006 40.7851L160.161 41.3203ZM155.615 38.9348C157.654 38.9348 159.154 39.731 160.161 41.3203L161.006 40.7851C159.801 38.8826 157.968 37.9348 155.615 37.9348V38.9348ZM149.733 40.4105C152.047 39.419 154.004 38.9348 155.615 38.9348V37.9348C153.817 37.9348 151.718 38.4716 149.339 39.4914L149.733 40.4105ZM149.612 40.4625L149.733 40.4105L149.339 39.4914L149.218 39.5433L149.612 40.4625ZM149.915 40.1348V40.0029H148.915V40.1348H149.915ZM149.915 68.3348V40.1348H148.915V68.3348H149.915ZM149.915 68.4647V68.3348H148.915V68.4647H149.915ZM149.737 68.0606L149.618 68.0078L149.212 68.9216L149.331 68.9744L149.737 68.0606ZM155.502 71.2278C154.025 70.1664 152.101 69.1113 149.737 68.0606L149.331 68.9744C151.657 70.0083 153.515 71.0315 154.919 72.04L155.502 71.2278ZM155.522 76.2551L155.71 71.6543L154.711 71.6135L154.523 76.2144L155.522 76.2551ZM125.304 76.7348H155.023V75.7348H125.304V76.7348ZM124.622 73.0748L124.805 76.2633L125.803 76.2062L125.621 73.0178L124.622 73.0748ZM132.216 69.3515C129.385 70.3389 126.937 71.4255 124.872 72.6129L125.371 73.4797C127.369 72.3303 129.759 71.2678 132.545 70.2957L132.216 69.3515ZM132.35 69.3047L132.216 69.3515L132.545 70.2957L132.68 70.2489L132.35 69.3047ZM132.015 69.6348V69.7768H133.015V69.6348H132.015ZM132.015 36.5348V69.6348H133.015V36.5348H132.015ZM132.015 36.3691V36.5348H133.015V36.3691H132.015ZM132.259 36.8295L132.422 36.8603L132.608 35.8778L132.445 35.847L132.259 36.8295ZM125.005 35.4572L132.259 36.8295L132.445 35.847L125.191 34.4746L125.005 35.4572ZM269.658 28.57C274.911 27.4728 278.921 26.9348 281.715 26.9348V25.9348C278.817 25.9348 274.726 26.4899 269.453 27.5911L269.658 28.57ZM255.986 32.4425C259.916 30.9449 264.472 29.6531 269.658 28.57L269.453 27.5911C264.228 28.6825 259.62 29.9877 255.63 31.508L255.986 32.4425ZM256.114 35.5671L256.307 32.0022L255.308 31.9482L255.116 35.5132L256.114 35.5671ZM257.928 46.568C256.721 43.0876 256.115 39.413 256.115 35.5401L255.115 35.5402C255.115 39.5192 255.738 43.3049 256.983 46.8957L257.928 46.568ZM266.943 46.0381L257.446 46.2319L257.466 47.2317L266.963 47.0379L266.943 46.0381ZM268.831 35.5855L266.465 46.4314L267.442 46.6446L269.808 35.7987L268.831 35.5855ZM268.853 35.4837L268.831 35.5856L269.808 35.7987L269.83 35.6968L268.853 35.4837ZM269.246 35.0886L269.149 35.1287L269.534 36.0518L269.63 36.0117L269.246 35.0886ZM275.071 33.8361C272.878 33.9732 270.932 34.386 269.246 35.0886L269.63 36.0117C271.193 35.3604 273.026 34.9659 275.134 34.8342L275.071 33.8361ZM275.127 33.8326L275.071 33.8361L275.134 34.8342L275.189 34.8307L275.127 33.8326ZM275.439 33.9142L275.389 33.8884L274.927 34.7749L274.976 34.8007L275.439 33.9142ZM280.415 44.6348C280.415 39.3813 278.839 35.6883 275.439 33.9142L274.976 34.8007C277.9 36.3261 279.415 39.5528 279.415 44.6348H280.415ZM280.415 52.8348V44.6348H279.415V52.8348H280.415ZM280.415 53.0306V52.8348H279.415V53.0306H280.415ZM279.73 53.5346L279.925 53.5305L279.904 52.5307L279.708 52.5348L279.73 53.5346ZM260.777 53.9336L279.73 53.5346L279.708 52.5348L260.756 52.9338L260.777 53.9336ZM253.315 65.0348C253.315 60.3679 255.798 56.65 261.002 53.8749L260.531 52.9925C255.087 55.8958 252.315 59.9108 252.315 65.0348H253.315ZM257.425 73.7076C254.666 71.2967 253.315 68.4173 253.315 65.0348H252.315C252.315 68.728 253.807 71.8749 256.767 74.4607L257.425 73.7076ZM267.806 77.3348C263.623 77.3331 260.18 76.1138 257.425 73.7076L256.767 74.4607C259.727 77.0461 263.414 78.333 267.806 78.3348L267.806 77.3348ZM271.104 77.0419L267.762 77.3367L267.85 78.3328L271.191 78.038L271.104 77.0419ZM281.433 70.2481L270.875 77.1209L271.42 77.959L281.978 71.0862L281.433 70.2481ZM281.612 70.1317L281.433 70.2481L281.979 71.0862L282.157 70.9698L281.612 70.1317ZM282.425 70.4916L282.32 70.3056L281.449 70.7959L281.553 70.9819L282.425 70.4916ZM286.822 75.4651C285.044 74.1954 283.578 72.5416 282.425 70.4916L281.553 70.9818C282.773 73.1509 284.336 74.9183 286.24 76.2789L286.822 75.4651ZM291.988 77.4332C290.303 77.3614 288.584 76.724 286.822 75.4651L286.24 76.2789C288.125 77.6247 290.027 78.3505 291.945 78.4323L291.988 77.4332ZM304.754 70.1907L291.722 77.4966L292.211 78.3689L305.243 71.063L304.754 70.1907ZM303.947 66.6174L304.503 70.6944L305.494 70.5593L304.938 66.4823L303.947 66.6174ZM302.273 67.2323L304.484 67.0481L304.401 66.0516L302.19 66.2358L302.273 67.2323ZM302.264 67.2331L302.273 67.2323L302.19 66.2358L302.181 66.2366L302.264 67.2331ZM299.541 67.3343L302.241 67.2345L302.204 66.2352L299.504 66.335L299.541 67.3343ZM299.533 67.3346L299.541 67.3343L299.504 66.335L299.496 66.3352L299.533 67.3346ZM297.135 66.4699C297.728 67.0868 298.567 67.3347 299.515 67.3349L299.515 66.3349C298.731 66.3348 298.197 66.1314 297.856 65.7768L297.135 66.4699ZM296.315 64.0348C296.315 65.0025 296.547 65.8582 297.135 66.4699L297.856 65.7768C297.513 65.42 297.315 64.8582 297.315 64.0348H296.315ZM296.315 41.1365V64.0348H297.315V41.1365H296.315ZM295.973 36.4939C296.166 37.7169 296.282 39.2647 296.315 41.1453L297.315 41.1278C297.281 39.2206 297.164 37.6228 296.961 36.338L295.973 36.4939ZM295.213 33.8923C295.514 34.4158 295.779 35.2638 295.973 36.4939L296.961 36.338C296.76 35.0636 296.471 34.0741 296.08 33.3938L295.213 33.8923ZM281.715 26.9348C287.417 26.9348 291.903 29.2546 295.239 33.9333L296.053 33.3528C292.532 28.413 287.743 25.9348 281.715 25.9348V26.9348ZM281.715 25.5348C278.775 25.5348 274.652 26.0967 269.372 27.1995L269.576 28.1784C274.837 27.0797 278.879 26.5348 281.715 26.5348V25.5348ZM296.385 33.1286C292.788 28.0791 287.876 25.5348 281.715 25.5348V26.5348C287.55 26.5348 292.16 28.9205 295.57 33.7088L296.385 33.1286ZM296.391 33.1365L296.385 33.1288L295.57 33.7087L295.576 33.7163L296.391 33.1365ZM296.42 33.1837L296.416 33.1755L295.551 33.6773L295.555 33.6854L296.42 33.1837ZM297.356 36.2756C297.151 34.978 296.851 33.928 296.421 33.184L295.555 33.6851C295.894 34.271 296.171 35.1782 296.368 36.4315L297.356 36.2756ZM297.715 41.1225C297.681 39.2039 297.563 37.5856 297.356 36.2756L296.368 36.4315C296.566 37.6796 296.682 39.248 296.715 41.14L297.715 41.1225ZM297.715 41.1261L297.715 41.1226L296.715 41.1399L296.715 41.1435L297.715 41.1261ZM297.715 64.0348L297.715 41.1348H296.715L296.715 64.0348H297.715ZM298.144 65.4996C297.899 65.2445 297.715 64.8 297.715 64.0348H296.715C296.715 64.945 296.934 65.683 297.424 66.1927L298.144 65.4996ZM299.512 65.9348C298.796 65.9342 298.384 65.7492 298.144 65.4996L297.424 66.1927C297.915 66.7037 298.63 66.9341 299.511 66.9348L299.512 65.9348ZM302.184 65.8354L299.493 65.9351L299.53 66.9344L302.221 66.8347L302.184 65.8354ZM304.557 65.6372L302.161 65.8368L302.244 66.8333L304.64 66.6337L304.557 65.6372ZM304.746 65.6214L304.557 65.6372L304.64 66.6337L304.829 66.618L304.746 65.6214ZM305.308 66.2402L305.283 66.0522L304.292 66.1872L304.318 66.3753L305.308 66.2402ZM305.908 70.6402L305.308 66.2402L304.318 66.3753L304.918 70.7753L305.908 70.6402ZM305.927 70.7751L305.908 70.6402L304.918 70.7753L304.936 70.9102L305.927 70.7751ZM305.557 71.3454L305.676 71.2788L305.187 70.4065L305.068 70.4731L305.557 71.3454ZM292.357 78.7454L305.557 71.3454L305.068 70.4731L291.868 77.8731L292.357 78.7454ZM292.308 78.7727L292.357 78.7453L291.868 77.8731L291.819 77.9005L292.308 78.7727ZM291.99 78.8343L292.046 78.8363L292.082 77.837L292.026 77.835L291.99 78.8343ZM286.008 76.6044C287.961 77.9992 289.957 78.7617 291.99 78.8343L292.026 77.835C290.23 77.7708 288.419 77.0976 286.589 75.7906L286.008 76.6044ZM281.313 71.3682C282.544 73.4987 284.109 75.2477 286.008 76.6044L286.589 75.7906C284.813 74.5221 283.343 72.8827 282.179 70.868L281.313 71.3682ZM271.597 78.3214L282.019 71.5372L281.473 70.6991L271.051 77.4833L271.597 78.3214ZM271.555 78.3487L271.597 78.3215L271.051 77.4833L271.009 77.5105L271.555 78.3487ZM271.276 78.4321L271.326 78.4277L271.238 77.4315L271.188 77.4359L271.276 78.4321ZM267.876 78.732L271.276 78.4321L271.188 77.4359L267.788 77.7359L267.876 78.732ZM267.868 78.7328L267.877 78.732L267.788 77.7359L267.779 77.7367L267.868 78.7328ZM267.815 78.7348H267.824V77.7348H267.815V78.7348ZM256.504 74.7619C259.548 77.4208 263.335 78.7348 267.815 78.7348V77.7348C263.544 77.7348 260.001 76.4884 257.162 74.0088L256.504 74.7619ZM251.915 65.0348C251.915 68.8522 253.464 72.1062 256.504 74.7619L257.162 74.0088C254.322 71.528 252.915 68.5416 252.915 65.0348H251.915ZM260.387 52.6165C254.819 55.5723 251.915 59.7134 251.915 65.0348H252.915C252.915 60.1725 255.527 56.3282 260.855 53.4997L260.387 52.6165ZM260.429 52.5942L260.387 52.6165L260.855 53.4998L260.897 53.4775L260.429 52.5942ZM260.7 52.5349L260.652 52.5359L260.674 53.5357L260.721 53.5347L260.7 52.5349ZM279.504 52.139L260.7 52.5349L260.721 53.5347L279.525 53.1388L279.504 52.139ZM279.015 44.6348V52.6389H280.015V44.6348H279.015ZM274.837 35.1795C277.54 36.615 279.015 39.6494 279.015 44.6348H280.015C280.015 39.4785 278.481 35.9821 275.306 34.2963L274.837 35.1795ZM269.876 36.3429C271.357 35.7401 273.096 35.3671 275.104 35.2369L275.039 34.239C272.947 34.3746 271.099 34.7654 269.499 35.4167L269.876 36.3429ZM267.799 46.884L270.176 35.9864L269.199 35.7732L266.822 46.6708L267.799 46.884ZM267.765 47.038L267.799 46.8839L266.822 46.6709L266.788 46.825L267.765 47.038ZM267.129 47.4346L267.287 47.4314L267.266 46.4316L267.109 46.4348L267.129 47.4346ZM257.329 47.6346L267.129 47.4346L267.109 46.4348L257.309 46.6348L257.329 47.6346ZM257.184 47.6376L257.329 47.6346L257.309 46.6348L257.164 46.6378L257.184 47.6376ZM256.654 47.1671L256.703 47.3036L257.646 46.9717L257.598 46.8352L256.654 47.1671ZM254.715 35.5348C254.715 39.6101 255.36 43.4889 256.655 47.1671L257.598 46.8352C256.343 43.2687 255.715 39.5025 255.715 35.5348H254.715ZM254.715 35.524V35.5348H255.715V35.524H254.715ZM255.241 35.0247L255.241 35.0246L255.189 36.0233L255.189 36.0233L255.241 35.0247ZM254.916 31.797L254.716 35.497L255.714 35.551L255.914 31.851L254.916 31.797ZM254.923 31.6674L254.916 31.797L255.914 31.851L255.921 31.7214L254.923 31.6674ZM255.364 31.1811L255.243 31.2276L255.601 32.1613L255.722 32.1149L255.364 31.1811ZM269.372 27.1995C264.077 28.3054 259.407 29.6315 255.364 31.1811L255.722 32.1149C259.704 30.5885 264.321 29.2759 269.576 28.1784L269.372 27.1995ZM272.349 60.3531C273.95 59.5525 276.391 59.1684 279.709 59.2347L279.729 58.2349C276.358 58.1675 273.721 58.5489 271.902 59.4587L272.349 60.3531ZM270.591 61.8356C270.973 61.2476 271.553 60.751 272.349 60.3531L271.902 59.4587C270.981 59.919 270.251 60.5242 269.753 61.291L270.591 61.8356ZM270.015 63.9348C270.015 63.1181 270.21 62.4224 270.591 61.8356L269.753 61.291C269.253 62.0608 269.015 62.9513 269.015 63.9348H270.015ZM271.627 68.0226C270.555 66.9504 270.015 65.5957 270.015 63.9348H269.015C269.015 65.837 269.644 67.4538 270.92 68.7297L271.627 68.0226ZM271.691 68.0869L271.627 68.0227L270.92 68.7297L270.984 68.7938L271.691 68.0869ZM271.395 67.9354L271.304 67.9415L271.371 68.9392L271.461 68.9332L271.395 67.9354ZM279.623 66.0491C276.097 67.1801 273.358 67.8046 271.395 67.9354L271.461 68.9332C273.547 68.7941 276.379 68.14 279.929 67.0013L279.623 66.0491ZM279.762 66.0045L279.623 66.0491L279.929 67.0013L280.068 66.9567L279.762 66.0045ZM279.415 66.3348V66.4806H280.415V66.3348H279.415ZM279.415 58.9348V66.3348H280.415V58.9348H279.415ZM279.415 58.7387V58.9348H280.415V58.7387H279.415ZM279.709 59.2347L279.905 59.2386L279.925 58.2388L279.729 58.2349L279.709 59.2347ZM270.088 61.5089C269.636 62.2054 269.415 63.018 269.415 63.9348H270.415C270.415 63.1849 270.593 62.5671 270.927 62.0535L270.088 61.5089ZM272.081 59.8164C271.21 60.2518 270.54 60.8136 270.088 61.5089L270.927 62.0535C271.262 61.537 271.782 61.0839 272.528 60.7108L272.081 59.8164ZM279.522 58.6314C276.271 58.5833 273.779 58.9672 272.081 59.8164L272.528 60.7109C274.011 59.9691 276.311 59.584 279.507 59.6313L279.522 58.6314ZM280.015 66.1887V59.1313H279.015V66.1887H280.015ZM271.529 68.5275C273.53 68.3805 276.246 67.7558 279.667 66.6651L279.363 65.7124C275.967 66.7952 273.339 67.3918 271.456 67.5302L271.529 68.5275ZM269.415 63.9348C269.415 65.7045 269.985 67.193 271.134 68.377L271.851 67.6806C270.9 66.7001 270.415 65.4691 270.415 63.9348H269.415Z" fill="#3DD7AC"/>
</svg>
