<svg width="687" height="102" viewBox="0 0 687 102" fill="none" xmlns="http://www.w3.org/2000/svg">
<path d="M17.1826 1.56525L17.4141 1.12207L17.1389 0.978343L16.8881 1.16118L17.1826 1.56525ZM17.2926 1.62274L17.5241 1.17956V1.17956L17.2926 1.62274ZM17.0822 1.63838L17.3767 2.04245L17.3767 2.04245L17.0822 1.63838ZM7.12252 13.7078L6.67882 13.4773H6.67882L7.12252 13.7078ZM7.0612 13.8259L6.6175 13.5954L6.46419 13.8905L6.67709 14.1459L7.0612 13.8259ZM7.14636 13.928L7.53047 13.608L7.53047 13.608L7.14636 13.928ZM19.118 23.0824L18.9131 23.5385H18.9131L19.118 23.0824ZM19.223 23.1296L19.0181 23.5857L19.2805 23.7036L19.5142 23.536L19.223 23.1296ZM19.3165 23.0626L19.6078 23.469H19.6078L19.3165 23.0626ZM28.6789 12.0894L28.2317 11.8658L28.2317 11.8658L28.6789 12.0894ZM28.7316 11.984L29.1788 12.2076L29.3106 11.944L29.1438 11.701L28.7316 11.984ZM28.6649 11.8868L28.2527 12.1698L28.2527 12.1698L28.6649 11.8868ZM17.2175 2.03509L17.4509 1.59288L17.1736 1.44659L16.9212 1.63236L17.2175 2.03509ZM7.53906 13.7741L7.09603 13.5423L6.94077 13.8391L7.15612 14.0956L7.53906 13.7741ZM28.2682 12.016L28.7145 12.2413L28.8484 11.9761L28.6795 11.7317L28.2682 12.016ZM19.177 22.6702L18.9705 23.1256L19.2346 23.2453L19.4697 23.0755L19.177 22.6702ZM364.216 46.2001L363.838 46.5275L363.843 46.534L363.849 46.5403L364.216 46.2001ZM366.916 38.7001L366.97 38.203L366.869 38.192L366.772 38.2211L366.916 38.7001ZM371.516 39.2001L371.989 39.0388L371.886 38.7374L371.57 38.703L371.516 39.2001ZM374.616 48.3001L374.142 48.4613L374.258 48.8001H374.616V48.3001ZM383.416 48.3001V48.8001H383.78L383.892 48.4528L383.416 48.3001ZM385.116 37.8001H385.616V37.7858L385.615 37.7715L385.116 37.8001ZM384.916 34.3001L385.415 34.2715L385.399 33.9865L385.145 33.8557L384.916 34.3001ZM353.416 35.4001L353.704 35.8087L353.705 35.8078L353.416 35.4001ZM350.016 54.6001L349.62 54.9055L349.625 54.9118L349.63 54.9179L350.016 54.6001ZM360.516 62.0001L360.285 62.4438L360.292 62.4473L360.516 62.0001ZM369.716 67.4001L369.35 67.7412L369.356 67.7475L369.362 67.7536L369.716 67.4001ZM369.416 74.5001L369.248 74.9713L369.527 75.0701L369.748 74.8738L369.416 74.5001ZM351.416 64.5001L351.721 64.1039L351.213 63.7128L350.957 64.3006L351.416 64.5001ZM345.716 77.6001L345.257 77.4006L345.071 77.8287L345.485 78.0438L345.716 77.6001ZM381.516 78.7001L381.82 79.0967L381.825 79.0932L381.516 78.7001ZM384.316 59.5001L383.921 59.8071L383.925 59.8124L384.316 59.5001ZM373.516 51.8001L373.283 52.2428L373.288 52.245L373.516 51.8001ZM455.414 75.3001L455.657 75.737L455.956 75.5709L455.91 75.2325L455.414 75.3001ZM442.114 82.7001L442.08 83.1989L442.228 83.2091L442.357 83.137L442.114 82.7001ZM454.814 70.9001L455.31 70.8325L455.246 70.3639L454.774 70.4017L454.814 70.9001ZM452.314 71.1001L452.333 71.5997L452.344 71.5993L452.354 71.5985L452.314 71.1001ZM449.714 71.2001V71.7001H449.724L449.733 71.6997L449.714 71.2001ZM447.214 36.0001H447.714V35.7755L447.546 35.6264L447.214 36.0001ZM441.814 31.2001L442.146 30.8264L442 30.6962L441.804 30.7002L441.814 31.2001ZM423.814 34.6001L423.628 34.1358L423.278 34.2761L423.317 34.6519L423.814 34.6001ZM424.314 39.4001L423.817 39.4519L423.853 39.8002L424.193 39.8851L424.314 39.4001ZM429.914 40.8001H430.414V40.4097L430.035 40.315L429.914 40.8001ZM429.914 69.4001L430.119 69.8563L430.414 69.7239V69.4001H429.914ZM417.614 36.0001H418.114V35.7755L417.946 35.6264L417.614 36.0001ZM412.214 31.2001L412.546 30.8264L412.398 30.6948L412.2 30.7002L412.214 31.2001ZM392.414 34.9001L392.236 34.433L391.877 34.57L391.917 34.9519L392.414 34.9001ZM392.914 39.7001L392.417 39.7519L392.455 40.1221L392.821 40.1913L392.914 39.7001ZM400.314 41.1001H400.814V40.6858L400.407 40.6088L400.314 41.1001ZM400.314 65.8001H399.814V65.8132L399.815 65.8263L400.314 65.8001ZM400.614 71.5001L400.115 71.5263L400.116 71.5443L400.118 71.5621L400.614 71.5001ZM405.714 79.5001L405.424 79.9076L405.429 79.9105L405.714 79.5001ZM415.414 82.7001V83.2001H415.487L415.556 83.1795L415.414 82.7001ZM431.514 74.2001L431.964 73.9813L431.697 73.4322L431.211 73.8025L431.514 74.2001ZM436.214 80.2001L435.903 80.5919L435.91 80.5969L436.214 80.2001ZM483.993 80.9001L484.091 80.4098L483.493 80.2902V80.9001H483.993ZM511.293 38.3001L510.898 38.6067L510.903 38.6131L511.293 38.3001ZM497.893 31.6001V31.1001H497.871L497.849 31.102L497.893 31.6001ZM494.493 31.9001L494.449 31.402L494.308 31.4144L494.195 31.4987L494.493 31.9001ZM483.993 39.7001H483.493V40.6944L484.291 40.1014L483.993 39.7001ZM483.993 36.0001H484.493V35.7752L484.325 35.626L483.993 36.0001ZM478.693 31.3001H478.193V31.5249L478.361 31.6742L478.693 31.3001ZM478.693 31.2001H479.193V30.6861L478.679 30.7002L478.693 31.2001ZM458.893 34.9001L458.715 34.433L458.356 34.57L458.396 34.9519L458.893 34.9001ZM459.393 39.7001L458.896 39.7519L458.934 40.1212L459.299 40.1911L459.393 39.7001ZM466.693 41.1001H467.193V40.6868L466.787 40.609L466.693 41.1001ZM466.693 95.1001L466.876 95.5653L467.193 95.4405V95.1001H466.693ZM460.093 97.7001L459.91 97.2349L459.573 97.3674L459.594 97.7286L460.093 97.7001ZM460.293 101.2L459.794 101.229L459.821 101.7H460.293V101.2ZM493.293 101.2V101.7H493.773L493.793 101.22L493.293 101.2ZM493.493 96.3001L493.993 96.3205L494.005 96.0092L493.732 95.8606L493.493 96.3001ZM483.993 92.0001H483.493V92.3386L483.807 92.4643L483.993 92.0001ZM483.993 44.9001L483.784 44.4461L483.493 44.5801V44.9001H483.993ZM495.693 47.9001L495.263 48.1558L495.266 48.1604L495.693 47.9001ZM496.593 66.6001L496.124 66.4257L496.122 66.4319L496.593 66.6001ZM492.593 73.2001L492.63 73.6987L492.809 73.6856L492.939 73.5608L492.593 73.2001ZM483.993 72.3001H483.493V72.6842L483.864 72.7832L483.993 72.3001ZM563.549 58.1001L563.545 58.6L563.755 58.6017L563.903 58.4536L563.549 58.1001ZM538.349 57.9001L538.353 57.4001L537.792 57.3956L537.852 57.9536L538.349 57.9001ZM569.349 52.3001L569.703 52.6536L569.847 52.5093L569.849 52.3053L569.349 52.3001ZM563.349 36.9001L563.002 37.2595L563.005 37.2624L563.349 36.9001ZM529.449 38.8001L529.089 38.4535L529.089 38.4536L529.449 38.8001ZM529.349 75.5001L529.003 75.861L529.006 75.8633L529.349 75.5001ZM547.849 82.5001V83.0001H547.866L547.882 82.999L547.849 82.5001ZM552.449 82.2001L552.482 82.699L552.596 82.6915L552.696 82.635L552.449 82.2001ZM568.149 73.3001L568.396 73.735L568.788 73.5125L568.607 73.0992L568.149 73.3001ZM565.649 67.6001L566.107 67.3992L565.894 66.9125L565.421 67.1553L565.649 67.6001ZM542.949 67.9001L542.615 68.2722L542.62 68.2764L542.949 67.9001ZM544.849 39.3001L544.864 38.8003L544.713 38.7958L544.584 38.8761L544.849 39.3001ZM538.749 50.3001L538.256 50.2199L538.156 50.8366L538.779 50.7992L538.749 50.3001ZM550.649 42.4001L550.259 42.7124L550.265 42.7196L550.271 42.7265L550.649 42.4001ZM553.749 49.4001L553.779 49.8992L554.323 49.8665L554.244 49.3277L553.749 49.4001ZM598.675 48.2001L598.379 47.7969L598.175 47.9467V48.2001H598.675ZM598.675 71.9001H598.175V72.2947L598.559 72.3864L598.675 71.9001ZM600.175 47.1001L600.237 46.6039L600.04 46.5793L599.879 46.6969L600.175 47.1001ZM610.875 53.2001L610.554 53.5837L610.948 53.9127L611.267 53.5108L610.875 53.2001ZM622.375 38.7001L622.767 39.0108L622.94 38.7924L622.845 38.5302L622.375 38.7001ZM617.675 33.1001L617.416 33.5277L617.422 33.531L617.675 33.1001ZM606.575 31.6001L606.417 31.1257L606.29 31.168L606.201 31.2681L606.575 31.6001ZM598.675 40.5001H598.175V41.8165L599.049 40.832L598.675 40.5001ZM598.675 38.7001H599.175V38.5388L599.081 38.4079L598.675 38.7001ZM593.275 31.2001L593.681 30.9079L593.526 30.693L593.261 30.7002L593.275 31.2001ZM573.475 34.9001L573.297 34.433L572.938 34.57L572.978 34.9519L573.475 34.9001ZM573.975 39.7001L573.478 39.7519L573.516 40.1221L573.882 40.1913L573.975 39.7001ZM581.375 41.1001H581.875V40.6858L581.468 40.6088L581.375 41.1001ZM581.375 74.2001L581.54 74.6722L581.875 74.5552V74.2001H581.375ZM573.975 77.5001L573.724 77.0677L573.458 77.2219L573.476 77.5286L573.975 77.5001ZM574.175 81.0001L573.676 81.0286L573.703 81.5001H574.175V81.0001ZM609.375 81.0001V81.5001H609.855L609.875 81.0205L609.375 81.0001ZM609.575 76.1001L610.075 76.1205L610.087 75.8287L609.838 75.6749L609.575 76.1001ZM21.6329 28.0505L21.9651 27.6768L21.965 27.6768L21.6329 28.0505ZM21.5737 27.9979L21.9058 27.6242L21.7579 27.4926L21.5599 27.4981L21.5737 27.9979ZM27.0329 32.8505L26.7007 33.2242L26.7007 33.2242L27.0329 32.8505ZM27.1 32.9102H27.6V32.6857L27.4322 32.5365L27.1 32.9102ZM27.1 69.4571H26.6V69.8137L26.9371 69.9299L27.1 69.4571ZM34.2163 72.9373L34.5069 72.5304L34.5069 72.5304L34.2163 72.9373ZM34.3042 73.0001L34.8038 73.0205L34.8149 72.7504L34.5949 72.5933L34.3042 73.0001ZM34.2998 73.1082L34.7994 73.1286L34.2998 73.1082ZM34.0998 78.0082L34.5994 78.0286L34.0998 78.0082ZM34.092 78.2V78.7H34.572L34.5916 78.2204L34.092 78.2ZM2.01111 78.2L1.51192 78.2285L1.53886 78.7H2.01111V78.2ZM2.00033 78.0114L2.49951 77.9829H2.49951L2.00033 78.0114ZM1.80033 74.5114L2.29951 74.4829H2.29951L1.80033 74.5114ZM1.79326 74.3878L1.54518 73.9537L1.27642 74.1073L1.29408 74.4163L1.79326 74.3878ZM1.90078 74.3264L1.65271 73.8922L1.65269 73.8922L1.90078 74.3264ZM9.4 70.9572L9.56295 71.4299L9.9 71.3137V70.9572H9.4ZM9.4 38.2657H9.9V37.8514L9.49295 37.7744L9.4 38.2657ZM2.16282 36.8965L2.25577 36.4052L2.25576 36.4052L2.16282 36.8965ZM2.01651 36.8688L1.5192 36.9206L1.55777 37.2909L1.92357 37.3601L2.01651 36.8688ZM2.00108 36.7207L2.49839 36.6689L2.00108 36.7207ZM1.50108 31.9207L1.00377 31.9725L1.00377 31.9725L1.50108 31.9207ZM1.48517 31.768L1.30673 31.3009L0.948082 31.4379L0.987859 31.8198L1.48517 31.768ZM1.62863 31.7132L1.4502 31.2461H1.45019L1.62863 31.7132ZM21.4945 28.0001L21.4807 27.5003H21.4807L21.4945 28.0001ZM2.3835 36.5312L1.88619 36.583L1.92476 36.9533L2.29055 37.0225L2.3835 36.5312ZM1.91486 32.0323L1.73786 31.5647L1.37765 31.701L1.41755 32.0841L1.91486 32.0323ZM9.63718 37.9035L9.54424 38.3948L9.54424 38.3948L9.63718 37.9035ZM9.8 37.9343H10.3V37.52L9.89295 37.443L9.8 37.9343ZM9.8 71.2431L9.96156 71.7162L10.3 71.6007V71.2431H9.8ZM9.66463 71.2893L9.50308 70.8161L9.50306 70.8161L9.66463 71.2893ZM2.20675 74.6124L1.96004 74.1775L1.68985 74.3308L1.70757 74.641L2.20675 74.6124ZM2.3889 77.8L1.88972 77.8285L1.91666 78.3H2.3889V77.8ZM33.708 77.8V78.3H34.188L34.2076 77.8204L33.708 77.8ZM33.8957 73.2003L34.3953 73.2207L34.4064 72.9486L34.1839 72.7917L33.8957 73.2003ZM26.8355 69.7893L26.9968 69.3161L26.9968 69.316L26.8355 69.7893ZM26.7 69.7431H26.2V70.101L26.5387 70.2164L26.7 69.7431ZM26.7 33.0898H27.2V32.8653L27.0322 32.7161L26.7 33.0898ZM21.4264 28.4022L21.7586 28.0284L21.6103 27.8967L21.4121 27.9024L21.4264 28.4022ZM86.9409 29.6458L86.8387 29.1563L86.9409 29.6458ZM113.032 35.2083L113.465 34.959L113.453 34.9379L113.439 34.918L113.032 35.2083ZM113.852 37.9812L113.359 38.0592L113.852 37.9812ZM114.2 42.7018H114.7L114.7 42.693L114.2 42.7018ZM114.881 67.6886L114.52 68.0352L114.52 68.0352L114.881 67.6886ZM116.9 68.4H117.4V67.9H116.9V68.4ZM116.9 68.4001H116.4V68.919L116.919 68.8998L116.9 68.4001ZM116.907 68.3999L116.889 67.9002H116.889L116.907 68.3999ZM119.607 68.2999H120.107V67.781L119.589 67.8002L119.607 68.2999ZM119.607 68.3001H119.107V68.8437L119.649 68.7983L119.607 68.3001ZM119.617 68.2993L119.575 67.801L119.575 67.8011L119.617 68.2993ZM121.827 68.1151L122.323 68.0475L122.259 67.5774L121.786 67.6168L121.827 68.1151ZM122.383 72.1921L122.628 72.6283L122.925 72.4618L122.879 72.1246L122.383 72.1921ZM109.351 79.498L109.33 79.9975L109.472 80.0036L109.596 79.9341L109.351 79.498ZM103.916 77.4373L103.626 77.8441L103.916 77.4373ZM99.3743 72.302L98.9385 72.5471L98.9385 72.5471L99.3743 72.302ZM99.2697 72.116L99.7055 71.8709L99.444 71.4059L98.997 71.697L99.2697 72.116ZM99.0909 72.2324L99.3637 72.6514V72.6514L99.0909 72.2324ZM88.5327 79.1052L88.5767 79.6032L88.701 79.5923L88.8055 79.5242L88.5327 79.1052ZM85.1912 79.4L85.191 79.9L85.2132 79.9L85.2352 79.8981L85.1912 79.4ZM74.4816 75.6494L74.8105 75.2728L74.4816 75.6494ZM78.1519 54.999L78.1414 54.4991L78.022 54.5016L77.9166 54.5578L78.1519 54.999ZM97.1042 54.6L97.1147 55.0999H97.1148L97.1042 54.6ZM97.3 54.5958L97.3105 55.0957L97.8 55.0854V54.5958H97.3ZM92.5925 35.9227L92.8238 35.4794L92.8238 35.4794L92.5925 35.9227ZM92.5431 35.8969L92.7744 35.4536L92.6509 35.3892L92.5119 35.3979L92.5431 35.8969ZM92.4875 35.9004L92.5187 36.3994H92.5187L92.4875 35.9004ZM86.8231 37.1154L87.0154 37.5769L87.0154 37.5769L86.8231 37.1154ZM86.7268 37.1555L86.5345 36.694L86.2939 36.7942L86.2383 37.0489L86.7268 37.1555ZM86.7046 37.2574L87.1931 37.364V37.3639L86.7046 37.2574ZM84.3382 48.1033L84.3484 48.6032L84.7427 48.5951L84.8267 48.2099L84.3382 48.1033ZM74.841 48.2971L74.3686 48.461L74.4877 48.8044L74.8512 48.797L74.841 48.2971ZM73 37.1054L72.5007 37.0784L72.5 37.0919V37.1055L73 37.1054ZM73.1927 33.5405L73.0147 33.0732L72.711 33.189L72.6935 33.5135L73.1927 33.5405ZM86.8591 29.2542L86.9613 29.7437L86.8591 29.2542ZM72.9284 33.2133L72.7495 32.7464L72.7495 32.7464L72.9284 33.2133ZM72.8073 33.2597L72.6283 32.7928L72.3256 32.9089L72.308 33.2327L72.8073 33.2597ZM72.8003 33.3892L72.301 33.3622V33.3622L72.8003 33.3892ZM72.6003 37.0892L72.574 37.5885L73.0726 37.6148L73.0996 37.1162L72.6003 37.0892ZM72.6 37.0892L72.6263 36.5899L72.1 36.5622V37.0892H72.6ZM74.5114 48.5664L74.983 48.4004V48.4004L74.5114 48.5664ZM74.5594 48.7029L74.0877 48.8689L74.2078 49.2102L74.5696 49.2028L74.5594 48.7029ZM74.7041 48.7L74.7143 49.1999L74.7041 48.7ZM84.5041 48.5L84.5143 48.9999H84.5143L84.5041 48.5ZM84.6618 48.4967L84.672 48.9966L85.0662 48.9886L85.1503 48.6033L84.6618 48.4967ZM84.6954 48.3426L84.2069 48.2361L84.6954 48.3426ZM87.0731 37.445L86.8845 36.9819L86.6407 37.0812L86.5846 37.3384L87.0731 37.445ZM92.4566 36.3032L92.6911 35.8616L92.5658 35.795L92.4243 35.8042L92.4566 36.3032ZM96.9 54.2042L96.9105 54.7041L97.4 54.6938V54.2042H96.9ZM78.0958 54.6001L78.0853 54.1002H78.0853L78.0958 54.6001ZM78.0482 54.6011L78.0377 54.1012L77.9188 54.1037L77.8138 54.1594L78.0482 54.6011ZM78.0062 54.6234L78.2407 55.065L78.2407 55.065L78.0062 54.6234ZM74.2184 75.9506L74.5474 75.5741L74.2184 75.9506ZM85.2088 79.8V80.3H85.231L85.253 80.298L85.2088 79.8ZM85.2176 79.7992L85.1736 79.3012L85.1734 79.3012L85.2176 79.7992ZM88.6176 79.4992L88.6615 79.9973H88.6615L88.6176 79.4992ZM88.6673 79.4949L88.7113 79.9929L88.8355 79.9819L88.9401 79.9139L88.6673 79.4949ZM88.7091 79.4676L88.4363 79.0486L88.4363 79.0486L88.7091 79.4676ZM99.1313 72.6834L99.5643 72.4332L99.3005 71.9766L98.8586 72.2643L99.1313 72.6834ZM103.684 77.7628L103.393 78.1696L103.684 77.7628ZM109.393 79.8999L109.411 79.4002H109.411L109.393 79.8999ZM109.449 79.9019L109.431 80.4016L109.571 80.4066L109.693 80.338L109.449 79.9019ZM109.498 79.8745L109.253 79.4383L109.253 79.4383L109.498 79.8745ZM122.698 72.4745L122.453 72.0383H122.453L122.698 72.4745ZM122.817 72.4079L123.061 72.844L123.358 72.6776L123.312 72.3403L122.817 72.4079ZM122.798 72.273L123.294 72.2054V72.2054L122.798 72.273ZM122.198 67.873L121.703 67.9405L122.198 67.873ZM122.173 67.6849L122.668 67.6174L122.604 67.1473L122.131 67.1867L122.173 67.6849ZM121.983 67.7007L122.025 68.199H122.025L121.983 67.7007ZM119.588 67.9003L119.606 68.4L119.618 68.3995L119.63 68.3986L119.588 67.9003ZM116.896 68L116.896 68.5L116.905 68.5L116.915 68.4997L116.896 68ZM115.169 67.4114L114.809 67.7579L114.809 67.7579L115.169 67.4114ZM114.6 65.6H114.1H114.6ZM114.6 42.7H115.1L115.1 42.6913L114.6 42.7ZM114.6 42.6965L115.1 42.6878V42.6877L114.6 42.6965ZM114.248 37.9188L114.741 37.8408V37.8408L114.248 37.9188ZM113.373 34.9998L113.806 34.7493L113.806 34.7493L113.373 34.9998ZM113.368 34.9916L113.801 34.7411L113.789 34.7208L113.776 34.7017L113.368 34.9916ZM113.363 34.984L113.77 34.694L113.77 34.6939L113.363 34.984ZM97.104 60.3L97.094 60.7999L97.104 60.3ZM97.3 60.304H97.8V59.8139L97.31 59.8041L97.3 60.304ZM97.3 68.0459L97.4528 68.522L97.8 68.4106V68.0459H97.3ZM97.1611 68.0905L97.3138 68.5666L97.3138 68.5666L97.1611 68.0905ZM88.8133 69.9996L88.8466 70.4985H88.8466L88.8133 69.9996ZM88.7228 70.0056L88.3692 70.3592L88.5296 70.5196L88.756 70.5045L88.7228 70.0056ZM87.5573 63.1286L87.9766 63.4009V63.4009L87.5573 63.1286ZM87.8927 63.3464L87.4734 63.0741L87.8927 63.3464ZM88.8779 69.5941L88.5191 69.9423L88.6817 70.1098L88.9145 70.0927L88.8779 69.5941ZM96.9 67.754L97.0519 68.2304L97.4 68.1194V67.754H96.9ZM96.9 60.6966H97.4V60.2039L96.9074 60.1966L96.9 60.6966ZM144.781 27.9977L145.134 27.6442L144.982 27.492L144.767 27.4979L144.781 27.9977ZM144.841 28.0586L144.488 28.4121L144.488 28.4121L144.841 28.0586ZM144.695 28.0001L144.708 28.4999L144.695 28.0001ZM124.829 31.7132L125.007 32.1803L124.829 31.7132ZM124.685 31.768L124.507 31.3009L124.148 31.4379L124.188 31.8198L124.685 31.768ZM124.701 31.9207L125.198 31.8689V31.8689L124.701 31.9207ZM125.201 36.7207L125.698 36.6689V36.6689L125.201 36.7207ZM125.217 36.8688L124.719 36.9206L124.758 37.2909L125.124 37.3601L125.217 36.8688ZM125.363 36.8965L125.456 36.4052L125.456 36.4052L125.363 36.8965ZM132.6 38.2657H133.1V37.8514L132.693 37.7744L132.6 38.2657ZM132.6 71.0581L132.766 71.5299L133.1 71.4124V71.0581H132.6ZM125.3 74.327L125.049 73.8947L125.049 73.8947L125.3 74.327ZM125.193 74.3887L124.942 73.9564L124.677 74.1106L124.694 74.4173L125.193 74.3887ZM125.2 74.5114L124.701 74.5399V74.5399L125.2 74.5114ZM125.4 78.0114L125.9 77.9829V77.9829L125.4 78.0114ZM125.411 78.2L124.912 78.2285L124.939 78.7H125.411V78.2ZM155.892 78.2V78.7H156.372L156.392 78.2204L155.892 78.2ZM155.9 78.0082L155.4 77.9878V77.9878L155.9 78.0082ZM156.1 73.1082L156.599 73.1286V73.1286L156.1 73.1082ZM156.104 73.0012L156.604 73.0216L156.615 72.7542L156.398 72.5969L156.104 73.0012ZM156.018 72.9383L156.312 72.5339H156.312L156.018 72.9383ZM150.3 69.7702H149.8V70.0943L150.096 70.2266L150.3 69.7702ZM150.3 41.8322L150.105 41.3717L149.8 41.5009V41.8322H150.3ZM160.731 42.832L161.153 42.5644V42.5644L160.731 42.832ZM162.3 78.2H161.8V78.7H162.3V78.2ZM185.688 78.2V78.7H186.158L186.187 78.2305L185.688 78.2ZM185.7 78.0122L185.201 77.9817V77.9817L185.7 78.0122ZM186 73.1122L186.499 73.1428V73.1428L186 73.1122ZM186.007 72.9995L186.506 73.03L186.523 72.7482L186.29 72.5879L186.007 72.9995ZM185.914 72.9354L186.197 72.5238L186.197 72.5238L185.914 72.9354ZM180 69.6671L179.5 69.6689L179.501 69.9986L179.804 70.1274L180 69.6671ZM179.9 41.9271L179.69 41.4735L179.399 41.6084L179.4 41.9289L179.9 41.9271ZM190.531 42.832L190.953 42.5644V42.5644L190.531 42.832ZM192.1 78.2H191.6V78.7H192.1V78.2ZM217.188 78.2V78.7H217.658L217.687 78.2305L217.188 78.2ZM217.2 78.0122L216.701 77.9817V77.9817L217.2 78.0122ZM217.5 73.1122L217.999 73.1428V73.1428L217.5 73.1122ZM217.507 72.9995L218.006 73.03L218.023 72.7482L217.79 72.5879L217.507 72.9995ZM217.414 72.9354L217.697 72.5238L217.697 72.5238L217.414 72.9354ZM209.8 69.2589H209.3V69.6113L209.632 69.7297L209.8 69.2589ZM209.8 44.8H210.3L210.3 44.7946L209.8 44.8ZM209.8 44.7972L210.3 44.7918L210.3 44.7901L209.8 44.7972ZM209.448 38.9489L209.944 38.8835V38.8835L209.448 38.9489ZM208.575 35.6036L209.013 35.3627L209.013 35.362L208.575 35.6036ZM208.572 35.597L209.009 35.3555L209.001 35.3397L208.991 35.3245L208.572 35.597ZM208.568 35.5908L208.987 35.3182L208.986 35.3176L208.568 35.5908ZM194.506 28.3001L194.522 27.8004L194.506 28.3001ZM194.472 28.299L194.488 27.7993L194.402 27.7965L194.32 27.8227L194.472 28.299ZM194.439 28.3095L194.591 28.7858L194.591 28.7858L194.439 28.3095ZM179.277 36.6897L178.823 36.8992L179.084 37.4646L179.58 37.0876L179.277 36.6897ZM178.782 35.6162L178.328 35.8256L178.328 35.8257L178.782 35.6162ZM178.775 35.603L179.23 35.3936L179.214 35.3604L179.194 35.3297L178.775 35.603ZM178.768 35.5908L178.349 35.8639L178.349 35.864L178.768 35.5908ZM164.706 28.3001L164.722 27.8004H164.722L164.706 28.3001ZM164.673 28.299L164.688 27.7993L164.604 27.7966L164.523 27.8219L164.673 28.299ZM164.64 28.3092L164.79 28.7863L164.79 28.7863L164.64 28.3092ZM150.3 36.0062H149.8V36.9879L150.594 36.4106L150.3 36.0062ZM150.3 33.5172H150.8V33.31L150.654 33.1636L150.3 33.5172ZM150.241 33.4586L149.888 33.8121L149.888 33.8122L150.241 33.4586ZM125.115 32.0323L124.938 31.5647L124.578 31.701L124.618 32.0841L125.115 32.0323ZM125.584 36.5312L125.086 36.583L125.125 36.9533L125.491 37.0225L125.584 36.5312ZM144.62 28.4023L144.973 28.0488L144.821 27.8964L144.605 27.9026L144.62 28.4023ZM149.9 33.6828H150.4V33.4757L150.254 33.3293L149.9 33.6828ZM149.9 36.795H149.4V37.7823L150.196 37.198L149.9 36.795ZM150.218 36.5612L149.922 36.1582V36.1582L150.218 36.5612ZM164.727 28.701L164.744 28.2013L164.659 28.1985L164.577 28.2241L164.727 28.701ZM178.425 35.7971L178.879 35.5876L178.863 35.5543L178.843 35.5236L178.425 35.7971ZM179.018 37.0838L178.564 37.2934L179.018 37.0838ZM179.123 37.3107L178.669 37.5202L178.931 38.0875L179.427 37.7077L179.123 37.3107ZM179.322 37.1588L179.018 36.7618L179.018 36.7618L179.322 37.1588ZM194.528 28.701L194.545 28.2013L194.458 28.1984L194.375 28.2249L194.528 28.701ZM208.228 35.8029L208.667 35.563L208.658 35.5459L208.647 35.5296L208.228 35.8029ZM209.052 39.0011L209.547 38.9358L209.052 39.0011ZM209.4 44.8017H209.9L209.9 44.7947L209.4 44.8017ZM209.4 69.5414H208.9V69.8947L209.233 70.0127L209.4 69.5414ZM209.533 69.5885L209.7 69.1172V69.1172L209.533 69.5885ZM217.093 73.2009L217.593 73.2315L217.61 72.9476L217.375 72.7876L217.093 73.2009ZM216.812 77.8V78.3H217.282L217.311 77.8306L216.812 77.8ZM192.5 77.8H192V78.3H192.5V77.8ZM190.869 42.6179L191.291 42.3503L190.869 42.6179ZM179.615 41.619L179.828 42.0715H179.828L179.615 41.619ZM179.5 41.6733L179.287 41.2209L178.998 41.3565L179 41.6751L179.5 41.6733ZM179.5 41.8007L180 41.7989V41.7989L179.5 41.8007ZM179.6 69.8007L179.1 69.8025V69.8026L179.6 69.8007ZM179.6 69.9332L179.1 69.9351L179.102 70.2662L179.407 70.3943L179.6 69.9332ZM179.723 69.9845L179.529 70.4455L179.529 70.4455L179.723 69.9845ZM185.593 73.2007L186.093 73.2313L186.11 72.9484L185.876 72.7882L185.593 73.2007ZM185.312 77.8V78.3H185.782L185.811 77.8306L185.312 77.8ZM162.7 77.8H162.2V78.3H162.7V77.8ZM161.069 42.6179L160.647 42.8856V42.8856L161.069 42.6179ZM150.021 41.5162L149.824 41.0566L149.824 41.0566L150.021 41.5162ZM149.9 41.5681L149.703 41.1086L149.4 41.2384V41.5681H149.9ZM149.9 70.03H149.4V70.3549L149.697 70.4869L149.9 70.03ZM150.019 70.0828L150.222 69.6259L150.019 70.0828ZM155.696 73.1992L156.195 73.2196L156.206 72.9503L155.987 72.7931L155.696 73.1992ZM155.508 77.8V78.3H155.988L156.008 77.8204L155.508 77.8ZM125.789 77.8L125.29 77.8285L125.317 78.3H125.789V77.8ZM125.607 74.6116L125.357 74.1781L125.09 74.332L125.108 74.6401L125.607 74.6116ZM132.866 71.3888L133.031 71.8609H133.031L132.866 71.3888ZM133 71.3421L133.165 71.8142L133.5 71.6972V71.3421H133ZM133 37.9343H133.5V37.52L133.093 37.443L133 37.9343ZM132.837 37.9035L132.744 38.3948V38.3948L132.837 37.9035ZM270.041 29.6458L270.143 30.1352L270.041 29.6458ZM256.293 33.5405L256.115 33.0732L255.811 33.189L255.793 33.5135L256.293 33.5405ZM256.1 37.1054L255.601 37.0784L255.6 37.0919V37.1055L256.1 37.1054ZM257.941 48.2971L257.469 48.461L257.588 48.8044L257.951 48.797L257.941 48.2971ZM267.438 48.1033L267.448 48.6032L267.843 48.5951L267.927 48.2099L267.438 48.1033ZM269.805 37.2574L270.293 37.364L270.293 37.3639L269.805 37.2574ZM269.827 37.1555L269.635 36.694L269.394 36.7942L269.338 37.049L269.827 37.1555ZM269.923 37.1154L270.115 37.5769H270.115L269.923 37.1154ZM275.588 35.9004L275.619 36.3994L275.588 35.9004ZM275.643 35.8969L275.874 35.4537L275.751 35.3892L275.612 35.3979L275.643 35.8969ZM275.693 35.9227L275.461 36.366L275.461 36.366L275.693 35.9227ZM280.4 54.5958L280.411 55.0957L280.9 55.0854V54.5958H280.4ZM280.204 54.6L280.215 55.0999L280.204 54.6ZM261.252 54.999L261.241 54.4991L261.122 54.5016L261.017 54.5578L261.252 54.999ZM257.582 75.6494L257.911 75.2728L257.582 75.6494ZM268.291 79.4L268.291 79.9L268.313 79.9L268.335 79.8981L268.291 79.4ZM271.633 79.1052L271.677 79.6032L271.801 79.5923L271.905 79.5242L271.633 79.1052ZM282.191 72.2324L282.464 72.6514L282.464 72.6514L282.191 72.2324ZM282.37 72.116L282.805 71.8708L282.544 71.4059L282.097 71.697L282.37 72.116ZM282.474 72.302L282.91 72.0568V72.0568L282.474 72.302ZM287.016 77.4373L286.726 77.8441L287.016 77.4373ZM292.451 79.498L292.43 79.9975L292.572 80.0036L292.696 79.9341L292.451 79.498ZM305.483 72.1921L305.728 72.6283L306.025 72.4618L305.979 72.1246L305.483 72.1921ZM304.927 68.1151L305.423 68.0475L305.359 67.5774L304.886 67.6168L304.927 68.1151ZM302.717 68.2993L302.675 67.801L302.675 67.8011L302.717 68.2993ZM302.707 68.3001L302.726 68.7997L302.737 68.7993L302.749 68.7983L302.707 68.3001ZM300.007 68.3999L299.989 67.9002H299.989L300.007 68.3999ZM300 68.4001L300 68.9001H300.009L300.019 68.8998L300 68.4001ZM297.981 67.6886L298.341 67.3421V67.3421L297.981 67.6886ZM297.3 42.7018H297.8L297.8 42.693L297.3 42.7018ZM296.952 37.9812L297.446 37.9032L297.446 37.9032L296.952 37.9812ZM296.132 35.2083L296.565 34.959L296.553 34.9379L296.539 34.918L296.132 35.2083ZM269.959 29.2542L270.061 29.7437L269.959 29.2542ZM296.463 34.984L296.87 34.694L296.87 34.6939L296.463 34.984ZM296.468 34.9916L296.901 34.7408L296.889 34.7207L296.876 34.7017L296.468 34.9916ZM296.473 34.9998L296.906 34.7493L296.906 34.7489L296.473 34.9998ZM297.348 37.9188L296.854 37.9968L296.854 37.9968L297.348 37.9188ZM297.7 42.6965L298.2 42.6878L298.2 42.6877L297.7 42.6965ZM297.7 42.7H298.2L298.2 42.6913L297.7 42.7ZM297.7 65.6H297.2H297.7ZM298.269 67.4114L298.63 67.0648V67.0648L298.269 67.4114ZM299.996 68L299.996 68.5L300.005 68.5L300.015 68.4997L299.996 68ZM302.688 67.9003L302.706 68.4L302.718 68.3995L302.729 68.3986L302.688 67.9003ZM305.083 67.7007L305.125 68.199L305.083 67.7007ZM305.273 67.6849L305.768 67.6174L305.704 67.1473L305.231 67.1867L305.273 67.6849ZM305.298 67.873L304.803 67.9405V67.9405L305.298 67.873ZM305.898 72.273L305.403 72.3405V72.3406L305.898 72.273ZM305.917 72.4079L306.161 72.844L306.458 72.6776L306.412 72.3403L305.917 72.4079ZM305.798 72.4745L305.553 72.0383L305.553 72.0383L305.798 72.4745ZM292.598 79.8745L292.353 79.4383L292.353 79.4384L292.598 79.8745ZM292.549 79.9019L292.531 80.4016L292.671 80.4066L292.793 80.338L292.549 79.9019ZM292.493 79.8999L292.511 79.4002H292.511L292.493 79.8999ZM286.784 77.7628L287.074 77.3559L286.784 77.7628ZM282.231 72.6834L282.664 72.4332L282.4 71.9766L281.959 72.2643L282.231 72.6834ZM271.809 79.4676L272.082 79.8867L272.082 79.8867L271.809 79.4676ZM271.767 79.4949L271.811 79.9929L271.935 79.982L272.04 79.914L271.767 79.4949ZM271.718 79.4992L271.762 79.9973L271.718 79.4992ZM268.318 79.7992L268.274 79.3012L268.273 79.3012L268.318 79.7992ZM268.309 79.8V80.3H268.331L268.353 80.298L268.309 79.8ZM257.318 75.9506L257.647 75.5741L257.318 75.9506ZM261.106 54.6234L260.872 54.1817L260.872 54.1817L261.106 54.6234ZM261.148 54.6011L261.138 54.1012L261.019 54.1037L260.914 54.1594L261.148 54.6011ZM261.196 54.6001L261.185 54.1002H261.185L261.196 54.6001ZM280 54.2042L280.011 54.7041L280.5 54.6938V54.2042H280ZM275.557 36.3032L275.791 35.8616L275.666 35.795L275.524 35.8042L275.557 36.3032ZM270.173 37.445L269.985 36.9819L269.741 37.0812L269.685 37.3384L270.173 37.445ZM267.795 48.3426L267.307 48.2361L267.307 48.2361L267.795 48.3426ZM267.762 48.4967L267.772 48.9966L268.166 48.9886L268.25 48.6033L267.762 48.4967ZM267.604 48.5L267.614 48.9999L267.604 48.5ZM257.804 48.7L257.814 49.1999L257.804 48.7ZM257.659 48.7029L257.188 48.8689L257.308 49.2102L257.67 49.2028L257.659 48.7029ZM257.611 48.5664L258.083 48.4004V48.4004L257.611 48.5664ZM255.7 37.0892L255.726 36.5899L255.2 36.5622V37.0892H255.7ZM255.7 37.0892L255.674 37.5885L256.173 37.6148L256.2 37.1162L255.7 37.0892ZM255.9 33.3892L255.401 33.3622V33.3622L255.9 33.3892ZM255.907 33.2597L255.728 32.7928L255.426 32.9089L255.408 33.2327L255.907 33.2597ZM256.028 33.2133L255.849 32.7464L255.849 32.7464L256.028 33.2133ZM272.611 61.4711L272.834 61.9183V61.9183L272.611 61.4711ZM280.204 60.3L280.194 60.7999H280.194L280.204 60.3ZM270.657 63.1286L270.238 62.8563V62.8563L270.657 63.1286ZM271.759 69.9414L272.112 69.5879L272.112 69.5879L271.759 69.9414ZM271.823 70.0056L271.469 70.3591L271.63 70.5196L271.856 70.5045L271.823 70.0056ZM271.913 69.9996L271.947 70.4985H271.947L271.913 69.9996ZM280.261 68.0905L280.414 68.5666H280.414L280.261 68.0905ZM280.4 68.0459L280.553 68.522L280.9 68.4106V68.0459H280.4ZM280.4 60.304H280.9V59.8139L280.41 59.8041L280.4 60.304ZM270.993 63.3464L270.573 63.0741V63.0741L270.993 63.3464ZM272.789 61.8289L272.566 61.3817V61.3817L272.789 61.8289ZM280 60.6966H280.5V60.2039L280.007 60.1966L280 60.6966ZM280 67.754L280.152 68.2304L280.5 68.1194V67.754H280ZM271.978 69.5941L271.619 69.9423L271.782 70.1098L272.014 70.0927L271.978 69.5941ZM643.577 62.7153L643.769 62.2538V62.2538L643.577 62.7153ZM643.484 62.6768L643.677 62.2153L643.445 62.1189L643.23 62.2465L643.484 62.6768ZM654.16 71.28L653.76 71.58L653.76 71.58L654.16 71.28ZM654.225 71.3669L654.695 71.5396L654.788 71.2844L654.625 71.0669L654.225 71.3669ZM654.188 71.469L653.719 71.2964L653.718 71.2964L654.188 71.469ZM645.712 82.3655L645.993 82.7794L645.993 82.7794L645.712 82.3655ZM645.624 82.4256L645.435 82.8886L645.683 82.9896L645.904 82.8395L645.624 82.4256ZM645.525 82.3852L645.713 81.9222L645.713 81.9221L645.525 82.3852ZM639.479 78.7594L639.177 79.1579L639.479 78.7594ZM634.437 73.8156L634.845 73.5266V73.5265L634.437 73.8156ZM634.367 73.7172L633.921 73.4912L633.785 73.7602L633.959 74.0062L634.367 73.7172ZM634.422 73.6096L634.868 73.8356L634.868 73.8355L634.422 73.6096ZM643.398 62.7278L643.653 63.1581L643.653 63.1581L643.398 62.7278ZM634.833 73.6823L634.388 73.4554L634.249 73.7274L634.428 73.9749L634.833 73.6823ZM643.516 63.1235L643.71 62.6628L643.476 62.5639L643.258 62.6951L643.516 63.1235ZM639.721 78.4405L640.023 78.042L639.721 78.4405ZM645.576 81.974L645.385 82.4358L645.635 82.5398L645.859 82.3866L645.576 81.974ZM653.775 71.433L654.243 71.6075L654.339 71.3505L654.174 71.1317L653.775 71.433ZM674.984 62.6768L675.177 62.2153L674.945 62.1189L674.73 62.2465L674.984 62.6768ZM675.077 62.7153L675.269 62.2538V62.2538L675.077 62.7153ZM674.898 62.7278L675.153 63.1581L675.153 63.1581L674.898 62.7278ZM665.922 73.6096L666.368 73.8356L666.368 73.8355L665.922 73.6096ZM665.867 73.7172L665.421 73.4912L665.285 73.7602L665.459 74.0062L665.867 73.7172ZM665.937 73.8156L666.345 73.5266V73.5265L665.937 73.8156ZM670.979 78.7594L670.677 79.1579L670.979 78.7594ZM677.025 82.3852L677.213 81.9222L677.213 81.9221L677.025 82.3852ZM677.124 82.4256L676.935 82.8886L677.183 82.9896L677.404 82.8395L677.124 82.4256ZM677.212 82.3655L677.493 82.7794L677.493 82.7794L677.212 82.3655ZM685.688 71.469L685.219 71.2964L685.218 71.2964L685.688 71.469ZM685.725 71.3669L686.195 71.5396L686.288 71.2844L686.125 71.0669L685.725 71.3669ZM685.66 71.28L685.26 71.58L685.26 71.58L685.66 71.28ZM675.016 63.1235L675.21 62.6628L674.976 62.5639L674.758 62.6951L675.016 63.1235ZM666.333 73.6823L665.888 73.4554L665.749 73.7274L665.928 73.9749L666.333 73.6823ZM685.275 71.433L685.743 71.6075L685.839 71.3505L685.674 71.1317L685.275 71.433ZM677.076 81.974L676.885 82.4358L677.135 82.5398L677.359 82.3866L677.076 81.974ZM671.221 78.4405L671.523 78.042L671.221 78.4405ZM16.951 2.00842L17.0611 2.06591L17.5241 1.17956L17.4141 1.12207L16.951 2.00842ZM17.3767 2.04245L17.477 1.96932L16.8881 1.16118L16.7877 1.23431L17.3767 2.04245ZM7.56622 13.9383C10.2155 8.83841 13.4873 4.87712 17.3767 2.04245L16.7877 1.23431C12.7519 4.17569 9.38607 8.26586 6.67882 13.4773L7.56622 13.9383ZM7.5049 14.0563L7.56623 13.9383L6.67882 13.4773L6.6175 13.5954L7.5049 14.0563ZM7.53047 13.608L7.44531 13.5058L6.67709 14.1459L6.76225 14.2481L7.53047 13.608ZM19.3229 22.6264C14.7659 20.579 10.8356 17.5741 7.53047 13.608L6.76225 14.2481C10.1614 18.3271 14.2129 21.4268 18.9131 23.5385L19.3229 22.6264ZM19.4279 22.6735L19.3229 22.6264L18.9131 23.5385L19.0181 23.5857L19.4279 22.6735ZM19.0252 22.6562L18.9317 22.7232L19.5142 23.536L19.6078 23.469L19.0252 22.6562ZM28.2317 11.8658C26.0535 16.2222 22.9856 19.8179 19.0252 22.6562L19.6078 23.469C23.7003 20.536 26.8752 16.8149 29.1261 12.3131L28.2317 11.8658ZM28.2844 11.7604L28.2317 11.8658L29.1261 12.3131L29.1788 12.2076L28.2844 11.7604ZM28.2527 12.1698L28.3194 12.267L29.1438 11.701L29.0771 11.6038L28.2527 12.1698ZM17.0611 2.06591C21.4811 4.37487 25.2116 7.74041 28.2527 12.1698L29.0771 11.6038C25.9507 7.0501 22.0997 3.56981 17.5241 1.17956L17.0611 2.06591ZM16.9212 1.63236C13.0196 4.50309 9.74614 8.4768 7.09603 13.5423L7.98209 14.0059C10.5747 9.05035 13.7555 5.20314 17.5138 2.43782L16.9212 1.63236ZM28.6795 11.7317C25.6252 7.31329 21.8823 3.93143 17.4509 1.59288L16.9841 2.47729C21.2629 4.73524 24.8871 8.00421 27.8569 12.3003L28.6795 11.7317ZM19.4697 23.0755C23.4311 20.2145 26.5136 16.6021 28.7145 12.2413L27.8218 11.7907C25.693 16.0085 22.7159 19.4975 18.8842 22.2649L19.4697 23.0755ZM7.15612 14.0956C10.4739 18.0476 14.4125 21.0587 18.9705 23.1256L19.3835 22.2148C14.9661 20.2117 11.1468 17.2938 7.922 13.4526L7.15612 14.0956ZM362.416 42.9001C362.416 44.233 362.901 45.4467 363.838 46.5275L364.594 45.8726C363.797 44.9535 363.416 43.9671 363.416 42.9001H362.416ZM366.772 38.2211C365.39 38.6358 364.301 39.2206 363.554 40.0052C362.795 40.8017 362.416 41.7766 362.416 42.9001H363.416C363.416 42.0235 363.703 41.2984 364.278 40.6949C364.864 40.0795 365.775 39.5643 367.059 39.179L366.772 38.2211ZM371.57 38.703L366.97 38.203L366.862 39.1971L371.462 39.6971L371.57 38.703ZM375.089 48.1388L371.989 39.0388L371.042 39.3613L374.142 48.4613L375.089 48.1388ZM383.416 47.8001H374.616V48.8001H383.416V47.8001ZM384.616 37.8001C384.616 41.2114 384.058 44.6599 382.94 48.1473L383.892 48.4528C385.04 44.8736 385.616 41.3221 385.616 37.8001H384.616ZM384.417 34.3286L384.617 37.8286L385.615 37.7715L385.415 34.2715L384.417 34.3286ZM369.416 31.5001C375.423 31.5001 380.507 32.5894 384.687 34.7445L385.145 33.8557C380.791 31.6108 375.542 30.5001 369.416 30.5001V31.5001ZM353.705 35.8078C357.732 32.9497 362.956 31.5001 369.416 31.5001V30.5001C362.809 30.5001 357.366 31.9837 353.126 34.9923L353.705 35.8078ZM347.816 46.7001C347.816 42.2082 349.76 38.589 353.704 35.8087L353.128 34.9914C348.938 37.9444 346.816 41.8585 346.816 46.7001H347.816ZM350.412 54.2947C348.679 52.0484 347.816 49.5223 347.816 46.7001H346.816C346.816 49.7445 347.753 52.4851 349.62 54.9055L350.412 54.2947ZM360.746 61.5564C355.626 58.8965 352.201 56.4676 350.402 54.2822L349.63 54.9179C351.563 57.2658 355.139 59.7703 360.285 62.4438L360.746 61.5564ZM370.081 67.0589C369.559 66.4989 368.498 65.7664 366.969 64.8689C365.422 63.9608 363.344 62.8551 360.739 61.5528L360.292 62.4473C362.887 63.745 364.943 64.8393 366.463 65.7313C368 66.6337 368.94 67.3012 369.35 67.7412L370.081 67.0589ZM371.716 70.8001C371.716 69.3848 371.151 68.1283 370.069 67.0465L369.362 67.7536C370.28 68.6718 370.716 69.682 370.716 70.8001H371.716ZM369.748 74.8738C371.037 73.7276 371.716 72.3645 371.716 70.8001H370.716C370.716 72.0356 370.194 73.1392 369.083 74.1264L369.748 74.8738ZM351.111 64.8962C356.948 69.3914 362.994 72.7518 369.248 74.9713L369.583 74.0288C363.438 71.8483 357.484 68.542 351.721 64.1039L351.111 64.8962ZM346.174 77.7996L351.874 64.6996L350.957 64.3006L345.257 77.4006L346.174 77.7996ZM366.616 82.5001C359.705 82.5001 352.817 80.7237 345.946 77.1563L345.485 78.0438C352.481 81.6764 359.527 83.5001 366.616 83.5001V82.5001ZM381.211 78.3035C377.589 81.0845 372.74 82.5001 366.616 82.5001V83.5001C372.891 83.5001 377.975 82.0489 381.82 79.0966L381.211 78.3035ZM386.616 67.5001C386.616 71.8717 384.826 75.4632 381.207 78.3069L381.825 79.0932C385.672 76.0703 387.616 72.1951 387.616 67.5001H386.616ZM383.925 59.8124C385.721 62.0567 386.616 64.6131 386.616 67.5001H387.616C387.616 64.387 386.644 61.6101 384.706 59.1877L383.925 59.8124ZM373.288 52.245C378.607 54.9712 382.125 57.4972 383.921 59.807L384.71 59.1931C382.774 56.7029 379.091 54.0955 373.744 51.3551L373.288 52.245ZM363.849 46.5403C364.338 47.0666 365.391 47.8 366.933 48.7284C368.495 49.669 370.613 50.8408 373.283 52.2428L373.748 51.3574C371.085 49.9594 368.987 48.7978 367.449 47.8717C365.89 46.9335 364.96 46.2669 364.582 45.8598L363.849 46.5403ZM455.171 74.8631L441.871 82.2631L442.357 83.137L455.657 75.737L455.171 74.8631ZM454.319 70.9676L454.919 75.3676L455.91 75.2325L455.31 70.8325L454.319 70.9676ZM452.354 71.5985L454.854 71.3985L454.774 70.4017L452.274 70.6017L452.354 71.5985ZM449.733 71.6997L452.333 71.5997L452.295 70.6004L449.695 70.7004L449.733 71.6997ZM446.714 68.6001C446.714 69.539 446.94 70.3359 447.479 70.8966C448.021 71.461 448.799 71.7001 449.714 71.7001V70.7001C448.963 70.7001 448.49 70.5058 448.2 70.2035C447.905 69.8976 447.714 69.3945 447.714 68.6001H446.714ZM446.714 36.0001V68.6001H447.714V36.0001H446.714ZM441.482 31.5738L446.882 36.3738L447.546 35.6264L442.146 30.8264L441.482 31.5738ZM424 35.0643C429.269 32.9566 435.208 31.8323 441.824 31.7L441.804 30.7002C435.087 30.8345 429.026 31.9768 423.628 34.1358L424 35.0643ZM424.811 39.3483L424.311 34.5483L423.317 34.6519L423.817 39.4519L424.811 39.3483ZM430.035 40.315L424.435 38.915L424.193 39.8851L429.793 41.2851L430.035 40.315ZM430.414 69.4001V40.8001H429.414V69.4001H430.414ZM423.914 71.2001C426.053 71.2001 428.123 70.7511 430.119 69.8563L429.71 68.9438C427.839 69.7824 425.909 70.2001 423.914 70.2001V71.2001ZM417.114 62.4001C417.114 65.2158 417.646 67.419 418.791 68.9274C419.956 70.4618 421.694 71.2001 423.914 71.2001V70.2001C421.934 70.2001 420.523 69.555 419.587 68.3228C418.632 67.0645 418.114 65.1177 418.114 62.4001H417.114ZM417.114 36.0001V62.4001H418.114V36.0001H417.114ZM411.882 31.5738L417.282 36.3738L417.946 35.6264L412.546 30.8264L411.882 31.5738ZM392.593 35.3671C398.466 33.1233 405.01 31.8985 412.228 31.6999L412.2 30.7002C404.885 30.9016 398.229 32.1435 392.236 34.433L392.593 35.3671ZM393.411 39.6483L392.911 34.8483L391.917 34.9519L392.417 39.7519L393.411 39.6483ZM400.407 40.6088L393.007 39.2088L392.821 40.1913L400.221 41.5913L400.407 40.6088ZM400.814 65.8001V41.1001H399.814V65.8001H400.814ZM401.113 71.4738L400.813 65.7738L399.815 65.8263L400.115 71.5263L401.113 71.4738ZM406.004 79.0926C403.1 77.0278 401.49 74.4788 401.11 71.438L400.118 71.5621C400.538 74.9213 402.328 77.7057 405.424 79.9075L406.004 79.0926ZM415.414 82.2001C412.126 82.2001 408.991 81.1707 406 79.0896L405.429 79.9105C408.57 82.0961 411.902 83.2001 415.414 83.2001V82.2001ZM431.211 73.8025C425.917 77.8392 420.604 80.6409 415.272 82.2207L415.556 83.1795C421.024 81.5593 426.445 78.6943 431.817 74.5977L431.211 73.8025ZM436.525 79.8083C434.656 78.3265 433.135 76.3882 431.964 73.9813L431.065 74.4188C432.294 76.9452 433.905 79.007 435.903 80.5918L436.525 79.8083ZM442.149 82.2012C440.339 82.0764 438.464 81.2946 436.518 79.8033L435.91 80.5969C437.965 82.1722 440.023 83.057 442.08 83.1989L442.149 82.2012ZM491.093 81.1001C488.726 81.1001 486.392 80.8699 484.091 80.4098L483.895 81.3904C486.261 81.8635 488.66 82.1001 491.093 82.1001V81.1001ZM509.13 73.7563C504.5 78.6466 498.503 81.1001 491.093 81.1001V82.1001C498.749 82.1001 505.019 79.5535 509.856 74.4438L509.13 73.7563ZM516.093 54.9001C516.093 62.5905 513.763 68.8617 509.13 73.7563L509.856 74.4438C514.689 69.3384 517.093 62.8096 517.093 54.9001H516.093ZM510.903 38.6131C514.353 42.9089 516.093 48.3257 516.093 54.9001H517.093C517.093 48.1411 515.3 42.4912 511.683 37.987L510.903 38.6131ZM497.893 32.1001C503.199 32.1001 507.522 34.2571 510.898 38.6066L511.688 37.9935C508.13 33.4097 503.52 31.1001 497.893 31.1001V32.1001ZM494.537 32.3981L497.937 32.0981L497.849 31.102L494.449 31.402L494.537 32.3981ZM484.291 40.1014L494.791 32.3014L494.195 31.4987L483.695 39.2987L484.291 40.1014ZM483.493 36.0001V39.7001H484.493V36.0001H483.493ZM478.361 31.6742L483.661 36.3742L484.325 35.626L479.025 30.926L478.361 31.6742ZM478.193 31.2001V31.3001H479.193V31.2001H478.193ZM459.071 35.3671C464.945 33.1233 471.488 31.8985 478.707 31.6999L478.679 30.7002C471.364 30.9016 464.708 32.1435 458.715 34.433L459.071 35.3671ZM459.89 39.6483L459.39 34.8483L458.396 34.9519L458.896 39.7519L459.89 39.6483ZM466.787 40.609L459.487 39.209L459.299 40.1911L466.599 41.5911L466.787 40.609ZM467.193 95.1001V41.1001H466.193V95.1001H467.193ZM460.276 98.1653L466.876 95.5653L466.51 94.6349L459.91 97.2349L460.276 98.1653ZM460.792 101.172L460.592 97.6715L459.594 97.7286L459.794 101.229L460.792 101.172ZM493.293 100.7H460.293V101.7H493.293V100.7ZM492.993 96.2797L492.793 101.18L493.793 101.22L493.993 96.3205L492.993 96.2797ZM483.807 92.4643C487.799 94.0609 490.945 95.486 493.254 96.7395L493.732 95.8606C491.374 94.5808 488.187 93.1392 484.179 91.5358L483.807 92.4643ZM483.493 80.9001V92.0001H484.493V80.9001H483.493ZM488.793 43.2001C487.236 43.2001 485.564 43.6245 483.784 44.4461L484.203 45.354C485.889 44.5756 487.417 44.2001 488.793 44.2001V43.2001ZM496.123 47.6443C494.378 44.713 491.925 43.2001 488.793 43.2001V44.2001C491.528 44.2001 493.675 45.4871 495.263 48.1558L496.123 47.6443ZM498.693 57.8001C498.693 53.8607 497.844 50.4664 496.12 47.6398L495.266 48.1604C496.876 50.8004 497.693 54.0061 497.693 57.8001H498.693ZM497.062 66.7744C498.149 63.8531 498.693 60.8608 498.693 57.8001H497.693C497.693 60.7394 497.171 63.6137 496.124 66.4257L497.062 66.7744ZM492.939 73.5608C494.676 71.894 496.045 69.6209 497.064 66.7682L496.122 66.4319C495.141 69.1792 493.844 71.3062 492.247 72.8394L492.939 73.5608ZM483.864 72.7832C486.911 73.5957 489.834 73.9033 492.63 73.6987L492.557 72.7014C489.886 72.8968 487.075 72.6045 484.122 71.8169L483.864 72.7832ZM483.493 44.9001V72.3001H484.493V44.9001H483.493ZM563.553 57.6001L538.353 57.4001L538.345 58.4L563.545 58.6L563.553 57.6001ZM568.996 51.9465L563.196 57.7465L563.903 58.4536L569.703 52.6536L568.996 51.9465ZM563.005 37.2624C566.956 41.0196 568.915 46.0122 568.849 52.2949L569.849 52.3053C569.917 45.7879 567.876 40.5139 563.694 36.5377L563.005 37.2624ZM547.549 31.5001C553.906 31.5001 559.042 33.4293 563.002 37.2595L563.697 36.5407C559.523 32.5041 554.126 30.5001 547.549 30.5001V31.5001ZM529.81 39.1466C534.718 34.0424 540.622 31.5001 547.549 31.5001V30.5001C540.343 30.5001 534.181 33.1578 529.089 38.4535L529.81 39.1466ZM522.549 57.6001C522.549 50.3236 524.97 44.1827 529.81 39.1465L529.089 38.4536C524.062 43.6841 521.549 50.0765 521.549 57.6001H522.549ZM529.695 75.1392C524.935 70.5747 522.549 64.7423 522.549 57.6001H521.549C521.549 64.9912 524.03 71.0921 529.003 75.861L529.695 75.1392ZM547.849 82.0001C540.565 82.0001 534.525 79.7074 529.693 75.1368L529.006 75.8633C534.041 80.626 540.334 83.0001 547.849 83.0001V82.0001ZM552.417 81.7011L547.817 82.0011L547.882 82.999L552.482 82.699L552.417 81.7011ZM567.903 72.8651L552.203 81.7651L552.696 82.635L568.396 73.735L567.903 72.8651ZM565.191 67.8009L567.691 73.5009L568.607 73.0992L566.107 67.3992L565.191 67.8009ZM552.949 71.9001C556.595 71.9001 560.91 70.5958 565.878 68.0448L565.421 67.1553C560.522 69.6709 556.371 70.9001 552.949 70.9001V71.9001ZM542.62 68.2764C545.39 70.6998 548.845 71.9001 552.949 71.9001V70.9001C549.054 70.9001 545.842 69.767 543.279 67.5238L542.62 68.2764ZM537.852 57.9536C538.329 62.378 539.902 65.8374 542.615 68.2722L543.283 67.5279C540.796 65.296 539.303 62.0888 538.846 57.8465L537.852 57.9536ZM544.584 38.8761C541.217 40.9808 539.135 44.8075 538.256 50.2199L539.243 50.3803C540.097 45.126 542.082 41.6194 545.114 39.7241L544.584 38.8761ZM551.04 42.0877C549.361 39.9897 547.297 38.8718 544.864 38.8003L544.835 39.7998C546.935 39.8616 548.737 40.8104 550.259 42.7124L551.04 42.0877ZM554.244 49.3277C553.831 46.5084 552.762 44.0848 551.028 42.0736L550.271 42.7265C551.87 44.582 552.867 46.8251 553.255 49.4725L554.244 49.3277ZM538.779 50.7992L553.779 49.8992L553.719 48.901L538.719 49.801L538.779 50.7992ZM598.175 48.2001V71.9001H599.175V48.2001H598.175ZM599.879 46.6969L598.379 47.7969L598.971 48.6033L600.471 47.5033L599.879 46.6969ZM611.196 52.8164C606.723 49.0783 603.06 46.9567 600.237 46.6039L600.113 47.5962C602.624 47.9101 606.093 49.8551 610.554 53.5837L611.196 52.8164ZM621.983 38.3894L610.483 52.8894L611.267 53.5108L622.767 39.0108L621.983 38.3894ZM617.422 33.531C619.591 34.8072 621.079 36.5831 621.905 38.8699L622.845 38.5302C621.938 36.017 620.292 34.0596 617.929 32.6691L617.422 33.531ZM610.375 31.6001C612.954 31.6001 615.297 32.2435 617.416 33.5277L617.934 32.6725C615.653 31.29 613.13 30.6001 610.375 30.6001V31.6001ZM606.733 32.0744C607.665 31.7639 608.873 31.6001 610.375 31.6001V30.6001C608.81 30.6001 607.485 30.7696 606.417 31.1257L606.733 32.0744ZM599.049 40.832L606.949 31.932L606.201 31.2681L598.301 40.1681L599.049 40.832ZM598.175 38.7001V40.5001H599.175V38.7001H598.175ZM592.869 31.4922L598.269 38.9922L599.081 38.4079L593.681 30.9079L592.869 31.4922ZM573.653 35.3671C579.527 33.1233 586.07 31.8985 593.289 31.6999L593.261 30.7002C585.946 30.9016 579.29 32.1435 573.297 34.433L573.653 35.3671ZM574.472 39.6483L573.972 34.8483L572.978 34.9519L573.478 39.7519L574.472 39.6483ZM581.468 40.6088L574.068 39.2088L573.882 40.1913L581.282 41.5913L581.468 40.6088ZM581.875 74.2001V41.1001H580.875V74.2001H581.875ZM574.226 77.9325C576.259 76.752 578.695 75.6644 581.54 74.6722L581.21 73.728C578.321 74.7358 575.824 75.8481 573.724 77.0677L574.226 77.9325ZM574.674 80.9715L574.474 77.4715L573.476 77.5286L573.676 81.0286L574.674 80.9715ZM609.375 80.5001H574.175V81.5001H609.375V80.5001ZM609.076 76.0797L608.875 80.9797L609.875 81.0205L610.075 76.1205L609.076 76.0797ZM598.559 72.3864C602.992 73.4452 606.571 74.8287 609.312 76.5252L609.838 75.6749C606.979 73.9048 603.291 72.4883 598.791 71.4137L598.559 72.3864ZM21.965 27.6768L21.9058 27.6242L21.2415 28.3716L21.3007 28.4242L21.965 27.6768ZM27.3651 32.4768L21.9651 27.6768L21.3007 28.4242L26.7007 33.2242L27.3651 32.4768ZM27.4322 32.5365L27.3651 32.4768L26.7007 33.2242L26.7678 33.2839L27.4322 32.5365ZM27.6 33V32.9102H26.6V33H27.6ZM27.6 69.4571V33H26.6V69.4571H27.6ZM34.5069 72.5304C32.5989 71.1675 30.1784 69.989 27.2629 68.9844L26.9371 69.9299C29.7907 70.9132 32.1177 72.0527 33.9256 73.3441L34.5069 72.5304ZM34.5949 72.5933L34.5069 72.5304L33.9256 73.3441L34.0136 73.407L34.5949 72.5933ZM34.7994 73.1286L34.8038 73.0205L33.8047 72.9797L33.8003 73.0878L34.7994 73.1286ZM34.5994 78.0286L34.7994 73.1286L33.8003 73.0878L33.6003 77.9878L34.5994 78.0286ZM34.5916 78.2204L34.5994 78.0286L33.6003 77.9878L33.5924 78.1796L34.5916 78.2204ZM33.9 78.7H34.092V77.7H33.9V78.7ZM2.2 78.7H33.9V77.7H2.2V78.7ZM2.01111 78.7H2.2V77.7H2.01111V78.7ZM1.50114 78.0399L1.51192 78.2285L2.51029 78.1715L2.49951 77.9829L1.50114 78.0399ZM1.30114 74.5399L1.50114 78.0399L2.49951 77.9829L2.29951 74.4829L1.30114 74.5399ZM1.29408 74.4163L1.30114 74.5399L2.29951 74.4829L2.29245 74.3593L1.29408 74.4163ZM1.65269 73.8922L1.54518 73.9537L2.04135 74.8219L2.14886 74.7605L1.65269 73.8922ZM9.23706 70.4845C6.51685 71.4221 3.98825 72.5576 1.65271 73.8922L2.14884 74.7605C4.42638 73.459 6.8975 72.3487 9.56295 71.4299L9.23706 70.4845ZM8.9 38.2657V70.9572H9.9V38.2657H8.9ZM2.06988 37.3878L9.30706 38.757L9.49295 37.7744L2.25577 36.4052L2.06988 37.3878ZM1.92357 37.3601L2.06989 37.3878L2.25576 36.4052L2.10945 36.3776L1.92357 37.3601ZM1.50377 36.7725L1.5192 36.9206L2.51382 36.817L2.49839 36.6689L1.50377 36.7725ZM1.00377 31.9725L1.50377 36.7725L2.49839 36.6689L1.99839 31.8689L1.00377 31.9725ZM0.987859 31.8198L1.00377 31.9725L1.99839 31.8689L1.98248 31.7162L0.987859 31.8198ZM1.45019 31.2461L1.30673 31.3009L1.6636 32.2351L1.80706 32.1803L1.45019 31.2461ZM21.4807 27.5003C14.1464 27.7021 7.46708 28.9475 1.4502 31.2461L1.80706 32.1803C7.70463 29.9273 14.2705 28.6991 21.5083 28.4999L21.4807 27.5003ZM21.5599 27.4981L21.4807 27.5003L21.5082 28.4999L21.5874 28.4977L21.5599 27.4981ZM2.88081 36.4794L2.41217 31.9805L1.41755 32.0841L1.88619 36.583L2.88081 36.4794ZM9.73013 37.4122L2.47644 36.0399L2.29055 37.0225L9.54424 38.3948L9.73013 37.4122ZM9.89295 37.443L9.73013 37.4122L9.54424 38.3948L9.70706 38.4256L9.89295 37.443ZM10.3 38.1V37.9343H9.3V38.1H10.3ZM10.3 71.1V38.1H9.3V71.1H10.3ZM10.3 71.2431V71.1H9.3V71.2431H10.3ZM9.82619 71.7625L9.96156 71.7162L9.63845 70.7699L9.50308 70.8161L9.82619 71.7625ZM2.45346 75.0473C4.71626 73.7637 7.1733 72.6683 9.8262 71.7625L9.50306 70.8161C6.79544 71.7407 4.28091 72.861 1.96004 74.1775L2.45346 75.0473ZM2.88809 77.7715L2.70594 74.5839L1.70757 74.641L1.88972 77.8285L2.88809 77.7715ZM33.708 77.3H2.3889V78.3H33.708V77.3ZM33.3962 73.1799L33.2084 77.7796L34.2076 77.8204L34.3953 73.2207L33.3962 73.1799ZM26.6741 70.2626C29.5182 71.2321 31.8235 72.351 33.6076 73.6089L34.1839 72.7917C32.3003 71.4636 29.9022 70.3065 26.9968 69.3161L26.6741 70.2626ZM26.5387 70.2164L26.6742 70.2626L26.9968 69.316L26.8613 69.2699L26.5387 70.2164ZM26.2 69.6V69.7431H27.2V69.6H26.2ZM26.2 33.0898V69.6H27.2V33.0898H26.2ZM21.0942 28.7759L26.3678 33.4635L27.0322 32.7161L21.7586 28.0284L21.0942 28.7759ZM2.09187 32.4999C7.88381 30.3075 14.3309 29.1051 21.4407 28.9019L21.4121 27.9024C14.2067 28.1083 7.64766 29.3277 1.73786 31.5647L2.09187 32.4999ZM99.1 27.5C96.202 27.5 92.1113 28.0551 86.8387 29.1563L87.0431 30.1352C92.2961 29.0381 96.3065 28.5 99.1 28.5V27.5ZM113.439 34.918C109.917 29.9782 105.128 27.5 99.1 27.5V28.5C104.802 28.5 109.289 30.8198 112.624 35.4986L113.439 34.918ZM114.346 37.9032C114.145 36.6289 113.856 35.6393 113.465 34.959L112.598 35.4576C112.899 35.981 113.164 36.8291 113.359 38.0592L114.346 37.9032ZM114.7 42.693C114.666 40.7858 114.549 39.1881 114.346 37.9032L113.359 38.0592C113.552 39.2821 113.667 40.8299 113.7 42.7106L114.7 42.693ZM114.7 65.6V42.7018H113.7V65.6H114.7ZM115.241 67.3421C114.898 66.9853 114.7 66.4235 114.7 65.6H113.7C113.7 66.5677 113.932 67.4234 114.52 68.0352L115.241 67.3421ZM116.9 67.9C116.116 67.9 115.582 67.6967 115.241 67.3421L114.52 68.0352C115.114 68.6521 115.952 68.9 116.9 68.9V67.9ZM117.4 68.4001V68.4H116.4V68.4001H117.4ZM116.889 67.9002L116.881 67.9005L116.919 68.8998L116.926 68.8995L116.889 67.9002ZM119.589 67.8002L116.889 67.9002L116.926 68.8995L119.626 68.7995L119.589 67.8002ZM120.107 68.3001V68.2999H119.107V68.3001H120.107ZM119.575 67.8011L119.566 67.8018L119.649 68.7983L119.658 68.7976L119.575 67.8011ZM121.786 67.6168L119.575 67.801L119.658 68.7976L121.869 68.6134L121.786 67.6168ZM122.879 72.1246L122.323 68.0475L121.332 68.1826L121.888 72.2597L122.879 72.1246ZM109.596 79.9341L122.628 72.6283L122.139 71.756L109.107 79.0618L109.596 79.9341ZM103.626 77.8441C105.51 79.1899 107.412 79.9157 109.33 79.9975L109.373 78.9984C107.689 78.9266 105.969 78.2893 104.207 77.0304L103.626 77.8441ZM98.9385 72.5471C100.159 74.7162 101.721 76.4835 103.626 77.8441L104.207 77.0304C102.429 75.7607 100.963 74.1068 99.8101 72.0568L98.9385 72.5471ZM98.8339 72.3611L98.9385 72.5471L99.8101 72.0568L99.7055 71.8709L98.8339 72.3611ZM99.3637 72.6514L99.5425 72.535L98.997 71.697L98.8181 71.8134L99.3637 72.6514ZM88.8055 79.5242L99.3637 72.6514L98.8181 71.8133L88.26 78.6861L88.8055 79.5242ZM85.2352 79.8981L88.5767 79.6032L88.4888 78.6071L85.1473 78.9019L85.2352 79.8981ZM74.1526 76.0259C77.1122 78.6113 80.7988 79.8983 85.191 79.9L85.1914 78.9C81.0086 78.8983 77.565 77.679 74.8105 75.2728L74.1526 76.0259ZM69.7 66.6C69.7 70.2932 71.1926 73.4401 74.1526 76.0259L74.8105 75.2728C72.0507 72.8619 70.7 69.9826 70.7 66.6H69.7ZM77.9166 54.5578C72.4726 57.461 69.7 61.476 69.7 66.6H70.7C70.7 61.9332 73.1834 58.2152 78.3872 55.4401L77.9166 54.5578ZM97.0937 54.1001L78.1414 54.4991L78.1624 55.4989L97.1147 55.0999L97.0937 54.1001ZM97.2895 54.096L97.0937 54.1001L97.1148 55.0999L97.3105 55.0957L97.2895 54.096ZM96.8 54.4V54.5958H97.8V54.4H96.8ZM96.8 46.2V54.4H97.8V46.2H96.8ZM92.3612 36.366C95.2848 37.8913 96.8 41.118 96.8 46.2H97.8C97.8 40.9465 96.2243 37.2536 92.8238 35.4794L92.3612 36.366ZM92.3119 36.3402L92.3613 36.366L92.8238 35.4794L92.7744 35.4536L92.3119 36.3402ZM92.5187 36.3994L92.5743 36.396L92.5119 35.3979L92.4563 35.4014L92.5187 36.3994ZM87.0154 37.5769C88.5784 36.9257 90.4112 36.5311 92.5187 36.3994L92.4564 35.4014C90.2628 35.5385 88.317 35.9512 86.6308 36.6539L87.0154 37.5769ZM86.9191 37.617L87.0154 37.5769L86.6308 36.6539L86.5345 36.694L86.9191 37.617ZM87.1931 37.3639L87.2153 37.2621L86.2383 37.0489L86.2161 37.1508L87.1931 37.3639ZM84.8267 48.2099L87.1931 37.364L86.2161 37.1508L83.8497 47.9967L84.8267 48.2099ZM74.8512 48.797L84.3484 48.6032L84.328 47.6034L74.8308 47.7972L74.8512 48.797ZM72.5 37.1055C72.5006 41.0845 73.123 44.8702 74.3686 48.461L75.3134 48.1332C74.106 44.6528 73.5006 40.9782 73.5 37.1053L72.5 37.1055ZM72.6935 33.5135L72.5007 37.0784L73.4993 37.1324L73.692 33.5675L72.6935 33.5135ZM86.8387 29.1563C81.6134 30.2477 77.0049 31.5529 73.0147 33.0732L73.3707 34.0077C77.3011 32.5101 81.8572 31.2184 87.0431 30.1352L86.8387 29.1563ZM86.9613 29.7437C92.2221 28.6449 96.2647 28.1 99.1 28.1V27.1C96.1602 27.1 92.0374 27.6619 86.7569 28.7648L86.9613 29.7437ZM73.1074 33.6801C77.0892 32.1538 81.7066 30.8412 86.9613 29.7437L86.7569 28.7648C81.4624 29.8706 76.7919 31.1968 72.7495 32.7464L73.1074 33.6801ZM72.9863 33.7266L73.1074 33.6801L72.7495 32.7464L72.6283 32.7928L72.9863 33.7266ZM73.2996 33.4162L73.3066 33.2867L72.308 33.2327L72.301 33.3622L73.2996 33.4162ZM73.0996 37.1162L73.2996 33.4162L72.301 33.3622L72.101 37.0622L73.0996 37.1162ZM72.5737 37.5885L72.574 37.5885L72.6266 36.5899L72.6263 36.5899L72.5737 37.5885ZM73.1 37.1V37.0892H72.1V37.1H73.1ZM74.983 48.4004C73.7281 44.8339 73.1 41.0678 73.1 37.1H72.1C72.1 41.1753 72.7455 45.0541 74.0397 48.7323L74.983 48.4004ZM75.031 48.537L74.983 48.4004L74.0397 48.7323L74.0877 48.8689L75.031 48.537ZM74.6939 48.2001L74.5492 48.203L74.5696 49.2028L74.7143 49.1999L74.6939 48.2001ZM84.4939 48.0001L74.6939 48.2001L74.7143 49.1999L84.5143 48.9999L84.4939 48.0001ZM84.6516 47.9969L84.4939 48.0001L84.5143 48.9999L84.672 48.9966L84.6516 47.9969ZM84.2069 48.2361L84.1733 48.3902L85.1503 48.6033L85.1839 48.4492L84.2069 48.2361ZM86.5846 37.3384L84.2069 48.2361L85.1839 48.4492L87.5616 37.5516L86.5846 37.3384ZM92.4243 35.8042C90.3323 35.9399 88.4843 36.3306 86.8845 36.9819L87.2616 37.9081C88.7421 37.3053 90.481 36.9323 92.489 36.8021L92.4243 35.8042ZM97.4 46.2C97.4 41.0438 95.8658 37.5474 92.6911 35.8616L92.2221 36.7448C94.9254 38.1803 96.4 41.2146 96.4 46.2H97.4ZM97.4 54.2042V46.2H96.4V54.2042H97.4ZM78.1063 55.0999L96.9105 54.7041L96.8895 53.7043L78.0853 54.1002L78.1063 55.0999ZM78.0588 55.1009L78.1064 55.0999L78.0853 54.1002L78.0377 54.1012L78.0588 55.1009ZM78.2407 55.065L78.2827 55.0427L77.8138 54.1594L77.7718 54.1818L78.2407 55.065ZM70.3 66.6C70.3 61.7377 72.9126 57.8935 78.2407 55.065L77.7718 54.1817C72.2038 57.1376 69.3 61.2787 69.3 66.6H70.3ZM74.5474 75.5741C71.7074 73.0932 70.3 70.1068 70.3 66.6H69.3C69.3 70.4175 70.8493 73.6714 73.8895 76.3272L74.5474 75.5741ZM85.2 79.3C80.9295 79.3 77.3858 78.0536 74.5474 75.5741L73.8895 76.3272C76.9332 78.986 80.72 80.3 85.2 80.3V79.3ZM85.2088 79.3H85.2V80.3H85.2088V79.3ZM85.1734 79.3012L85.1646 79.302L85.253 80.298L85.2618 80.2973L85.1734 79.3012ZM88.5736 79.0012L85.1736 79.3012L85.2615 80.2973L88.6615 79.9973L88.5736 79.0012ZM88.6234 78.9968L88.5736 79.0012L88.6615 79.9973L88.7113 79.9929L88.6234 78.9968ZM88.4363 79.0486L88.3945 79.0758L88.9401 79.9139L88.9819 79.8867L88.4363 79.0486ZM98.8586 72.2643L88.4363 79.0486L88.9819 79.8867L99.4041 73.1024L98.8586 72.2643ZM103.974 77.3559C102.198 76.0873 100.728 74.448 99.5643 72.4332L98.6984 72.9335C99.9293 75.064 101.494 76.813 103.393 78.1696L103.974 77.3559ZM109.411 79.4002C107.615 79.3361 105.804 78.6629 103.974 77.3559L103.393 78.1696C105.346 79.5645 107.343 80.327 109.375 80.3996L109.411 79.4002ZM109.467 79.4022L109.411 79.4002L109.375 80.3996L109.431 80.4016L109.467 79.4022ZM109.253 79.4383L109.204 79.4658L109.693 80.338L109.742 80.3106L109.253 79.4383ZM122.453 72.0383L109.253 79.4383L109.742 80.3106L122.942 72.9106L122.453 72.0383ZM122.572 71.9717L122.453 72.0383L122.942 72.9106L123.061 72.844L122.572 71.9717ZM122.303 72.3405L122.321 72.4754L123.312 72.3403L123.294 72.2054L122.303 72.3405ZM121.703 67.9405L122.303 72.3405L123.294 72.2054L122.694 67.8054L121.703 67.9405ZM121.677 67.7525L121.703 67.9405L122.694 67.8054L122.668 67.6174L121.677 67.7525ZM122.025 68.199L122.214 68.1832L122.131 67.1867L121.942 67.2024L122.025 68.199ZM119.63 68.3986L122.025 68.199L121.942 67.2024L119.546 67.402L119.63 68.3986ZM116.915 68.4997L119.606 68.4L119.569 67.4007L116.878 67.5004L116.915 68.4997ZM114.809 67.7579C115.3 68.269 116.015 68.4993 116.896 68.5L116.897 67.5C116.181 67.4994 115.77 67.3145 115.53 67.0648L114.809 67.7579ZM114.1 65.6C114.1 66.5102 114.319 67.2483 114.809 67.7579L115.53 67.0648C115.284 66.8098 115.1 66.3653 115.1 65.6H114.1ZM114.1 42.7L114.1 65.6H115.1L115.1 42.7H114.1ZM114.1 42.7052L114.1 42.7087L115.1 42.6913L115.1 42.6878L114.1 42.7052ZM113.754 37.9968C113.951 39.2449 114.067 40.8132 114.1 42.7053L115.1 42.6877C115.066 40.7691 114.948 39.1508 114.741 37.8408L113.754 37.9968ZM112.94 35.2503C113.28 35.8363 113.556 36.7434 113.754 37.9968L114.741 37.8408C114.537 36.5432 114.237 35.4932 113.806 34.7493L112.94 35.2503ZM112.936 35.2422L112.94 35.2504L113.806 34.7493L113.801 34.7411L112.936 35.2422ZM112.956 35.2739L112.961 35.2816L113.776 34.7017L113.77 34.694L112.956 35.2739ZM99.1 28.1C104.936 28.1 109.545 30.4857 112.956 35.2741L113.77 34.6939C110.173 29.6444 105.262 27.1 99.1 27.1V28.1ZM97.114 59.8001C93.7436 59.7327 91.1064 60.1142 89.2869 61.0239L89.7342 61.9183C91.3353 61.1177 93.7765 60.7336 97.094 60.7999L97.114 59.8001ZM97.31 59.8041L97.114 59.8001L97.094 60.7999L97.29 60.8039L97.31 59.8041ZM97.8 60.5V60.304H96.8V60.5H97.8ZM97.8 67.9V60.5H96.8V67.9H97.8ZM97.8 68.0459V67.9H96.8V68.0459H97.8ZM97.3138 68.5666L97.4528 68.522L97.1473 67.5698L97.0084 67.6144L97.3138 68.5666ZM88.8466 70.4985C90.9326 70.3594 93.7638 69.7052 97.3138 68.5666L97.0084 67.6143C93.4822 68.7454 90.7432 69.3698 88.7801 69.5007L88.8466 70.4985ZM88.756 70.5045L88.8466 70.4985L88.7801 69.5007L88.6895 69.5067L88.756 70.5045ZM88.305 70.295L88.3692 70.3592L89.0763 69.652L89.0121 69.5879L88.305 70.295ZM86.4 65.5C86.4 67.4023 87.0291 69.019 88.305 70.295L89.0121 69.5879C87.9399 68.5157 87.4 67.161 87.4 65.5H86.4ZM87.1379 62.8563C86.6381 63.626 86.4 64.5165 86.4 65.5H87.4C87.4 64.6834 87.5956 63.9876 87.9766 63.4009L87.1379 62.8563ZM89.2869 61.0239C88.3664 61.4842 87.6359 62.0894 87.1379 62.8563L87.9766 63.4009C88.3584 62.8129 88.9382 62.3163 89.7342 61.9183L89.2869 61.0239ZM87.8 65.5C87.8 64.7502 87.9786 64.1323 88.3121 63.6187L87.4734 63.0741C87.0211 63.7707 86.8 64.5833 86.8 65.5H87.8ZM89.2367 69.2458C88.2852 68.2654 87.8 67.0344 87.8 65.5H86.8C86.8 67.2698 87.37 68.7582 88.5191 69.9423L89.2367 69.2458ZM96.7481 67.2776C93.3522 68.3604 90.7246 68.957 88.8412 69.0954L88.9145 70.0927C90.9155 69.9457 93.6314 69.321 97.0519 68.2304L96.7481 67.2776ZM96.4 60.6966V67.754H97.4V60.6966H96.4ZM89.9131 62.2761C91.3965 61.5344 93.6961 61.1492 96.8926 61.1965L96.9074 60.1966C93.6565 60.1485 91.1642 60.5325 89.4658 61.3817L89.9131 62.2761ZM88.3121 63.6187C88.6475 63.1022 89.167 62.6491 89.9131 62.2761L89.4658 61.3817C88.5951 61.8171 87.9249 62.3788 87.4734 63.0741L88.3121 63.6187ZM144.427 28.3513L144.488 28.4121L145.195 27.705L145.134 27.6442L144.427 28.3513ZM144.708 28.4999L144.794 28.4975L144.767 27.4979L144.681 27.5003L144.708 28.4999ZM125.007 32.1803C130.905 29.9273 137.471 28.6991 144.708 28.4999L144.681 27.5003C137.346 27.7021 130.667 28.9475 124.65 31.2461L125.007 32.1803ZM124.864 32.2351L125.007 32.1803L124.65 31.2461L124.507 31.3009L124.864 32.2351ZM125.198 31.8689L125.182 31.7162L124.188 31.8198L124.204 31.9725L125.198 31.8689ZM125.698 36.6689L125.198 31.8689L124.204 31.9725L124.704 36.7725L125.698 36.6689ZM125.714 36.817L125.698 36.6689L124.704 36.7725L124.719 36.9206L125.714 36.817ZM125.456 36.4052L125.309 36.3776L125.124 37.3601L125.27 37.3878L125.456 36.4052ZM132.693 37.7744L125.456 36.4052L125.27 37.3878L132.507 38.757L132.693 37.7744ZM133.1 71.0581V38.2657H132.1V71.0581H133.1ZM125.551 74.7594C127.565 73.5897 129.969 72.5127 132.766 71.5299L132.434 70.5864C129.593 71.5848 127.129 72.6864 125.049 73.8947L125.551 74.7594ZM125.444 74.8211L125.551 74.7594L125.049 73.8947L124.942 73.9564L125.444 74.8211ZM125.7 74.4829L125.693 74.3602L124.694 74.4173L124.701 74.5399L125.7 74.4829ZM125.9 77.9829L125.7 74.4829L124.701 74.5399L124.901 78.0399L125.9 77.9829ZM125.91 78.1715L125.9 77.9829L124.901 78.0399L124.912 78.2285L125.91 78.1715ZM125.6 77.7H125.411V78.7H125.6V77.7ZM155.7 77.7H125.6V78.7H155.7V77.7ZM155.892 77.7H155.7V78.7H155.892V77.7ZM155.4 77.9878L155.392 78.1796L156.392 78.2204L156.399 78.0285L155.4 77.9878ZM155.6 73.0878L155.4 77.9878L156.399 78.0286L156.599 73.1286L155.6 73.0878ZM155.605 72.9808L155.6 73.0878L156.599 73.1286L156.604 73.0216L155.605 72.9808ZM155.724 73.3426L155.81 73.4056L156.398 72.5969L156.312 72.5339L155.724 73.3426ZM150.096 70.2266C152.43 71.2706 154.304 72.3099 155.724 73.3426L156.312 72.5339C154.817 71.4468 152.876 70.3749 150.504 69.3138L150.096 70.2266ZM149.8 41.8322V69.7702H150.8V41.8322H149.8ZM156.1 39.9C154.407 39.9 152.406 40.3981 150.105 41.3717L150.495 42.2927C152.73 41.347 154.591 40.9 156.1 40.9V39.9ZM161.153 42.5644C160.027 40.7872 158.327 39.9 156.1 39.9V40.9C158.014 40.9 159.381 41.6354 160.309 43.0997L161.153 42.5644ZM162.8 50.3C162.8 46.9113 162.265 44.3185 161.153 42.5644L160.309 43.0997C161.271 44.6178 161.8 46.9847 161.8 50.3H162.8ZM162.8 78V50.3H161.8V78H162.8ZM162.8 78.2V78H161.8V78.2H162.8ZM162.5 77.7H162.3V78.7H162.5V77.7ZM185.5 77.7H162.5V78.7H185.5V77.7ZM185.688 77.7H185.5V78.7H185.688V77.7ZM185.201 77.9817L185.189 78.1695L186.187 78.2305L186.199 78.0428L185.201 77.9817ZM185.501 73.0817L185.201 77.9817L186.199 78.0428L186.499 73.1428L185.501 73.0817ZM185.507 72.969L185.501 73.0817L186.499 73.1428L186.506 73.03L185.507 72.969ZM185.63 73.3469L185.723 73.4111L186.29 72.5879L186.197 72.5238L185.63 73.3469ZM179.804 70.1274C181.808 70.9778 183.75 72.0507 185.63 73.347L186.197 72.5238C184.265 71.191 182.264 70.0848 180.195 69.2068L179.804 70.1274ZM179.4 41.9289L179.5 69.6689L180.5 69.6653L180.4 41.9253L179.4 41.9289ZM185.9 39.9C184.01 39.9 181.938 40.4306 179.69 41.4735L180.111 42.3807C182.269 41.3794 184.195 40.9 185.9 40.9V39.9ZM190.953 42.5644C189.827 40.7872 188.127 39.9 185.9 39.9V40.9C187.814 40.9 189.181 41.6354 190.109 43.0997L190.953 42.5644ZM192.6 50.3C192.6 46.9113 192.065 44.3185 190.953 42.5644L190.109 43.0997C191.071 44.6178 191.6 46.9847 191.6 50.3H192.6ZM192.6 78V50.3H191.6V78H192.6ZM192.6 78.2V78H191.6V78.2H192.6ZM192.3 77.7H192.1V78.7H192.3V77.7ZM217 77.7H192.3V78.7H217V77.7ZM217.188 77.7H217V78.7H217.188V77.7ZM216.701 77.9817L216.689 78.1695L217.687 78.2305L217.699 78.0428L216.701 77.9817ZM217.001 73.0817L216.701 77.9817L217.699 78.0428L217.999 73.1428L217.001 73.0817ZM217.007 72.969L217.001 73.0817L217.999 73.1428L218.006 73.03L217.007 72.969ZM217.13 73.3469L217.223 73.4111L217.79 72.5879L217.697 72.5238L217.13 73.3469ZM209.632 69.7297C212.755 70.8448 215.252 72.0519 217.13 73.347L217.697 72.5238C215.724 71.1629 213.141 69.9207 209.968 68.788L209.632 69.7297ZM209.3 44.8L209.3 69.2589H210.3L210.3 44.8H209.3ZM209.3 44.8026L209.3 44.8054L210.3 44.7946L210.3 44.7918L209.3 44.8026ZM208.953 39.0142C209.15 40.5148 209.267 42.4437 209.3 44.8042L210.3 44.7901C210.266 42.4092 210.149 40.4376 209.944 38.8835L208.953 39.0142ZM208.137 35.8446C208.476 36.4599 208.754 37.5049 208.953 39.0142L209.944 38.8835C209.742 37.3498 209.446 36.1492 209.013 35.3627L208.137 35.8446ZM208.134 35.8386L208.137 35.8452L209.013 35.362L209.009 35.3555L208.134 35.8386ZM208.148 35.8633L208.152 35.8696L208.991 35.3245L208.987 35.3182L208.148 35.8633ZM194.49 28.7999C200.675 28.9972 205.21 31.3586 208.149 35.8639L208.986 35.3176C205.842 30.4967 200.98 28.0065 194.522 27.8004L194.49 28.7999ZM194.456 28.7988L194.49 28.7999L194.522 27.8004L194.488 27.7993L194.456 28.7988ZM194.591 28.7858L194.624 28.7753L194.32 27.8227L194.287 27.8332L194.591 28.7858ZM179.58 37.0876C184.888 33.0503 189.892 30.2871 194.591 28.7858L194.287 27.8332C189.449 29.3788 184.344 32.2076 178.974 36.2917L179.58 37.0876ZM178.328 35.8257L178.823 36.8992L179.731 36.4801L179.236 35.4067L178.328 35.8257ZM178.321 35.8124L178.328 35.8256L179.236 35.4068L179.23 35.3936L178.321 35.8124ZM178.349 35.864L178.357 35.8762L179.194 35.3297L179.186 35.3175L178.349 35.864ZM164.69 28.7999C170.875 28.9972 175.41 31.3586 178.349 35.8639L179.186 35.3176C176.042 30.4967 171.18 28.0065 164.722 27.8004L164.69 28.7999ZM164.657 28.7988L164.69 28.7999L164.722 27.8004L164.688 27.7993L164.657 28.7988ZM164.79 28.7863L164.822 28.7761L164.523 27.8219L164.491 27.8321L164.79 28.7863ZM150.594 36.4106C155.722 32.6827 160.454 30.1454 164.79 28.7863L164.491 27.8321C160.019 29.2335 155.19 31.8328 150.006 35.6018L150.594 36.4106ZM149.8 33.6V36.0062H150.8V33.6H149.8ZM149.8 33.5172V33.6H150.8V33.5172H149.8ZM149.888 33.8122L149.947 33.8708L150.654 33.1636L150.595 33.105L149.888 33.8122ZM144.488 28.4121L149.888 33.8121L150.595 33.105L145.195 27.705L144.488 28.4121ZM124.618 32.0841L125.086 36.583L126.081 36.4794L125.612 31.9805L124.618 32.0841ZM144.605 27.9026C137.403 28.109 130.846 29.3284 124.938 31.5647L125.292 32.4999C131.082 30.3082 137.527 29.1059 144.634 28.9021L144.605 27.9026ZM150.254 33.3293L144.973 28.0488L144.266 28.7559L149.546 34.0364L150.254 33.3293ZM150.4 36.4V33.6828H149.4V36.4H150.4ZM150.4 36.795V36.4H149.4V36.795H150.4ZM149.922 36.1582L149.604 36.3919L150.196 37.198L150.514 36.9643L149.922 36.1582ZM164.577 28.2241C160.079 29.6396 155.193 32.2885 149.922 36.1582L150.514 36.9643C155.729 33.1359 160.516 30.5504 164.878 29.178L164.577 28.2241ZM178.843 35.5236C175.787 30.8457 171.07 28.4114 164.744 28.2013L164.711 29.2007C170.764 29.4018 175.155 31.707 178.006 36.0706L178.843 35.5236ZM179.472 36.8743L178.879 35.5876L177.971 36.0066L178.564 37.2934L179.472 36.8743ZM179.577 37.1012L179.472 36.8743L178.564 37.2934L178.669 37.5202L179.577 37.1012ZM179.018 36.7618L178.819 36.9137L179.427 37.7077L179.625 37.5559L179.018 36.7618ZM194.375 28.2249C189.543 29.7741 184.424 32.6238 179.018 36.7618L179.625 37.5559C184.97 33.4649 189.988 30.6815 194.681 29.1772L194.375 28.2249ZM208.647 35.5296C205.591 30.8479 200.873 28.4117 194.545 28.2013L194.511 29.2008C200.567 29.402 204.959 31.7091 207.81 36.0762L208.647 35.5296ZM209.547 38.9358C209.347 37.4169 209.06 36.2813 208.667 35.563L207.79 36.0427C208.089 36.5909 208.359 37.5721 208.556 39.0665L209.547 38.9358ZM209.9 44.7947C209.867 42.4224 209.75 40.4683 209.547 38.9358L208.556 39.0665C208.751 40.5455 208.867 42.4569 208.9 44.8088L209.9 44.7947ZM209.9 69.4V44.8017H208.9V69.4H209.9ZM209.9 69.5414V69.4H208.9V69.5414H209.9ZM209.7 69.1172L209.567 69.07L209.233 70.0127L209.366 70.0599L209.7 69.1172ZM217.375 72.7876C215.424 71.4597 212.863 70.2375 209.7 69.1172L209.366 70.0598C212.481 71.1628 214.956 72.3506 216.812 73.6142L217.375 72.7876ZM217.311 77.8306L217.593 73.2315L216.594 73.1704L216.313 77.7694L217.311 77.8306ZM192.5 78.3H216.812V77.3H192.5V78.3ZM192 50.3V77.8H193V50.3H192ZM190.447 42.8856C191.468 44.4981 192 46.9553 192 50.3H193C193 46.882 192.463 44.1988 191.291 42.3503L190.447 42.8856ZM185.9 40.5C187.939 40.5 189.439 41.2962 190.447 42.8856L191.291 42.3503C190.086 40.4478 188.253 39.5 185.9 39.5V40.5ZM179.828 42.0715C182.067 41.0175 184.09 40.5 185.9 40.5V39.5C183.901 39.5 181.732 40.0703 179.402 41.1666L179.828 42.0715ZM179.712 42.1257L179.828 42.0715L179.402 41.1666L179.287 41.2209L179.712 42.1257ZM180 41.7989L180 41.6715L179 41.6751L179 41.8025L180 41.7989ZM180.1 69.7989L180 41.7989L179 41.8025L179.1 69.8025L180.1 69.7989ZM180.1 69.9314L180.1 69.7989L179.1 69.8026L179.1 69.9351L180.1 69.9314ZM179.916 69.5234L179.794 69.4721L179.407 70.3943L179.529 70.4455L179.916 69.5234ZM185.876 72.7882C183.956 71.4728 181.969 70.3843 179.916 69.5234L179.529 70.4455C181.517 71.279 183.444 72.3344 185.311 73.6132L185.876 72.7882ZM185.811 77.8306L186.093 73.2313L185.094 73.1702L184.813 77.7694L185.811 77.8306ZM162.7 78.3H185.312V77.3H162.7V78.3ZM162.2 50.3V77.8H163.2V50.3H162.2ZM160.647 42.8856C161.668 44.4981 162.2 46.9553 162.2 50.3H163.2C163.2 46.882 162.663 44.1988 161.491 42.3503L160.647 42.8856ZM156.1 40.5C158.139 40.5 159.639 41.2962 160.647 42.8856L161.491 42.3503C160.286 40.4478 158.453 39.5 156.1 39.5V40.5ZM150.218 41.9757C152.532 40.9842 154.49 40.5 156.1 40.5V39.5C154.302 39.5 152.204 40.0369 149.824 41.0566L150.218 41.9757ZM150.097 42.0277L150.218 41.9757L149.824 41.0566L149.703 41.1086L150.097 42.0277ZM150.4 41.7V41.5681H149.4V41.7H150.4ZM150.4 69.9V41.7H149.4V69.9H150.4ZM150.4 70.03V69.9H149.4V70.03H150.4ZM150.222 69.6259L150.103 69.5731L149.697 70.4869L149.816 70.5397L150.222 69.6259ZM155.987 72.7931C154.51 71.7317 152.586 70.6765 150.222 69.6259L149.816 70.5397C152.142 71.5735 154 72.5968 155.404 73.6053L155.987 72.7931ZM156.008 77.8204L156.195 73.2196L155.196 73.1788L155.008 77.7796L156.008 77.8204ZM125.789 78.3H155.508V77.3H125.789V78.3ZM125.108 74.6401L125.29 77.8285L126.288 77.7715L126.106 74.583L125.108 74.6401ZM132.701 70.9167C129.871 71.9042 127.422 72.9908 125.357 74.1781L125.856 75.045C127.855 73.8955 130.244 72.833 133.031 71.8609L132.701 70.9167ZM132.835 70.87L132.701 70.9167L133.031 71.8609L133.165 71.8142L132.835 70.87ZM132.5 71.2V71.3421H133.5V71.2H132.5ZM132.5 38.1V71.2H133.5V38.1H132.5ZM132.5 37.9343V38.1H133.5V37.9343H132.5ZM132.744 38.3948L132.907 38.4256L133.093 37.443L132.93 37.4122L132.744 38.3948ZM125.491 37.0225L132.744 38.3948L132.93 37.4122L125.676 36.0399L125.491 37.0225ZM270.143 30.1352C275.396 29.0381 279.406 28.5 282.2 28.5V27.5C279.302 27.5 275.211 28.0551 269.939 29.1563L270.143 30.1352ZM256.471 34.0077C260.401 32.5101 264.957 31.2184 270.143 30.1352L269.939 29.1563C264.713 30.2477 260.105 31.5529 256.115 33.0732L256.471 34.0077ZM256.599 37.1324L256.792 33.5675L255.793 33.5135L255.601 37.0784L256.599 37.1324ZM258.413 48.1332C257.206 44.6528 256.601 40.9782 256.6 37.1053L255.6 37.1055C255.601 41.0845 256.223 44.8702 257.469 48.461L258.413 48.1332ZM267.428 47.6034L257.931 47.7972L257.951 48.797L267.448 48.6032L267.428 47.6034ZM269.316 37.1508L266.95 47.9967L267.927 48.2099L270.293 37.364L269.316 37.1508ZM269.338 37.049L269.316 37.1508L270.293 37.3639L270.315 37.262L269.338 37.049ZM269.731 36.6539L269.635 36.694L270.019 37.617L270.115 37.5769L269.731 36.6539ZM275.556 35.4014C273.363 35.5385 271.417 35.9512 269.731 36.6539L270.115 37.5769C271.678 36.9257 273.511 36.5311 275.619 36.3994L275.556 35.4014ZM275.612 35.3979L275.556 35.4014L275.619 36.3994L275.674 36.396L275.612 35.3979ZM275.924 35.4794L275.874 35.4537L275.412 36.3402L275.461 36.366L275.924 35.4794ZM280.9 46.2C280.9 40.9465 279.324 37.2536 275.924 35.4794L275.461 36.366C278.385 37.8913 279.9 41.118 279.9 46.2H280.9ZM280.9 54.4V46.2H279.9V54.4H280.9ZM280.9 54.5958V54.4H279.9V54.5958H280.9ZM280.215 55.0999L280.411 55.0957L280.389 54.096L280.194 54.1001L280.215 55.0999ZM261.262 55.4989L280.215 55.0999L280.194 54.1001L261.241 54.4991L261.262 55.4989ZM253.8 66.6C253.8 61.9332 256.283 58.2152 261.487 55.4401L261.017 54.5578C255.573 57.461 252.8 61.476 252.8 66.6H253.8ZM257.911 75.2728C255.151 72.8619 253.8 69.9826 253.8 66.6H252.8C252.8 70.2932 254.293 73.4401 257.253 76.0259L257.911 75.2728ZM268.291 78.9C264.109 78.8983 260.665 77.679 257.911 75.2728L257.253 76.0259C260.212 78.6113 263.899 79.8983 268.291 79.9L268.291 78.9ZM271.589 78.6071L268.247 78.9019L268.335 79.8981L271.677 79.6032L271.589 78.6071ZM281.918 71.8133L271.36 78.6861L271.905 79.5242L282.464 72.6514L281.918 71.8133ZM282.097 71.697L281.918 71.8134L282.464 72.6514L282.642 72.535L282.097 71.697ZM282.91 72.0568L282.805 71.8708L281.934 72.3611L282.039 72.5471L282.91 72.0568ZM287.307 77.0304C285.529 75.7607 284.063 74.1068 282.91 72.0568L282.039 72.5471C283.259 74.7162 284.821 76.4835 286.726 77.8441L287.307 77.0304ZM292.473 78.9984C290.789 78.9266 289.069 78.2893 287.307 77.0304L286.726 77.8441C288.61 79.1899 290.512 79.9157 292.43 79.9975L292.473 78.9984ZM305.239 71.756L292.207 79.0618L292.696 79.9341L305.728 72.6283L305.239 71.756ZM304.432 68.1826L304.988 72.2597L305.979 72.1246L305.423 68.0475L304.432 68.1826ZM302.758 68.7976L304.969 68.6134L304.886 67.6168L302.675 67.801L302.758 68.7976ZM302.749 68.7983L302.758 68.7976L302.675 67.8011L302.666 67.8018L302.749 68.7983ZM300.026 68.8995L302.726 68.7997L302.689 67.8004L299.989 67.9002L300.026 68.8995ZM300.019 68.8998L300.026 68.8995L299.989 67.9002L299.981 67.9005L300.019 68.8998ZM297.62 68.0352C298.214 68.6521 299.052 68.9 300 68.9001L300 67.9001C299.216 67.9 298.682 67.6967 298.341 67.3421L297.62 68.0352ZM296.8 65.6C296.8 66.5677 297.032 67.4234 297.62 68.0352L298.341 67.3421C297.998 66.9853 297.8 66.4235 297.8 65.6H296.8ZM296.8 42.7018V65.6H297.8V42.7018H296.8ZM296.459 38.0592C296.652 39.2821 296.767 40.8299 296.8 42.7106L297.8 42.693C297.766 40.7858 297.649 39.1881 297.446 37.9032L296.459 38.0592ZM295.698 35.4576C295.999 35.981 296.264 36.8291 296.459 38.0592L297.446 37.9032C297.245 36.6289 296.956 35.6393 296.565 34.959L295.698 35.4576ZM282.2 28.5C287.902 28.5 292.389 30.8198 295.724 35.4986L296.539 34.918C293.017 29.9782 288.228 27.5 282.2 27.5V28.5ZM282.2 27.1C279.26 27.1 275.137 27.6619 269.857 28.7648L270.061 29.7437C275.322 28.6449 279.365 28.1 282.2 28.1V27.1ZM296.87 34.6939C293.273 29.6444 288.362 27.1 282.2 27.1V28.1C288.036 28.1 292.645 30.4857 296.056 35.2741L296.87 34.6939ZM296.876 34.7017L296.87 34.694L296.056 35.2739L296.061 35.2816L296.876 34.7017ZM296.906 34.7489L296.901 34.7408L296.036 35.2425L296.041 35.2507L296.906 34.7489ZM297.841 37.8408C297.637 36.5432 297.336 35.4932 296.906 34.7493L296.04 35.2503C296.38 35.8363 296.656 36.7434 296.854 37.9968L297.841 37.8408ZM298.2 42.6877C298.166 40.7691 298.048 39.1508 297.841 37.8408L296.854 37.9968C297.051 39.2449 297.167 40.8132 297.2 42.7053L298.2 42.6877ZM298.2 42.6913L298.2 42.6878L297.2 42.7052L297.2 42.7087L298.2 42.6913ZM298.2 65.6L298.2 42.7H297.2L297.2 65.6H298.2ZM298.63 67.0648C298.384 66.8097 298.2 66.3653 298.2 65.6H297.2C297.2 66.5102 297.419 67.2483 297.909 67.7579L298.63 67.0648ZM299.997 67.5C299.281 67.4994 298.87 67.3145 298.63 67.0648L297.909 67.7579C298.4 68.269 299.115 68.4993 299.996 68.5L299.997 67.5ZM302.669 67.4007L299.978 67.5004L300.015 68.4997L302.706 68.4L302.669 67.4007ZM305.042 67.2024L302.646 67.402L302.729 68.3986L305.125 68.199L305.042 67.2024ZM305.231 67.1867L305.042 67.2024L305.125 68.199L305.314 68.1832L305.231 67.1867ZM305.794 67.8055L305.768 67.6174L304.777 67.7525L304.803 67.9405L305.794 67.8055ZM306.394 72.2054L305.794 67.8054L304.803 67.9405L305.403 72.3405L306.394 72.2054ZM306.412 72.3403L306.394 72.2054L305.403 72.3406L305.421 72.4755L306.412 72.3403ZM306.042 72.9106L306.161 72.844L305.672 71.9717L305.553 72.0383L306.042 72.9106ZM292.842 80.3106L306.042 72.9106L305.553 72.0383L292.353 79.4383L292.842 80.3106ZM292.793 80.338L292.842 80.3106L292.353 79.4384L292.304 79.4658L292.793 80.338ZM292.475 80.3996L292.531 80.4016L292.567 79.4022L292.511 79.4002L292.475 80.3996ZM286.493 78.1696C288.446 79.5645 290.443 80.327 292.475 80.3996L292.511 79.4002C290.715 79.3361 288.904 78.6629 287.074 77.3559L286.493 78.1696ZM281.798 72.9335C283.029 75.064 284.594 76.813 286.493 78.1696L287.074 77.3559C285.298 76.0873 283.828 74.448 282.664 72.4332L281.798 72.9335ZM272.082 79.8867L282.504 73.1024L281.959 72.2643L271.536 79.0486L272.082 79.8867ZM272.04 79.914L272.082 79.8867L271.536 79.0485L271.495 79.0757L272.04 79.914ZM271.762 79.9973L271.811 79.9929L271.723 78.9968L271.674 79.0012L271.762 79.9973ZM268.362 80.2973L271.762 79.9973L271.674 79.0012L268.274 79.3012L268.362 80.2973ZM268.353 80.298L268.362 80.2973L268.273 79.3012L268.265 79.302L268.353 80.298ZM268.3 80.3H268.309V79.3H268.3V80.3ZM256.989 76.3272C260.033 78.986 263.82 80.3 268.3 80.3V79.3C264.029 79.3 260.486 78.0536 257.647 75.5741L256.989 76.3272ZM252.4 66.6C252.4 70.4175 253.949 73.6714 256.989 76.3272L257.647 75.5741C254.807 73.0932 253.4 70.1068 253.4 66.6H252.4ZM260.872 54.1817C255.304 57.1376 252.4 61.2787 252.4 66.6H253.4C253.4 61.7377 256.013 57.8935 261.341 55.065L260.872 54.1817ZM260.914 54.1594L260.872 54.1817L261.341 55.065L261.383 55.0427L260.914 54.1594ZM261.185 54.1002L261.138 54.1012L261.159 55.1009L261.206 55.0999L261.185 54.1002ZM279.989 53.7043L261.185 54.1002L261.206 55.0999L280.011 54.7041L279.989 53.7043ZM279.5 46.2V54.2042H280.5V46.2H279.5ZM275.322 36.7448C278.025 38.1803 279.5 41.2146 279.5 46.2H280.5C280.5 41.0438 278.966 37.5474 275.791 35.8616L275.322 36.7448ZM270.362 37.9081C271.842 37.3053 273.581 36.9323 275.589 36.8021L275.524 35.8042C273.432 35.9399 271.584 36.3306 269.985 36.9819L270.362 37.9081ZM268.284 48.4492L270.662 37.5516L269.685 37.3384L267.307 48.2361L268.284 48.4492ZM268.25 48.6033L268.284 48.4492L267.307 48.2361L267.273 48.3902L268.25 48.6033ZM267.614 48.9999L267.772 48.9966L267.752 47.9969L267.594 48.0001L267.614 48.9999ZM257.814 49.1999L267.614 48.9999L267.594 48.0001L257.794 48.2001L257.814 49.1999ZM257.67 49.2028L257.814 49.1999L257.794 48.2001L257.649 48.203L257.67 49.2028ZM257.14 48.7323L257.188 48.8689L258.131 48.537L258.083 48.4004L257.14 48.7323ZM255.2 37.1C255.2 41.1753 255.845 45.0541 257.14 48.7323L258.083 48.4004C256.828 44.8339 256.2 41.0678 256.2 37.1H255.2ZM255.2 37.0892V37.1H256.2V37.0892H255.2ZM255.727 36.5899L255.726 36.5899L255.674 37.5885L255.674 37.5885L255.727 36.5899ZM255.401 33.3622L255.201 37.0622L256.2 37.1162L256.4 33.4162L255.401 33.3622ZM255.408 33.2327L255.401 33.3622L256.4 33.4162L256.407 33.2867L255.408 33.2327ZM255.849 32.7464L255.728 32.7928L256.086 33.7266L256.207 33.6801L255.849 32.7464ZM269.857 28.7648C264.562 29.8706 259.892 31.1968 255.849 32.7464L256.207 33.6801C260.189 32.1538 264.807 30.8412 270.061 29.7437L269.857 28.7648ZM272.834 61.9183C274.435 61.1177 276.876 60.7336 280.194 60.7999L280.214 59.8001C276.844 59.7327 274.206 60.1142 272.387 61.0239L272.834 61.9183ZM271.077 63.4009C271.458 62.8129 272.038 62.3163 272.834 61.9183L272.387 61.0239C271.466 61.4842 270.736 62.0894 270.238 62.8563L271.077 63.4009ZM270.5 65.5C270.5 64.6834 270.696 63.9876 271.077 63.4009L270.238 62.8563C269.738 63.626 269.5 64.5165 269.5 65.5H270.5ZM272.112 69.5879C271.04 68.5157 270.5 67.161 270.5 65.5H269.5C269.5 67.4023 270.129 69.019 271.405 70.295L272.112 69.5879ZM272.176 69.6521L272.112 69.5879L271.405 70.2949L271.469 70.3591L272.176 69.6521ZM271.88 69.5007L271.789 69.5067L271.856 70.5045L271.947 70.4985L271.88 69.5007ZM280.108 67.6143C276.582 68.7454 273.843 69.3698 271.88 69.5007L271.947 70.4985C274.033 70.3594 276.864 69.7052 280.414 68.5666L280.108 67.6143ZM280.247 67.5698L280.108 67.6143L280.414 68.5666L280.553 68.522L280.247 67.5698ZM279.9 67.9V68.0459H280.9V67.9H279.9ZM279.9 60.5V67.9H280.9V60.5H279.9ZM279.9 60.304V60.5H280.9V60.304H279.9ZM280.194 60.7999L280.39 60.8039L280.41 59.8041L280.214 59.8001L280.194 60.7999ZM270.573 63.0741C270.121 63.7707 269.9 64.5833 269.9 65.5H270.9C270.9 64.7502 271.079 64.1323 271.412 63.6187L270.573 63.0741ZM272.566 61.3817C271.695 61.8171 271.025 62.3788 270.573 63.0741L271.412 63.6187C271.747 63.1022 272.267 62.6491 273.013 62.2761L272.566 61.3817ZM280.007 60.1966C276.757 60.1485 274.264 60.5325 272.566 61.3817L273.013 62.2761C274.496 61.5344 276.796 61.1492 279.993 61.1965L280.007 60.1966ZM280.5 67.754V60.6966H279.5V67.754H280.5ZM272.014 70.0927C274.015 69.9457 276.731 69.321 280.152 68.2304L279.848 67.2776C276.452 68.3604 273.825 68.957 271.941 69.0954L272.014 70.0927ZM269.9 65.5C269.9 67.2698 270.47 68.7582 271.619 69.9423L272.337 69.2458C271.385 68.2654 270.9 67.0344 270.9 65.5H269.9ZM643.769 62.2538L643.677 62.2153L643.292 63.1383L643.385 63.1769L643.769 62.2538ZM654.56 70.98C651.497 66.8956 647.901 63.9755 643.769 62.2538L643.385 63.1769C647.328 64.82 650.787 67.6161 653.76 71.58L654.56 70.98ZM654.625 71.0669L654.56 70.9799L653.76 71.58L653.825 71.667L654.625 71.0669ZM654.657 71.6416L654.695 71.5396L653.756 71.1943L653.719 71.2964L654.657 71.6416ZM645.993 82.7794C650.05 80.029 652.941 76.3099 654.657 71.6415L653.718 71.2964C652.073 75.7719 649.312 79.3208 645.432 81.9517L645.993 82.7794ZM645.904 82.8395L645.993 82.7794L645.432 81.9516L645.343 82.0116L645.904 82.8395ZM645.336 82.8482L645.435 82.8886L645.812 81.9626L645.713 81.9222L645.336 82.8482ZM639.177 79.1579C641.407 80.8474 643.461 82.0844 645.336 82.8482L645.713 81.9221C643.945 81.2018 641.968 80.0177 639.781 78.3608L639.177 79.1579ZM634.029 74.1046C635.217 75.7814 636.942 77.4642 639.177 79.1579L639.781 78.3608C637.596 76.7058 635.955 75.0936 634.845 73.5266L634.029 74.1046ZM633.959 74.0062L634.029 74.1046L634.845 73.5265L634.775 73.4281L633.959 74.0062ZM633.976 73.3836L633.921 73.4912L634.813 73.9432L634.868 73.8356L633.976 73.3836ZM643.144 62.2976C639.715 64.3268 636.672 68.0589 633.976 73.3838L634.868 73.8355C637.522 68.5937 640.456 65.0504 643.653 63.1581L643.144 62.2976ZM643.23 62.2465L643.143 62.2976L643.653 63.1581L643.739 63.1071L643.23 62.2465ZM635.279 73.9093C637.878 68.8064 640.722 65.3889 643.774 63.5518L643.258 62.6951C639.981 64.6679 637.029 68.2696 634.388 73.4554L635.279 73.9093ZM640.023 78.042C637.903 76.4364 636.317 74.8841 635.239 73.3898L634.428 73.9749C635.582 75.5747 637.249 77.1954 639.419 78.8391L640.023 78.042ZM645.768 81.5123C644.067 80.8056 642.152 79.6553 640.023 78.042L639.419 78.8391C641.591 80.4846 643.58 81.6862 645.385 82.4358L645.768 81.5123ZM653.306 71.2584C651.697 75.5761 649.03 79.0042 645.294 81.5614L645.859 82.3866C649.768 79.7108 652.564 76.1152 654.243 71.6075L653.306 71.2584ZM643.321 63.5841C647.124 65.1888 650.476 67.8946 653.375 71.7342L654.174 71.1317C651.185 67.1733 647.698 64.3457 643.71 62.6628L643.321 63.5841ZM674.792 63.1383L674.885 63.1769L675.269 62.2538L675.177 62.2153L674.792 63.1383ZM675.153 63.1581L675.239 63.1071L674.73 62.2465L674.643 62.2976L675.153 63.1581ZM666.368 73.8355C669.022 68.5937 671.956 65.0504 675.153 63.1581L674.644 62.2976C671.215 64.3268 668.172 68.0589 665.476 73.3838L666.368 73.8355ZM666.313 73.9432L666.368 73.8356L665.476 73.3836L665.421 73.4912L666.313 73.9432ZM666.345 73.5265L666.275 73.4281L665.459 74.0062L665.529 74.1046L666.345 73.5265ZM671.281 78.3608C669.096 76.7058 667.455 75.0936 666.345 73.5266L665.529 74.1046C666.717 75.7814 668.442 77.4642 670.677 79.1579L671.281 78.3608ZM677.213 81.9221C675.445 81.2018 673.468 80.0177 671.281 78.3608L670.677 79.1579C672.907 80.8474 674.961 82.0844 676.836 82.8482L677.213 81.9221ZM677.312 81.9626L677.213 81.9222L676.836 82.8482L676.935 82.8886L677.312 81.9626ZM676.932 81.9516L676.843 82.0116L677.404 82.8395L677.493 82.7794L676.932 81.9516ZM685.218 71.2964C683.573 75.7719 680.812 79.3208 676.932 81.9517L677.493 82.7794C681.55 80.029 684.441 76.3099 686.157 71.6415L685.218 71.2964ZM685.256 71.1943L685.219 71.2964L686.157 71.6416L686.195 71.5396L685.256 71.1943ZM685.26 71.58L685.325 71.667L686.125 71.0669L686.06 70.9799L685.26 71.58ZM674.885 63.1769C678.828 64.82 682.287 67.6161 685.26 71.58L686.06 70.98C682.997 66.8956 679.401 63.9755 675.269 62.2538L674.885 63.1769ZM674.758 62.6951C671.481 64.6679 668.529 68.2696 665.888 73.4554L666.779 73.9093C669.378 68.8064 672.222 65.3889 675.274 63.5518L674.758 62.6951ZM685.674 71.1317C682.685 67.1733 679.198 64.3457 675.21 62.6628L674.821 63.5841C678.624 65.1888 681.976 67.8946 684.875 71.7342L685.674 71.1317ZM677.359 82.3866C681.268 79.7108 684.064 76.1152 685.743 71.6075L684.806 71.2584C683.197 75.5761 680.53 79.0042 676.794 81.5614L677.359 82.3866ZM670.919 78.8391C673.091 80.4846 675.08 81.6862 676.885 82.4358L677.268 81.5123C675.567 80.8056 673.652 79.6553 671.523 78.042L670.919 78.8391ZM665.928 73.9749C667.082 75.5747 668.749 77.1954 670.919 78.8391L671.523 78.042C669.403 76.4364 667.817 74.8841 666.739 73.3898L665.928 73.9749Z" fill="#3DD7AC"/>
</svg>
